0
SECTION
2
HEADER
9
$INSUNITS
70
4
9
$ACADVER
1
AC1014
9
$HANDSEED
5
FFFF
0
ENDSEC
0
SECTION
2
TABLES
0
TABLE
2
VPORT
5
8
100
AcDbSymbolTable
0
ENDTAB
0
TABLE
2
LTYPE
5
5
100
AcDbSymbolTable
0
LTYPE
5
14
100
AcDbSymbolTableRecord
100
AcDbLinetypeTableRecord
2
BYBLOCK
70
0
0
LTYPE
5
15
100
AcDbSymbolTableRecord
100
AcDbLinetypeTableRecord
2
BYLAYER
70
0
0
ENDTAB
0
TABLE
2
LAYER
5
2
100
AcDbSymbolTable
70
2
0
LAYER
5
50
100
AcDbSymbolTableRecord
100
AcDbLayerTableRecord
2
0
70
0
6
CONTINUOUS
0
ENDTAB
0
TABLE
2
STYLE
5
3
100
AcDbSymbolTable
70
1
0
STYLE
5
11
100
AcDbSymbolTableRecord
100
AcDbTextStyleTableRecord
2
STANDARD
70
0
0
ENDTAB
0
TABLE
2
VIEW
5
6
100
AcDbSymbolTable
70
0
0
ENDTAB
0
TABLE
2
UCS
5
7
100
AcDbSymbolTable
70
0
0
ENDTAB
0
TABLE
2
APPID
5
9
100
AcDbSymbolTable
70
2
0
APPID
5
12
100
AcDbSymbolTableRecord
100
AcDbRegAppTableRecord
2
ACAD
70
0
0
ENDTAB
0
TABLE
2
DIMSTYLE
5
A
100
AcDbSymbolTable
70
1
0
ENDTAB
0
TABLE
2
BLOCK_RECORD
5
1
100
AcDbSymbolTable
70
1
0
BLOCK_RECORD
5
1F
100
AcDbSymbolTableRecord
100
AcDbBlockTableRecord
2
*MODEL_SPACE
0
BLOCK_RECORD
5
1B
100
AcDbSymbolTableRecord
100
AcDbBlockTableRecord
2
*PAPER_SPACE
0
ENDTAB
0
ENDSEC
0
SECTION
2
BLOCKS
0
BLOCK
5
20
100
AcDbEntity
100
AcDbBlockBegin
2
*MODEL_SPACE
0
ENDBLK
5
21
100
AcDbEntity
100
AcDbBlockEnd
0
BLOCK
5
1C
100
AcDbEntity
100
AcDbBlockBegin
2
*PAPER_SPACE
0
ENDBLK
5
1D
100
AcDbEntity
100
AcDbBlockEnd
0
ENDSEC
0
SECTION
2
ENTITIES
0
LWPOLYLINE
5
100
100
AcDbEntity
8
0
100
AcDbPolyline
90
4
70
1
43
0.0
10
-228.34
20
-5
10
-202.33999999999997
20
-5
10
-202.33999999999997
20
0
10
-228.34
20
0
0
LWPOLYLINE
5
101
100
AcDbEntity
8
0
100
AcDbPolyline
90
4
70
1
43
0.0
10
-91.340000000000003
20
0
10
-148.33999999999997
20
0
10
-148.33999999999997
20
-5
10
-91.340000000000003
20
-5
0
LWPOLYLINE
5
102
100
AcDbEntity
8
0
100
AcDbPolyline
90
4
70
1
43
0.0
10
-322.34000000000003
20
55
10
-317.33999999999997
20
55
10
-317.33999999999997
20
75
10
-322.34000000000003
20
75
0
LWPOLYLINE
5
103
100
AcDbEntity
8
0
100
AcDbPolyline
90
4
70
1
43
0.0
10
-322.34000000000003
20
90
10
-317.33999999999997
20
90
10
-317.33999999999997
20
110
10
-322.34000000000003
20
110
0
LWPOLYLINE
5
104
100
AcDbEntity
8
0
100
AcDbPolyline
90
8
70
1
43
0.0
10
-317.33999999999997
20
10
10
-322.34000000000003
20
10
10
-322.34000000000003
20
-10
10
-317.33999999999997
20
-10
10
-317.33999999999997
20
-5.000000074505806
10
-291.34000000000003
20
-5
10
-291.34000000000003
20
0
10
-317.33999999999997
20
0
0
LWPOLYLINE
5
105
100
AcDbEntity
8
0
100
AcDbPolyline
90
6
70
1
43
0.0
10
-169.79867384237534
20
89.165899800901059
10
-178.45892788021959
20
94.165899800900974
10
-187.11918191806393
20
89.165899800901087
10
-187.1191819180639
20
79.165899800901158
10
-178.45892788021973
20
74.165899800901229
10
-169.79867384237536
20
79.165899800901158
0
LWPOLYLINE
5
106
100
AcDbEntity
8
0
100
AcDbPolyline
90
6
70
1
43
0.0
10
-188.45892788021959
20
111.48640787659006
10
-197.1191819180639
20
106.48640787659008
10
-197.11918191806393
20
96.486407876590121
10
-188.45892788021968
20
91.486407876590192
10
-179.79867384237531
20
96.486407876590164
10
-179.79867384237534
20
106.48640787659006
0
LWPOLYLINE
5
107
100
AcDbEntity
8
0
100
AcDbPolyline
90
6
70
1
43
0.0
10
-228.45892788021959
20
111.48640787659006
10
-237.1191819180639
20
106.48640787659008
10
-237.11918191806393
20
96.486407876590121
10
-228.45892788021968
20
91.486407876590192
10
-219.79867384237531
20
96.486407876590164
10
-219.79867384237534
20
106.48640787659006
0
LWPOLYLINE
5
108
100
AcDbEntity
8
0
100
AcDbPolyline
90
6
70
1
43
0.0
10
-279.79867384237542
20
106.48640787658996
10
-288.45892788021973
20
111.48640787658992
10
-297.11918191806404
20
106.48640787659004
10
-297.11918191806399
20
96.486407876590135
10
-288.45892788021979
20
91.486407876590178
10
-279.79867384237548
20
96.486407876590135
0
LWPOLYLINE
5
109
100
AcDbEntity
8
0
100
AcDbPolyline
90
6
70
1
43
0.0
10
-229.79867384237559
20
79.165899800901173
10
-229.79867384237562
20
89.16589980090103
10
-238.45892788021985
20
94.165899800900959
10
-247.11918191806416
20
89.165899800901116
10
-247.11918191806419
20
79.165899800901201
10
-238.45892788021985
20
74.165899800901229
0
LWPOLYLINE
5
110
100
AcDbEntity
8
0
100
AcDbPolyline
90
6
70
1
43
0.0
10
-189.79867384237559
20
79.165899800901173
10
-189.79867384237562
20
89.16589980090103
10
-198.45892788021985
20
94.165899800900959
10
-207.11918191806416
20
89.165899800901116
10
-207.11918191806419
20
79.165899800901201
10
-198.45892788021985
20
74.165899800901229
0
LWPOLYLINE
5
111
100
AcDbEntity
8
0
100
AcDbPolyline
90
6
70
1
43
0.0
10
-229.79867384237559
20
113.80691595227873
10
-229.79867384237562
20
123.80691595227859
10
-238.45892788021985
20
128.80691595227853
10
-247.11918191806416
20
123.80691595227867
10
-247.11918191806419
20
113.80691595227874
10
-238.45892788021985
20
108.80691595227879
0
LWPOLYLINE
5
112
100
AcDbEntity
8
0
100
AcDbPolyline
90
6
70
1
43
0.0
10
-258.45892788021962
20
94.165899800900974
10
-267.11918191806393
20
89.165899800901087
10
-267.11918191806387
20
79.165899800901158
10
-258.45892788021973
20
74.165899800901229
10
-249.79867384237536
20
79.165899800901158
10
-249.79867384237534
20
89.165899800901059
0
LWPOLYLINE
5
113
100
AcDbEntity
8
0
100
AcDbPolyline
90
6
70
1
43
0.0
10
-258.45892788021962
20
128.80691595227853
10
-267.11918191806393
20
123.80691595227864
10
-267.11918191806387
20
113.80691595227871
10
-258.45892788021973
20
108.80691595227879
10
-249.79867384237536
20
113.80691595227871
10
-249.79867384237534
20
123.8069159522786
0
LWPOLYLINE
5
114
100
AcDbEntity
8
0
100
AcDbPolyline
90
6
70
1
43
0.0
10
-298.45892788021962
20
94.165899800900974
10
-307.11918191806393
20
89.165899800901087
10
-307.11918191806387
20
79.165899800901158
10
-298.45892788021973
20
74.165899800901229
10
-289.79867384237536
20
79.165899800901158
10
-289.79867384237531
20
89.165899800901059
0
LWPOLYLINE
5
115
100
AcDbEntity
8
0
100
AcDbPolyline
90
6
70
1
43
0.0
10
-199.79867384237542
20
71.845391725212409
10
-208.45892788021973
20
76.84539172521238
10
-217.11918191806404
20
71.84539172521248
10
-217.11918191806399
20
61.845391725212586
10
-208.45892788021982
20
56.845391725212622
10
-199.79867384237551
20
61.845391725212586
0
LWPOLYLINE
5
116
100
AcDbEntity
8
0
100
AcDbPolyline
90
6
70
1
43
0.0
10
-179.79867384237534
20
71.845391725212522
10
-188.45892788021959
20
76.845391725212522
10
-197.1191819180639
20
71.845391725212522
10
-197.11918191806393
20
61.845391725212579
10
-188.45892788021968
20
56.845391725212629
10
-179.79867384237531
20
61.845391725212608
0
LWPOLYLINE
5
117
100
AcDbEntity
8
0
100
AcDbPolyline
90
6
70
1
43
0.0
10
-218.45892788021959
20
128.80691595227853
10
-227.11918191806393
20
123.80691595227864
10
-227.1191819180639
20
113.80691595227871
10
-218.45892788021973
20
108.80691595227879
10
-209.79867384237536
20
113.80691595227871
10
-209.79867384237534
20
123.8069159522786
0
LWPOLYLINE
5
118
100
AcDbEntity
8
0
100
AcDbPolyline
90
6
70
1
43
0.0
10
-159.79867384237545
20
71.845391725212409
10
-168.45892788021973
20
76.84539172521238
10
-177.11918191806404
20
71.84539172521248
10
-177.11918191806399
20
61.845391725212586
10
-168.45892788021982
20
56.845391725212622
10
-159.79867384237548
20
61.845391725212586
0
LWPOLYLINE
5
119
100
AcDbEntity
8
0
100
AcDbPolyline
90
6
70
1
43
0.0
10
-189.79867384237559
20
113.80691595227873
10
-189.79867384237562
20
123.80691595227859
10
-198.45892788021985
20
128.80691595227853
10
-207.11918191806416
20
123.80691595227867
10
-207.11918191806419
20
113.80691595227874
10
-198.45892788021985
20
108.80691595227879
0
LWPOLYLINE
5
120
100
AcDbEntity
8
0
100
AcDbPolyline
90
6
70
1
43
0.0
10
-239.79867384237542
20
106.48640787658996
10
-248.45892788021973
20
111.48640787658992
10
-257.11918191806404
20
106.48640787659004
10
-257.11918191806399
20
96.486407876590135
10
-248.45892788021982
20
91.486407876590178
10
-239.79867384237551
20
96.486407876590135
0
LWPOLYLINE
5
121
100
AcDbEntity
8
0
100
AcDbPolyline
90
6
70
1
43
0.0
10
-268.45892788021962
20
76.845391725212522
10
-277.11918191806387
20
71.845391725212522
10
-277.11918191806393
20
61.845391725212579
10
-268.45892788021968
20
56.845391725212629
10
-259.79867384237531
20
61.845391725212608
10
-259.79867384237531
20
71.845391725212522
0
LWPOLYLINE
5
122
100
AcDbEntity
8
0
100
AcDbPolyline
90
6
70
1
43
0.0
10
-269.79867384237559
20
113.80691595227873
10
-269.79867384237559
20
123.80691595227859
10
-278.45892788021985
20
128.80691595227853
10
-287.11918191806416
20
123.80691595227867
10
-287.11918191806421
20
113.80691595227874
10
-278.45892788021985
20
108.80691595227879
0
LWPOLYLINE
5
123
100
AcDbEntity
8
0
100
AcDbPolyline
90
6
70
1
43
0.0
10
-269.79867384237559
20
79.165899800901173
10
-269.79867384237559
20
89.16589980090103
10
-278.45892788021985
20
94.165899800900959
10
-287.11918191806416
20
89.165899800901116
10
-287.11918191806421
20
79.165899800901201
10
-278.45892788021985
20
74.165899800901229
0
LWPOLYLINE
5
124
100
AcDbEntity
8
0
100
AcDbPolyline
90
6
70
1
43
0.0
10
-268.45892788021962
20
111.48640787659006
10
-277.11918191806387
20
106.48640787659008
10
-277.11918191806393
20
96.486407876590121
10
-268.45892788021968
20
91.486407876590192
10
-259.79867384237531
20
96.486407876590164
10
-259.79867384237531
20
106.48640787659006
0
LWPOLYLINE
5
125
100
AcDbEntity
8
0
100
AcDbPolyline
90
6
70
1
43
0.0
10
-298.45892788021962
20
128.80691595227853
10
-307.11918191806393
20
123.80691595227864
10
-307.11918191806387
20
113.80691595227871
10
-298.45892788021973
20
108.80691595227879
10
-289.79867384237536
20
113.80691595227871
10
-289.79867384237531
20
123.8069159522786
0
LWPOLYLINE
5
126
100
AcDbEntity
8
0
100
AcDbPolyline
90
6
70
1
43
0.0
10
-279.79867384237542
20
71.845391725212409
10
-288.45892788021973
20
76.84539172521238
10
-297.11918191806404
20
71.84539172521248
10
-297.11918191806399
20
61.845391725212586
10
-288.45892788021979
20
56.845391725212622
10
-279.79867384237548
20
61.845391725212586
0
LWPOLYLINE
5
127
100
AcDbEntity
8
0
100
AcDbPolyline
90
6
70
1
43
0.0
10
-239.79867384237542
20
71.845391725212409
10
-248.45892788021973
20
76.84539172521238
10
-257.11918191806404
20
71.84539172521248
10
-257.11918191806399
20
61.845391725212586
10
-248.45892788021982
20
56.845391725212622
10
-239.79867384237551
20
61.845391725212586
0
LWPOLYLINE
5
128
100
AcDbEntity
8
0
100
AcDbPolyline
90
6
70
1
43
0.0
10
-178.45892788021959
20
128.80691595227853
10
-187.11918191806393
20
123.80691595227864
10
-187.1191819180639
20
113.80691595227871
10
-178.45892788021973
20
108.80691595227879
10
-169.79867384237536
20
113.80691595227871
10
-169.79867384237534
20
123.8069159522786
0
LWPOLYLINE
5
129
100
AcDbEntity
8
0
100
AcDbPolyline
90
6
70
1
43
0.0
10
-218.45892788021959
20
94.165899800900974
10
-227.11918191806393
20
89.165899800901087
10
-227.1191819180639
20
79.165899800901158
10
-218.45892788021973
20
74.165899800901229
10
-209.79867384237536
20
79.165899800901158
10
-209.79867384237534
20
89.165899800901059
0
LWPOLYLINE
5
130
100
AcDbEntity
8
0
100
AcDbPolyline
90
6
70
1
43
0.0
10
-199.79867384237542
20
106.48640787658996
10
-208.45892788021973
20
111.48640787658992
10
-217.11918191806404
20
106.48640787659004
10
-217.11918191806399
20
96.486407876590135
10
-208.45892788021982
20
91.486407876590178
10
-199.79867384237551
20
96.486407876590135
0
LWPOLYLINE
5
131
100
AcDbEntity
8
0
100
AcDbPolyline
90
6
70
1
43
0.0
10
-167.11918191806419
20
79.165899800901201
10
-158.45892788021982
20
74.165899800901229
10
-149.79867384237559
20
79.165899800901173
10
-149.79867384237562
20
89.16589980090103
10
-158.45892788021985
20
94.165899800900959
10
-167.11918191806416
20
89.165899800901116
0
LWPOLYLINE
5
132
100
AcDbEntity
8
0
100
AcDbPolyline
90
4
70
1
43
0.0
10
-307.33999999999997
20
48.769199999999991
10
-307.33999999999997
20
4.0651999999999973
10
-148.33600000000001
20
4.0651999999999955
10
-148.33600000000001
20
48.769199999999991
0
LWPOLYLINE
5
133
100
AcDbEntity
8
0
100
AcDbPolyline
90
4
70
1
43
0.0
10
-107.8357
20
119.25300000000001
10
-123.7107
20
119.25300000000001
10
-123.7107
20
14.246999999999998
10
-107.8357
20
14.246999999999996
0
LWPOLYLINE
5
134
100
AcDbEntity
8
0
100
AcDbPolyline
90
4
70
1
43
0.0
10
-128.15569999999997
20
119.25300000000001
10
-144.03069999999997
20
119.25300000000001
10
-144.03069999999997
20
14.246999999999998
10
-128.15569999999997
20
14.246999999999996
0
LWPOLYLINE
5
135
100
AcDbEntity
8
0
100
AcDbPolyline
90
38
70
1
43
0.0
10
-159.34
20
141.39999999999998
10
-119.33999999999999
20
141.39999999999998
10
-119.33999999999997
20
148.39999999999998
42
-0.41421356237308815
10
-116.33999999999997
20
151.39999999999998
10
-90.04000000000002
20
151.39999999999998
42
-0.41421356237308815
10
-87.040000000000006
20
148.39999999999998
10
-87.040000000000006
20
133.39999999999998
10
-92.040000000000006
20
133.39999999999998
10
-92.040000000000006
20
103.39999999999998
10
-87.040000000000006
20
103.39999999999998
10
-87.040000000000006
20
40
10
-92.040000000000006
20
40
10
-92.040000000000006
20
10
10
-87.040000000000006
20
9.9999999999999982
10
-87.040000000000006
20
-13
42
-0.41421356237309354
10
-90.04000000000002
20
-16
10
-104.03999999999999
20
-16.000000000000011
42
-0.41421356237309503
10
-107.04000000000001
20
-13.000000000000004
42
0.4142135623730937
10
-110.04000000000002
20
-10
10
-309.33999999999997
20
-10
42
0.41421356237308915
10
-312.33999999999997
20
-13
42
-0.41421356237309531
10
-315.33999999999997
20
-16
10
-337.34000000000003
20
-16.000000000000025
42
-0.41421356237311352
10
-340.33999999999997
20
-13.000000000000007
10
-340.33999999999997
20
148.39999999999998
42
-0.41421356237311413
10
-337.34000000000003
20
151.39999999999998
10
-283.34000000000003
20
151.39999999999995
42
-0.41421356237309681
10
-280.33999999999997
20
148.39999999999998
10
-280.33999999999997
20
146.39999999999998
10
-299.33999999999997
20
146.39999999999998
10
-299.33999999999997
20
141.39999999999998
10
-259.33999999999997
20
141.39999999999998
10
-259.33999999999997
20
148.39999999999998
42
-0.41421356237309337
10
-256.33999999999997
20
151.39999999999998
10
-143.34
20
151.39999999999998
42
-0.41421356237308815
10
-140.33999999999997
20
148.39999999999998
10
-140.33999999999997
20
146.39999999999998
10
-159.34
20
146.39999999999998
0
LWPOLYLINE
5
136
100
AcDbEntity
8
0
100
AcDbPolyline
90
4
70
1
43
0.0
10
-153.34
20
135.29999999999998
10
-153.34
20
124.90000000000001
10
-104.33999999999999
20
124.90000000000001
10
-104.33999999999999
20
135.29999999999998
0
ENDSEC
0
SECTION
2
OBJECTS
0
DICTIONARY
5
C
100
AcDbDictionary
3
ACAD_GROUP
350
D
3
ACAD_MLINESTYLE
350
17
0
DICTIONARY
5
D
100
AcDbDictionary
0
DICTIONARY
5
1A
330
C
100
AcDbDictionary
0
DICTIONARY
5
17
100
AcDbDictionary
0
ENDSEC
0
EOF
