0
SECTION
2
HEADER
9
$INSUNITS
70
4
9
$ACADVER
1
AC1014
9
$HANDSEED
5
FFFF
0
ENDSEC
0
SECTION
2
TABLES
0
TABLE
2
VPORT
5
8
100
AcDbSymbolTable
0
ENDTAB
0
TABLE
2
LTYPE
5
5
100
AcDbSymbolTable
0
LTYPE
5
14
100
AcDbSymbolTableRecord
100
AcDbLinetypeTableRecord
2
BYBLOCK
70
0
0
LTYPE
5
15
100
AcDbSymbolTableRecord
100
AcDbLinetypeTableRecord
2
BYLAYER
70
0
0
ENDTAB
0
TABLE
2
LAYER
5
2
100
AcDbSymbolTable
70
2
0
LAYER
5
50
100
AcDbSymbolTableRecord
100
AcDbLayerTableRecord
2
0
70
0
6
CONTINUOUS
0
ENDTAB
0
TABLE
2
STYLE
5
3
100
AcDbSymbolTable
70
1
0
STYLE
5
11
100
AcDbSymbolTableRecord
100
AcDbTextStyleTableRecord
2
STANDARD
70
0
0
ENDTAB
0
TABLE
2
VIEW
5
6
100
AcDbSymbolTable
70
0
0
ENDTAB
0
TABLE
2
UCS
5
7
100
AcDbSymbolTable
70
0
0
ENDTAB
0
TABLE
2
APPID
5
9
100
AcDbSymbolTable
70
2
0
APPID
5
12
100
AcDbSymbolTableRecord
100
AcDbRegAppTableRecord
2
ACAD
70
0
0
ENDTAB
0
TABLE
2
DIMSTYLE
5
A
100
AcDbSymbolTable
70
1
0
ENDTAB
0
TABLE
2
BLOCK_RECORD
5
1
100
AcDbSymbolTable
70
1
0
BLOCK_RECORD
5
1F
100
AcDbSymbolTableRecord
100
AcDbBlockTableRecord
2
*MODEL_SPACE
0
BLOCK_RECORD
5
1B
100
AcDbSymbolTableRecord
100
AcDbBlockTableRecord
2
*PAPER_SPACE
0
ENDTAB
0
ENDSEC
0
SECTION
2
BLOCKS
0
BLOCK
5
20
100
AcDbEntity
100
AcDbBlockBegin
2
*MODEL_SPACE
0
ENDBLK
5
21
100
AcDbEntity
100
AcDbBlockEnd
0
BLOCK
5
1C
100
AcDbEntity
100
AcDbBlockBegin
2
*PAPER_SPACE
0
ENDBLK
5
1D
100
AcDbEntity
100
AcDbBlockEnd
0
ENDSEC
0
SECTION
2
ENTITIES
0
LWPOLYLINE
5
100
100
AcDbEntity
8
0
100
AcDbPolyline
90
4
70
1
43
0.0
10
110.04061274580769
20
38.295420067701649
10
110.04061274580769
20
143.30142006770166
10
94.165612745807692
20
143.30142006770166
10
94.165612745807692
20
38.295420067701649
0
LWPOLYLINE
5
101
100
AcDbEntity
8
0
100
AcDbPolyline
90
6
70
1
43
0.0
10
263.44909466387156
20
135.43482794429173
10
254.78884062602731
20
140.43482794429173
10
246.128586588183
20
135.43482794429173
10
246.128586588183
20
125.43482794429181
10
254.78884062602737
20
120.43482794429184
10
263.44909466387168
20
125.43482794429178
0
LWPOLYLINE
5
102
100
AcDbEntity
8
0
100
AcDbPolyline
90
6
70
1
43
0.0
10
254.78884062602737
20
85.793811792914283
10
263.44909466387168
20
90.793811792914227
10
263.44909466387156
20
100.79381179291417
10
254.78884062602731
20
105.79381179291417
10
246.128586588183
20
100.79381179291417
10
246.128586588183
20
90.793811792914283
0
LWPOLYLINE
5
103
100
AcDbEntity
8
0
100
AcDbPolyline
90
6
70
1
43
0.0
10
226.12858658818323
20
125.43482794429178
10
234.78884062602754
20
120.43482794429184
10
243.44909466387168
20
125.43482794429178
10
243.44909466387173
20
135.4348279442917
10
234.78884062602742
20
140.43482794429158
10
226.12858658818314
20
135.43482794429161
0
LWPOLYLINE
5
104
100
AcDbEntity
8
0
100
AcDbPolyline
90
6
70
1
43
0.0
10
213.44909466387156
20
142.75533601998038
10
213.44909466387165
20
152.75533601998029
10
204.78884062602731
20
157.75533601998018
10
196.128586588183
20
152.75533601998026
10
196.12858658818305
20
142.75533601998038
10
204.78884062602742
20
137.75533601998046
0
LWPOLYLINE
5
105
100
AcDbEntity
8
0
100
AcDbPolyline
90
6
70
1
43
0.0
10
223.44909466387156
20
135.43482794429173
10
214.78884062602731
20
140.43482794429173
10
206.128586588183
20
135.43482794429173
10
206.128586588183
20
125.43482794429181
10
214.78884062602737
20
120.43482794429184
10
223.44909466387165
20
125.43482794429178
0
LWPOLYLINE
5
106
100
AcDbEntity
8
0
100
AcDbPolyline
90
6
70
1
43
0.0
10
156.12858658818305
20
108.11431986860282
10
164.78884062602742
20
103.11431986860288
10
173.44909466387156
20
108.11431986860282
10
173.44909466387165
20
118.11431986860273
10
164.78884062602731
20
123.11431986860262
10
156.128586588183
20
118.11431986860272
0
LWPOLYLINE
5
107
100
AcDbEntity
8
0
100
AcDbPolyline
90
6
70
1
43
0.0
10
276.12858658818305
20
108.11431986860282
10
284.78884062602748
20
103.11431986860288
10
293.44909466387156
20
108.11431986860282
10
293.44909466387162
20
118.11431986860273
10
284.78884062602731
20
123.11431986860262
10
276.12858658818294
20
118.11431986860272
0
LWPOLYLINE
5
108
100
AcDbEntity
8
0
100
AcDbPolyline
90
8
70
1
43
0.0
10
277.66991274580778
20
28.948420067701655
10
277.66991274580778
20
23.948420067701655
10
303.66991274580766
20
23.948419993195849
10
303.66991274580766
20
18.948420067701655
10
308.66991274580778
20
18.948420067701655
10
308.66991274580778
20
38.948420067701655
10
303.66991274580766
20
38.948420067701655
10
303.66991274580766
20
28.948420067701655
0
LWPOLYLINE
5
109
100
AcDbEntity
8
0
100
AcDbPolyline
90
6
70
1
43
0.0
10
224.78884062602754
20
123.11431986860265
10
216.12858658818328
20
118.11431986860269
10
216.12858658818328
20
108.11431986860283
10
224.78884062602754
20
103.11431986860288
10
233.44909466387185
20
108.11431986860285
10
233.44909466387185
20
118.11431986860273
0
LWPOLYLINE
5
110
100
AcDbEntity
8
0
100
AcDbPolyline
90
4
70
1
43
0.0
10
77.669912745807679
20
28.948420067701655
10
77.669912745807679
20
23.948420067701655
10
134.66991274580766
20
23.948420067701655
10
134.66991274580766
20
28.948420067701655
0
LWPOLYLINE
5
111
100
AcDbEntity
8
0
100
AcDbPolyline
90
6
70
1
43
0.0
10
253.44909466387168
20
118.11431986860273
10
244.78884062602731
20
123.11431986860262
10
236.128586588183
20
118.11431986860272
10
236.12858658818305
20
108.11431986860282
10
244.78884062602742
20
103.11431986860288
10
253.44909466387156
20
108.11431986860282
0
LWPOLYLINE
5
112
100
AcDbEntity
8
0
100
AcDbPolyline
90
4
70
1
43
0.0
10
303.66991274580766
20
103.94842006770165
10
303.66991274580766
20
83.948420067701647
10
308.66991274580778
20
83.948420067701647
10
308.66991274580778
20
103.94842006770165
0
LWPOLYLINE
5
113
100
AcDbEntity
8
0
100
AcDbPolyline
90
6
70
1
43
0.0
10
274.78884062602748
20
120.43482794429184
10
283.44909466387168
20
125.43482794429178
10
283.44909466387179
20
135.4348279442917
10
274.78884062602748
20
140.43482794429158
10
266.12858658818311
20
135.43482794429161
10
266.12858658818311
20
125.43482794429178
0
LWPOLYLINE
5
114
100
AcDbEntity
8
0
100
AcDbPolyline
90
4
70
1
43
0.0
10
303.66991274580766
20
118.94842006770165
10
308.66991274580778
20
118.94842006770165
10
308.66991274580778
20
138.94842006770165
10
303.66991274580766
20
138.94842006770165
0
LWPOLYLINE
5
115
100
AcDbEntity
8
0
100
AcDbPolyline
90
6
70
1
43
0.0
10
216.12858658818328
20
152.75533601998026
10
216.12858658818328
20
142.75533601998038
10
224.78884062602754
20
137.75533601998046
10
233.44909466387185
20
142.75533601998038
10
233.44909466387185
20
152.75533601998035
10
224.78884062602754
20
157.75533601998018
0
LWPOLYLINE
5
116
100
AcDbEntity
8
0
100
AcDbPolyline
90
4
70
1
43
0.0
10
214.66991274580772
20
23.948420067701655
10
214.66991274580772
20
28.948420067701655
10
188.66991274580769
20
28.948420067701655
10
188.66991274580769
20
23.948420067701655
0
LWPOLYLINE
5
117
100
AcDbEntity
8
0
100
AcDbPolyline
90
6
70
1
43
0.0
10
264.78884062602754
20
123.11431986860265
10
256.12858658818328
20
118.11431986860269
10
256.12858658818328
20
108.11431986860283
10
264.78884062602754
20
103.11431986860288
10
273.4490946638719
20
108.11431986860285
10
273.4490946638719
20
118.11431986860273
0
LWPOLYLINE
5
118
100
AcDbEntity
8
0
100
AcDbPolyline
90
6
70
1
43
0.0
10
173.44909466387156
20
142.75533601998038
10
173.44909466387165
20
152.75533601998029
10
164.78884062602731
20
157.75533601998018
10
156.128586588183
20
152.75533601998026
10
156.12858658818305
20
142.75533601998038
10
164.78884062602742
20
137.75533601998046
0
LWPOLYLINE
5
119
100
AcDbEntity
8
0
100
AcDbPolyline
90
6
70
1
43
0.0
10
154.78884062602748
20
85.793811792914283
10
163.44909466387168
20
90.793811792914241
10
163.44909466387173
20
100.79381179291416
10
154.78884062602742
20
105.79381179291403
10
146.12858658818311
20
100.79381179291406
10
146.12858658818317
20
90.793811792914241
0
LWPOLYLINE
5
120
100
AcDbEntity
8
0
100
AcDbPolyline
90
6
70
1
43
0.0
10
144.78884062602754
20
123.11431986860265
10
136.12858658818331
20
118.11431986860269
10
136.12858658818328
20
108.11431986860283
10
144.78884062602751
20
103.11431986860288
10
153.44909466387185
20
108.11431986860285
10
153.44909466387182
20
118.11431986860273
0
LWPOLYLINE
5
121
100
AcDbEntity
8
0
100
AcDbPolyline
90
6
70
1
43
0.0
10
273.4490946638719
20
142.75533601998038
10
273.4490946638719
20
152.75533601998035
10
264.78884062602754
20
157.75533601998018
10
256.12858658818328
20
152.75533601998026
10
256.12858658818328
20
142.75533601998038
10
264.78884062602754
20
137.75533601998046
0
LWPOLYLINE
5
122
100
AcDbEntity
8
0
100
AcDbPolyline
90
6
70
1
43
0.0
10
204.78884062602731
20
123.11431986860262
10
196.128586588183
20
118.11431986860272
10
196.12858658818305
20
108.11431986860282
10
204.78884062602742
20
103.11431986860288
10
213.44909466387156
20
108.11431986860282
10
213.44909466387165
20
118.11431986860273
0
LWPOLYLINE
5
123
100
AcDbEntity
8
0
100
AcDbPolyline
90
6
70
1
43
0.0
10
234.78884062602754
20
85.793811792914283
10
243.44909466387168
20
90.793811792914241
10
243.44909466387173
20
100.79381179291414
10
234.78884062602742
20
105.79381179291403
10
226.12858658818314
20
100.79381179291406
10
226.12858658818323
20
90.793811792914241
0
LWPOLYLINE
5
124
100
AcDbEntity
8
0
100
AcDbPolyline
90
4
70
1
43
0.0
10
293.66991274580766
20
77.717620067701645
10
134.6659127458077
20
77.717620067701645
10
134.6659127458077
20
33.013620067701652
10
293.66991274580766
20
33.013620067701652
0
LWPOLYLINE
5
125
100
AcDbEntity
8
0
100
AcDbPolyline
90
6
70
1
43
0.0
10
186.12858658818323
20
125.43482794429178
10
194.78884062602754
20
120.43482794429184
10
203.44909466387173
20
125.43482794429178
10
203.44909466387173
20
135.4348279442917
10
194.78884062602742
20
140.43482794429158
10
186.12858658818314
20
135.43482794429161
0
LWPOLYLINE
5
126
100
AcDbEntity
8
0
100
AcDbPolyline
90
4
70
1
43
0.0
10
130.36061274580766
20
38.295420067701649
10
130.36061274580766
20
143.30142006770166
10
114.48561274580766
20
143.30142006770166
10
114.48561274580766
20
38.295420067701649
0
LWPOLYLINE
5
127
100
AcDbEntity
8
0
100
AcDbPolyline
90
6
70
1
43
0.0
10
276.12858658818294
20
152.75533601998026
10
276.12858658818305
20
142.75533601998038
10
284.78884062602748
20
137.75533601998046
10
293.44909466387156
20
142.75533601998038
10
293.44909466387162
20
152.75533601998029
10
284.78884062602731
20
157.75533601998018
0
LWPOLYLINE
5
128
100
AcDbEntity
8
0
100
AcDbPolyline
90
6
70
1
43
0.0
10
283.44909466387168
20
90.793811792914241
10
283.44909466387179
20
100.79381179291414
10
274.78884062602748
20
105.79381179291403
10
266.12858658818311
20
100.79381179291406
10
266.12858658818311
20
90.793811792914241
10
274.78884062602748
20
85.793811792914283
0
LWPOLYLINE
5
129
100
AcDbEntity
8
0
100
AcDbPolyline
90
6
70
1
43
0.0
10
193.44909466387185
20
152.75533601998035
10
184.78884062602754
20
157.75533601998018
10
176.12858658818328
20
152.75533601998026
10
176.12858658818328
20
142.75533601998038
10
184.78884062602754
20
137.75533601998046
10
193.44909466387185
20
142.75533601998038
0
LWPOLYLINE
5
130
100
AcDbEntity
8
0
100
AcDbPolyline
90
4
70
1
43
0.0
10
139.66991274580769
20
148.94828383587239
10
139.66991274580769
20
159.34842006770162
10
90.669912745807693
20
159.34842006770162
10
90.669912745807693
20
148.94828383587239
0
LWPOLYLINE
5
131
100
AcDbEntity
8
0
100
AcDbPolyline
90
6
70
1
43
0.0
10
194.78884062602742
20
105.79381179291403
10
186.12858658818314
20
100.79381179291406
10
186.12858658818323
20
90.793811792914241
10
194.78884062602754
20
85.793811792914283
10
203.44909466387173
20
90.793811792914241
10
203.44909466387173
20
100.79381179291414
0
LWPOLYLINE
5
132
100
AcDbEntity
8
0
100
AcDbPolyline
90
6
70
1
43
0.0
10
166.128586588183
20
100.79381179291417
10
166.128586588183
20
90.793811792914283
10
174.78884062602734
20
85.793811792914298
10
183.44909466387165
20
90.793811792914241
10
183.44909466387156
20
100.79381179291417
10
174.78884062602731
20
105.79381179291417
0
LWPOLYLINE
5
133
100
AcDbEntity
8
0
100
AcDbPolyline
90
6
70
1
43
0.0
10
166.128586588183
20
135.43482794429173
10
166.128586588183
20
125.43482794429181
10
174.78884062602734
20
120.43482794429184
10
183.44909466387165
20
125.43482794429178
10
183.44909466387156
20
135.43482794429173
10
174.78884062602731
20
140.43482794429173
0
LWPOLYLINE
5
134
100
AcDbEntity
8
0
100
AcDbPolyline
90
6
70
1
43
0.0
10
193.44909466387185
20
118.11431986860273
10
184.78884062602754
20
123.11431986860265
10
176.12858658818328
20
118.11431986860269
10
176.12858658818328
20
108.11431986860283
10
184.78884062602754
20
103.11431986860288
10
193.44909466387185
20
108.11431986860285
0
LWPOLYLINE
5
135
100
AcDbEntity
8
0
100
AcDbPolyline
90
6
70
1
43
0.0
10
253.44909466387168
20
152.75533601998029
10
244.78884062602731
20
157.75533601998018
10
236.128586588183
20
152.75533601998026
10
236.12858658818305
20
142.75533601998038
10
244.78884062602742
20
137.75533601998046
10
253.44909466387156
20
142.75533601998038
0
LWPOLYLINE
5
136
100
AcDbEntity
8
0
100
AcDbPolyline
90
32
70
1
43
0.0
10
323.66991274580778
20
12.94842006770163
10
76.36991274580771
20
12.94842006770164
42
-0.4142135623730942
10
73.369912745807682
20
15.948420067701656
10
73.369912745807682
20
38.948420067701655
10
78.369912745807682
20
38.948420067701655
10
78.369912745807682
20
68.948420067701647
10
73.369912745807682
20
68.948420067701647
10
73.369912745807682
20
132.34842006770162
10
78.369912745807682
20
132.34842006770162
10
78.369912745807682
20
162.34842006770165
10
73.369912745807682
20
162.34842006770165
10
73.369912745807667
20
180.34842006770162
42
-0.41421356237308815
10
76.369912745807682
20
183.34842006770162
10
102.66991274580758
20
183.34842006770162
42
-0.41421356237308637
10
105.66991274580757
20
180.34842006770168
10
105.66991274580769
20
170.34842006770162
10
145.66991274580769
20
170.34842006770162
10
145.66991274580769
20
175.34842006770162
10
126.66991274580766
20
175.34842006770162
10
126.66991274580772
20
180.34842006770168
42
-0.41421356237308637
10
129.66991274580775
20
183.34842006770168
10
242.66991274580766
20
183.34842006770162
42
-0.4142135623730846
10
245.66991274580766
20
180.34842006770162
10
245.66991274580766
20
170.34842006770162
10
285.66991274580766
20
170.34842006770162
10
285.66991274580766
20
175.34842006770162
10
266.66991274580766
20
175.34842006770162
10
266.66991274580772
20
180.34842006770162
42
-0.41421356237308116
10
269.66991274580772
20
183.34842006770162
10
323.66991274580766
20
183.34842006770162
42
-0.4142135623730846
10
326.66991274580766
20
180.34842006770162
10
326.66991274580766
20
15.948420067701647
42
-0.41421356237310608
0
ENDSEC
0
SECTION
2
OBJECTS
0
DICTIONARY
5
C
100
AcDbDictionary
3
ACAD_GROUP
350
D
3
ACAD_MLINESTYLE
350
17
0
DICTIONARY
5
D
100
AcDbDictionary
0
DICTIONARY
5
1A
330
C
100
AcDbDictionary
0
DICTIONARY
5
17
100
AcDbDictionary
0
ENDSEC
0
EOF
