0
SECTION
2
HEADER
9
$INSUNITS
70
4
9
$ACADVER
1
AC1014
9
$HANDSEED
5
FFFF
0
ENDSEC
0
SECTION
2
TABLES
0
TABLE
2
VPORT
5
8
100
AcDbSymbolTable
0
ENDTAB
0
TABLE
2
LTYPE
5
5
100
AcDbSymbolTable
0
LTYPE
5
14
100
AcDbSymbolTableRecord
100
AcDbLinetypeTableRecord
2
BYBLOCK
70
0
0
LTYPE
5
15
100
AcDbSymbolTableRecord
100
AcDbLinetypeTableRecord
2
BYLAYER
70
0
0
ENDTAB
0
TABLE
2
LAYER
5
2
100
AcDbSymbolTable
70
2
0
LAYER
5
50
100
AcDbSymbolTableRecord
100
AcDbLayerTableRecord
2
0
70
0
6
CONTINUOUS
0
ENDTAB
0
TABLE
2
STYLE
5
3
100
AcDbSymbolTable
70
1
0
STYLE
5
11
100
AcDbSymbolTableRecord
100
AcDbTextStyleTableRecord
2
STANDARD
70
0
0
ENDTAB
0
TABLE
2
VIEW
5
6
100
AcDbSymbolTable
70
0
0
ENDTAB
0
TABLE
2
UCS
5
7
100
AcDbSymbolTable
70
0
0
ENDTAB
0
TABLE
2
APPID
5
9
100
AcDbSymbolTable
70
2
0
APPID
5
12
100
AcDbSymbolTableRecord
100
AcDbRegAppTableRecord
2
ACAD
70
0
0
ENDTAB
0
TABLE
2
DIMSTYLE
5
A
100
AcDbSymbolTable
70
1
0
ENDTAB
0
TABLE
2
BLOCK_RECORD
5
1
100
AcDbSymbolTable
70
1
0
BLOCK_RECORD
5
1F
100
AcDbSymbolTableRecord
100
AcDbBlockTableRecord
2
*MODEL_SPACE
0
BLOCK_RECORD
5
1B
100
AcDbSymbolTableRecord
100
AcDbBlockTableRecord
2
*PAPER_SPACE
0
ENDTAB
0
ENDSEC
0
SECTION
2
BLOCKS
0
BLOCK
5
20
100
AcDbEntity
100
AcDbBlockBegin
2
*MODEL_SPACE
0
ENDBLK
5
21
100
AcDbEntity
100
AcDbBlockEnd
0
BLOCK
5
1C
100
AcDbEntity
100
AcDbBlockBegin
2
*PAPER_SPACE
0
ENDBLK
5
1D
100
AcDbEntity
100
AcDbBlockEnd
0
ENDSEC
0
SECTION
2
ENTITIES
0
LWPOLYLINE
5
100
100
AcDbEntity
8
0
100
AcDbPolyline
90
4
70
1
43
0.0
10
-147.99999999999997
20
141.39999999999998
10
-147.99999999999997
20
146.39999999999998
10
-207.99999999999997
20
146.39999999999998
10
-207.99999999999997
20
141.39999999999998
0
LWPOLYLINE
5
101
100
AcDbEntity
8
0
100
AcDbPolyline
90
46
70
1
43
0.0
10
-340
20
89.999999999999986
42
-0.41421356237310025
10
-343
20
93
10
-343
20
107
42
-0.41421356237310025
10
-340
20
109.99999999999999
10
-328
20
110
10
-328
20
153.39999999999998
10
-28.000000000000007
20
153.39999999999998
10
-28.000000000000007
20
110
10
-16.000000000000021
20
110
42
-0.4142135623730937
10
-13.000000000000023
20
107
10
-13
20
93
42
-0.4142135623730922
10
-16.000000000000032
20
89.999999999999986
10
-28.000000000000007
20
90
10
-28.000000000000007
20
75
10
-16
20
74.999999999999986
42
-0.41421356237309592
10
-13
20
72
10
-12.999999999999986
20
58.000000000000007
42
-0.41421356237309548
10
-15.999999999999996
20
54.999999999999986
10
-28.000000000000007
20
55
10
-28.000000000000007
20
10
10
-16.000000000000007
20
10
42
-0.41421356237309503
10
-13.000000000000007
20
7
10
-13.000000000000004
20
-6.99999976158142
42
-0.41421356237309398
10
-15.999999999999996
20
-9.9999997615814209
10
-28.000000000000007
20
-9.9999997615814173
10
-28.000000000000007
20
-15.999999761581432
10
-145
20
-16.000000000000025
42
-0.41421356237309437
10
-148.00000000000003
20
-13.000000000000007
10
-148
20
0
10
-207.99999999999997
20
0
10
-207.99999999999997
20
-13.000000000000004
42
-0.41421356237309465
10
-210.99999999999997
20
-15.999999999999996
10
-328
20
-15.999999999999996
10
-328
20
-10
10
-340
20
-10.000000000000018
42
-0.4142135623730997
10
-343
20
-7
10
-343
20
7
42
-0.4142135623730997
10
-340
20
9.9999999999999964
10
-328
20
10
10
-328
20
55
10
-340
20
54.999999999999986
42
-0.41421356237310025
10
-343
20
58.000000000000007
10
-343
20
72
42
-0.41421356237309936
10
-340
20
74.999999999999986
10
-328
20
75
10
-328
20
90
0
LWPOLYLINE
5
102
100
AcDbEntity
8
0
100
AcDbPolyline
90
4
70
1
43
0.0
10
-18.000000000000028
20
104
10
-23.000000000000014
20
104
10
-23.000000000000014
20
96
10
-18.000000000000028
20
96
0
LWPOLYLINE
5
103
100
AcDbEntity
8
0
100
AcDbPolyline
90
4
70
1
43
0.0
10
-18.000000000000018
20
0
10
-23.000000000000014
20
0
10
-23.000000000000014
20
-5
10
-18.000000000000018
20
-5
0
LWPOLYLINE
5
104
100
AcDbEntity
8
0
100
AcDbPolyline
90
4
70
1
43
0.0
10
-18.000000000000028
20
69.000001415610313
10
-23.000000000000014
20
69.000001415610313
10
-23.000000000000014
20
61.000001415610313
10
-18.000000000000028
20
61.000001415610313
0
LWPOLYLINE
5
105
100
AcDbEntity
8
0
100
AcDbPolyline
90
4
70
1
43
0.0
10
-338
20
96
10
-333
20
96
10
-333
20
104
10
-338
20
104
0
LWPOLYLINE
5
106
100
AcDbEntity
8
0
100
AcDbPolyline
90
4
70
1
43
0.0
10
-338
20
61
10
-333
20
61
10
-333
20
69
10
-338
20
69
0
LWPOLYLINE
5
107
100
AcDbEntity
8
0
100
AcDbPolyline
90
4
70
1
43
0.0
10
-338.00000000000006
20
-5
10
-333.00000000000006
20
-5
10
-333.00000000000006
20
0
10
-338.00000000000006
20
0
0
LWPOLYLINE
5
108
100
AcDbEntity
8
0
100
AcDbPolyline
90
4
70
1
43
0.0
10
-68
20
0
10
-118
20
0
10
-118
20
-5
10
-68
20
-5
0
LWPOLYLINE
5
109
100
AcDbEntity
8
0
100
AcDbPolyline
90
4
70
1
43
0.0
10
-288
20
-5
10
-237.99999999999997
20
-5
10
-237.99999999999997
20
0
10
-288
20
0
0
CIRCLE
5
110
100
AcDbEntity
8
0
100
AcDbCircle
10
-286.24999999999994
20
7.0000000000000009
30
0
40
1.7500000000000071
210
0
220
-0
230
1
0
LWPOLYLINE
5
111
100
AcDbEntity
8
0
100
AcDbPolyline
90
16
70
1
43
0.0
10
-311.99999999999994
20
4.0000000000000036
10
-295.25
20
4.0000000000000036
42
0.41421356237308915
10
-292.25
20
7.0000000000000009
42
-0.99999999999999989
10
-280.24999999999994
20
7.0000000000000009
42
0.41421356237308932
10
-277.24999999999994
20
4.0000000000000036
10
-260.5
20
4
42
0.41421356237309026
10
-257.49999999999994
20
7.0000000000000107
10
-257.49999999999994
20
110.99999999999997
42
0.41421356237308815
10
-260.5
20
113.99999999999999
42
-0.41421356237309503
10
-266.5
20
120
42
0.41421356237309337
10
-269.5
20
123
10
-302.99999999999989
20
123
42
0.41421356237308815
10
-305.99999999999994
20
120
42
-0.41421356237309503
10
-311.99999999999994
20
113.99999999999999
42
0.41421356237308815
10
-314.99999999999994
20
110.99999999999997
10
-314.99999999999994
20
6.9999999999999929
42
0.41421356237308943
0
CIRCLE
5
112
100
AcDbEntity
8
0
100
AcDbCircle
10
-260.5
20
120
30
0
40
1.7500000000000071
210
0
220
-0
230
1
0
CIRCLE
5
113
100
AcDbEntity
8
0
100
AcDbCircle
10
-311.99999999999994
20
120
30
0
40
1.7500000000000071
210
0
220
-0
230
1
0
LWPOLYLINE
5
114
100
AcDbEntity
8
0
100
AcDbPolyline
90
4
70
1
43
0.0
10
-67.483495705504509
20
92.516504294495547
10
-78.090097423302723
20
81.90990257669732
42
-0.039290107007666525
10
-75.797117626563718
20
79.225168176580638
10
-63.661862710939502
20
88.041946960967749
42
0.039290107007667614
0
LWPOLYLINE
5
115
100
AcDbEntity
8
0
100
AcDbPolyline
90
4
70
1
43
0.0
10
-99.866292439008674
20
28.96168722768234
10
-97.519775463405153
20
43.777012336609545
42
-0.039290107007672416
10
-100.95288237343635
20
44.601228383359043
10
-105.58813728906054
20
30.335380638931738
42
0.039290107007671167
0
LWPOLYLINE
5
116
100
AcDbEntity
8
0
100
AcDbPolyline
90
4
70
1
43
0.0
10
-107.61971499218645
20
39.269804274348971
10
-100.80985749609317
20
52.634902137174571
42
-0.039290107007673977
10
-102.81677878438711
20
53.864745084375798
10
-111.63355756877421
20
41.729490168751546
42
0.039290107007671701
0
LWPOLYLINE
5
117
100
AcDbEntity
8
0
100
AcDbPolyline
90
4
70
1
43
0.0
10
-67.269804274348971
20
79.619714992186402
10
-80.634902137174578
20
72.809857496093159
42
-0.039290107007665082
10
-79.734152255572724
20
70.635254915624216
10
-65.468304511145419
20
75.270509831248418
42
0.03929010700766726
0
LWPOLYLINE
5
118
100
AcDbEntity
8
0
100
AcDbPolyline
90
4
70
1
43
0.0
10
-115.21320343559645
20
87.213203435596427
10
-104.60660171779843
20
76.606601717798412
42
-0.039290107007669418
10
-102.81677878438713
20
78.135254915624216
10
-111.63355756877422
20
90.270509831248404
42
0.039290107007669751
0
LWPOLYLINE
5
119
100
AcDbEntity
8
0
100
AcDbPolyline
90
4
70
1
43
0.0
10
-153.26130043570828
20
56.613932097586158
10
-138.44597532678139
20
58.960449073189579
42
-0.039290107007670862
10
-139.00000000000003
20
66
10
-154.00000000000003
20
65.999999999999957
42
0.039290107007670813
0
LWPOLYLINE
5
120
100
AcDbEntity
8
0
100
AcDbPolyline
90
4
70
1
43
0.0
10
-121.23942998437283
20
119.46039145130207
10
-114.42957248827975
20
106.09529358847678
42
-0.039290107007669196
10
-107.90576474687265
20
108.79754323328189
10
-112.54101966249685
20
123.06339097770919
42
0.039290107007669751
0
LWPOLYLINE
5
121
100
AcDbEntity
8
0
100
AcDbPolyline
90
4
70
1
43
0.0
10
-51.573593128807204
20
108.42640687119285
10
-62.18019484660541
20
97.819805153394682
42
-0.039290107007668301
10
-57.594235253127394
20
92.450336353161305
10
-45.458980337503156
20
101.26711513754836
42
0.039290107007668683
0
LWPOLYLINE
5
122
100
AcDbEntity
8
0
100
AcDbPolyline
90
4
70
1
43
0.0
10
-40.539608548697963
20
38.760570015627195
10
-53.904706411523726
20
45.570427511720467
42
-0.039290107007668863
10
-57.594235253127394
20
39.549663646838695
10
-45.458980337503149
20
30.732884862451606
42
0.039290107007669217
0
LWPOLYLINE
5
123
100
AcDbEntity
8
0
100
AcDbPolyline
90
4
70
1
43
0.0
10
-121.23942998437285
20
12.539608548697938
10
-111.024643740233
20
32.587255342936288
42
-0.039290107007671306
10
-116.04194696096776
20
35.661862710939474
10
-129.26711513754839
20
17.458980337503107
42
0.039290107007670994
0
LWPOLYLINE
5
124
100
AcDbEntity
8
0
100
AcDbPolyline
90
4
70
1
43
0.0
10
-66.760570015627223
20
12.53960854869792
10
-73.570427511720439
20
25.904706411523723
42
-0.03929010700767064
10
-80.094235253127394
20
23.202456766718083
10
-75.458980337503135
20
8.9366090222908134
42
0.039290107007669925
0
LWPOLYLINE
5
125
100
AcDbEntity
8
0
100
AcDbPolyline
90
4
70
1
43
0.0
10
-136.42640687119291
20
23.57359312880714
10
-125.81980515339464
20
34.18019484660531
42
-0.039290107007671528
10
-130.40576474687268
20
39.549663646838709
10
-142.54101966249686
20
30.732884862451609
42
0.039290107007670994
0
LWPOLYLINE
5
126
100
AcDbEntity
8
0
100
AcDbPolyline
90
4
70
1
43
0.0
10
-34.738699564291764
20
56.613932097586144
10
-56.961687227682567
20
60.133707560991382
42
-0.039290107007668641
10
-58.33538063893176
20
54.411862710939459
10
-36.936609022290803
20
47.458980337503156
42
0.039290107007669037
0
LWPOLYLINE
5
127
100
AcDbEntity
8
0
100
AcDbPolyline
90
4
70
1
43
0.0
10
-66.760570015627223
20
119.46039145130207
10
-76.975356259766983
20
99.412744657063868
42
-0.039290107007667968
10
-71.958053039032265
20
96.338137289060512
10
-58.732884862451641
20
114.54101966249686
42
0.039290107007668683
0
LWPOLYLINE
5
128
100
AcDbEntity
8
0
100
AcDbPolyline
90
4
70
1
43
0.0
10
-136.42640687119291
20
108.42640687119285
10
-120.51650429449573
20
92.516504294495746
42
-0.039290107007669529
10
-116.04194696096776
20
96.338137289060512
10
-129.26711513754839
20
114.54101966249684
42
0.039290107007669751
0
LWPOLYLINE
5
129
100
AcDbEntity
8
0
100
AcDbPolyline
90
4
70
1
43
0.0
10
-127.41274465706381
20
83.024643740233017
10
-114.04764679423855
20
76.214786244139916
42
-0.03929010700767064
10
-112.20288237343635
20
79.225168176580638
10
-124.33813728906057
20
88.041946960967721
42
0.039290107007669925
0
LWPOLYLINE
5
130
100
AcDbEntity
8
0
100
AcDbPolyline
90
4
70
1
43
0.0
10
-88.133707560991354
20
103.03831277231765
10
-90.48022453659479
20
88.222987663390754
42
-0.03929010700766708
10
-87.047117626563704
20
87.398771616640957
10
-82.411862710939459
20
101.66461936106825
42
0.039290107007668322
0
LWPOLYLINE
5
131
100
AcDbEntity
8
0
100
AcDbPolyline
90
4
70
1
43
0.0
10
-64.369349782145889
20
61.306966048793072
10
-79.184674891073158
20
63.653483024396593
42
-0.039290107007667413
10
-79.734152255572724
20
61.364745084375784
10
-65.468304511145419
20
56.729490168751575
42
0.039290107007668502
0
LWPOLYLINE
5
132
100
AcDbEntity
8
0
100
AcDbPolyline
90
4
70
1
43
0.0
10
-120.73019572565104
20
52.380285007813598
10
-107.36509786282562
20
59.190142503906756
42
-0.039290107007673866
10
-108.26584774442733
20
61.364745084375784
10
-122.53169548885464
20
56.729490168751575
42
0.039290107007671701
0
LWPOLYLINE
5
133
100
AcDbEntity
8
0
100
AcDbPolyline
90
4
70
1
43
0.0
10
-76.975356259767025
20
32.58725534293621
10
-83.78521375586034
20
45.952353205761952
42
-0.039290107007670307
10
-87.047117626563704
20
44.601228383359043
10
-82.411862710939502
20
30.335380638931735
42
0.039290107007670459
0
LWPOLYLINE
5
134
100
AcDbEntity
8
0
100
AcDbPolyline
90
4
70
1
43
0.0
10
-56.961687227682361
20
71.866292439008646
10
-71.777012336609573
20
69.519775463405182
42
-0.039290107007667413
10
-71.500000000000028
20
65.999999999999986
10
-56.500000000000021
20
66
42
0.039290107007668322
0
LWPOLYLINE
5
135
100
AcDbEntity
8
0
100
AcDbPolyline
90
4
70
1
43
0.0
10
-120.51650429449555
20
39.483495705504467
10
-109.90990257669736
20
50.090097423302652
42
-0.039290107007672749
10
-112.20288237343635
20
52.774831823419333
10
-124.33813728906057
20
43.958053039032272
42
0.039290107007671521
0
LWPOLYLINE
5
136
100
AcDbEntity
8
0
100
AcDbPolyline
90
4
70
1
43
0.0
10
-89.3069660487931
20
36.369349782145868
10
-91.653483024396564
20
51.184674891073158
42
-0.039290107007672638
10
-94.000000000000028
20
51
10
-94.000000000000028
20
36
42
0.039290107007671167
0
LWPOLYLINE
5
137
100
AcDbEntity
8
0
100
AcDbPolyline
90
4
70
1
43
0.0
10
-80.380285007813626
20
92.730195725651029
10
-87.19014250390677
20
79.365097862825593
42
-0.039290107007665304
10
-85.183221215612903
20
78.135254915624216
10
-76.366442431225806
20
90.270509831248404
42
0.039290107007667614
0
LWPOLYLINE
5
138
100
AcDbEntity
8
0
100
AcDbPolyline
90
4
70
1
43
0.0
10
-111.02464374023302
20
99.412744657063783
10
-104.21478624413993
20
86.047646794238517
42
-0.039290107007668641
10
-100.95288237343632
20
87.398771616640957
10
-105.58813728906057
20
101.66461936106828
42
0.039290107007669217
0
LWPOLYLINE
5
139
100
AcDbEntity
8
0
100
AcDbPolyline
90
4
70
1
43
0.0
10
-153.26130043570828
20
75.386067902413856
10
-131.03831277231794
20
71.866292439008689
42
-0.039290107007670973
10
-129.66461936106828
20
77.588137289060555
10
-151.06339097770922
20
84.541019662496893
42
0.039290107007670459
0
LWPOLYLINE
5
140
100
AcDbEntity
8
0
100
AcDbPolyline
90
4
70
1
43
0.0
10
-103.38606790241387
20
125.26130043570828
10
-99.866292439008717
20
103.03831277231788
42
-0.039290107007668641
10
-94
20
103.5
10
-94.000000000000028
20
126
42
0.039290107007669037
0
LWPOLYLINE
5
141
100
AcDbEntity
8
0
100
AcDbPolyline
90
4
70
1
43
0.0
10
-40.539608548697927
20
93.239429984372819
10
-60.587255342936302
20
83.024643740232989
42
-0.039290107007667968
10
-58.33538063893176
20
77.588137289060526
10
-36.936609022290824
20
84.541019662496865
42
0.039290107007668322
0
LWPOLYLINE
5
142
100
AcDbEntity
8
0
100
AcDbPolyline
90
4
70
1
43
0.0
10
-51.573593128807317
20
23.573593128807385
42
-0.039290107007670085
10
-58.73288486245167
20
17.458980337503121
10
-71.958053039032279
20
35.661862710939459
42
0.039290107007669751
10
-67.483495705504481
20
39.483495705504453
0
LWPOLYLINE
5
143
100
AcDbEntity
8
0
100
AcDbPolyline
90
4
70
1
43
0.0
10
-103.38606790241387
20
6.7386995642917391
10
-101.03955092681039
20
21.554024673218951
42
-0.039290107007670862
10
-107.90576474687268
20
23.202456766718083
10
-112.54101966249685
20
8.9366090222907779
42
0.039290107007670459
0
LWPOLYLINE
5
144
100
AcDbEntity
8
0
100
AcDbPolyline
90
4
70
1
43
0.0
10
-84.613932097586172
20
6.7386995642917391
10
-88.133707560991411
20
28.961687227682553
42
-0.03929010700767064
10
-94.000000000000028
20
28.499999999999996
10
-94
20
5.9999999999999964
42
0.039290107007670459
0
LWPOLYLINE
5
145
100
AcDbEntity
8
0
100
AcDbPolyline
90
4
70
1
43
0.0
10
-147.46039145130209
20
38.760570015627195
10
-127.4127446570639
20
48.975356259766947
42
-0.039290107007671306
10
-129.66461936106828
20
54.411862710939459
10
-151.06339097770925
20
47.458980337503135
42
0.039290107007670633
0
LWPOLYLINE
5
146
100
AcDbEntity
8
0
100
AcDbPolyline
90
4
70
1
43
0.0
10
-34.738699564291764
20
75.386067902413856
10
-49.554024673218976
20
73.03955092681035
42
-0.039290107007668301
10
-49.000000000000021
20
66
10
-34.000000000000021
20
66
42
0.039290107007668863
0
LWPOLYLINE
5
147
100
AcDbEntity
8
0
100
AcDbPolyline
90
4
70
1
43
0.0
10
-84.613932097586144
20
125.26130043570828
10
-86.960449073189579
20
110.44597532678137
42
-0.039290107007668301
10
-80.09423525312738
20
108.79754323328189
10
-75.458980337503164
20
123.06339097770922
42
0.039290107007668142
0
LWPOLYLINE
5
148
100
AcDbEntity
8
0
100
AcDbPolyline
90
4
70
1
43
0.0
10
-147.46039145130209
20
93.239429984372819
10
-134.09529358847686
20
86.429572488279675
42
-0.039290107007670418
10
-130.40576474687268
20
92.450336353161305
10
-142.54101966249689
20
101.26711513754836
42
0.039290107007669925
0
LWPOLYLINE
5
149
100
AcDbEntity
8
0
100
AcDbPolyline
90
4
70
1
43
0.0
10
-123.63065021785415
20
70.693033951206928
10
-108.81532510892733
20
68.346516975603492
42
-0.039290107007672749
10
-108.26584774442733
20
70.63525491562423
10
-122.53169548885464
20
75.270509831248447
42
0.039290107007671167
0
LWPOLYLINE
5
150
100
AcDbEntity
8
0
100
AcDbPolyline
90
4
70
1
43
0.0
10
-98.693033951206942
20
95.630650217854125
10
-96.346516975603549
20
80.815325108927283
42
-0.03929010700766708
10
-94.000000000000028
20
81
10
-94
20
96.000000000000014
42
0.039290107007668142
0
LWPOLYLINE
5
151
100
AcDbEntity
8
0
100
AcDbPolyline
90
4
70
1
43
0.0
10
-72.786796564403772
20
44.78679656440378
42
-0.039290107007670085
10
-76.366442431225849
20
41.729490168751553
10
-85.183221215612917
20
53.864745084375784
42
0.039290107007669571
10
-83.393398282201815
20
55.393398282201787
0
LWPOLYLINE
5
152
100
AcDbEntity
8
0
100
AcDbPolyline
90
4
70
1
43
0.0
10
-131.03831277231768
20
60.133707560991347
10
-116.22298766339078
20
62.480224536594747
42
-0.039290107007672416
10
-116.50000000000003
20
66
10
-131.50000000000003
20
65.999999999999972
42
0.039290107007670813
0
LWPOLYLINE
5
153
100
AcDbEntity
8
0
100
AcDbPolyline
90
4
70
1
43
0.0
10
-60.587255342936231
20
48.975356259766997
10
-73.952353205761966
20
55.785213755860319
42
-0.039290107007668863
10
-75.797117626563704
20
52.774831823419333
10
-63.661862710939481
20
43.958053039032251
42
0.039290107007669037
0
CIRCLE
5
154
100
AcDbEntity
8
0
100
AcDbCircle
10
-146.50000000000068
20
13.500000000000298
30
0
40
2.5
210
0
220
0
230
1
0
CIRCLE
5
155
100
AcDbEntity
8
0
100
AcDbCircle
10
-146.50000000000068
20
118.5000000000003
30
0
40
2.5
210
0
220
0
230
1
0
CIRCLE
5
156
100
AcDbEntity
8
0
100
AcDbCircle
10
-41.500000000000696
20
13.500000000000298
30
0
40
2.5
210
0
220
0
230
1
0
CIRCLE
5
157
100
AcDbEntity
8
0
100
AcDbCircle
10
-41.500000000000696
20
118.5000000000003
30
0
40
2.5
210
0
220
0
230
1
0
ENDSEC
0
SECTION
2
OBJECTS
0
DICTIONARY
5
C
100
AcDbDictionary
3
ACAD_GROUP
350
D
3
ACAD_MLINESTYLE
350
17
0
DICTIONARY
5
D
100
AcDbDictionary
0
DICTIONARY
5
1A
330
C
100
AcDbDictionary
0
DICTIONARY
5
17
100
AcDbDictionary
0
ENDSEC
0
EOF
