0
SECTION
2
HEADER
9
$INSUNITS
70
4
9
$ACADVER
1
AC1014
9
$HANDSEED
5
FFFF
0
ENDSEC
0
SECTION
2
TABLES
0
TABLE
2
VPORT
5
8
100
AcDbSymbolTable
0
ENDTAB
0
TABLE
2
LTYPE
5
5
100
AcDbSymbolTable
0
LTYPE
5
14
100
AcDbSymbolTableRecord
100
AcDbLinetypeTableRecord
2
BYBLOCK
70
0
0
LTYPE
5
15
100
AcDbSymbolTableRecord
100
AcDbLinetypeTableRecord
2
BYLAYER
70
0
0
ENDTAB
0
TABLE
2
LAYER
5
2
100
AcDbSymbolTable
70
2
0
LAYER
5
50
100
AcDbSymbolTableRecord
100
AcDbLayerTableRecord
2
0
70
0
6
CONTINUOUS
0
ENDTAB
0
TABLE
2
STYLE
5
3
100
AcDbSymbolTable
70
1
0
STYLE
5
11
100
AcDbSymbolTableRecord
100
AcDbTextStyleTableRecord
2
STANDARD
70
0
0
ENDTAB
0
TABLE
2
VIEW
5
6
100
AcDbSymbolTable
70
0
0
ENDTAB
0
TABLE
2
UCS
5
7
100
AcDbSymbolTable
70
0
0
ENDTAB
0
TABLE
2
APPID
5
9
100
AcDbSymbolTable
70
2
0
APPID
5
12
100
AcDbSymbolTableRecord
100
AcDbRegAppTableRecord
2
ACAD
70
0
0
ENDTAB
0
TABLE
2
DIMSTYLE
5
A
100
AcDbSymbolTable
70
1
0
ENDTAB
0
TABLE
2
BLOCK_RECORD
5
1
100
AcDbSymbolTable
70
1
0
BLOCK_RECORD
5
1F
100
AcDbSymbolTableRecord
100
AcDbBlockTableRecord
2
*MODEL_SPACE
0
BLOCK_RECORD
5
1B
100
AcDbSymbolTableRecord
100
AcDbBlockTableRecord
2
*PAPER_SPACE
0
ENDTAB
0
ENDSEC
0
SECTION
2
BLOCKS
0
BLOCK
5
20
100
AcDbEntity
100
AcDbBlockBegin
2
*MODEL_SPACE
0
ENDBLK
5
21
100
AcDbEntity
100
AcDbBlockEnd
0
BLOCK
5
1C
100
AcDbEntity
100
AcDbBlockBegin
2
*PAPER_SPACE
0
ENDBLK
5
1D
100
AcDbEntity
100
AcDbBlockEnd
0
ENDSEC
0
SECTION
2
ENTITIES
0
CIRCLE
5
100
100
AcDbEntity
8
0
100
AcDbCircle
10
161.03999999999999
20
70.699999999999989
30
0
40
9.4999999999999929
210
0
220
0
230
1
0
LWPOLYLINE
5
101
100
AcDbEntity
8
0
100
AcDbPolyline
90
4
70
1
43
0.0
10
299.33999999999997
20
106.69999999999999
10
299.33999999999997
20
70.699999999999989
10
302.33999999999997
20
70.699999999999989
10
302.33999999999997
20
106.69999999999999
0
LWPOLYLINE
5
102
100
AcDbEntity
8
0
100
AcDbPolyline
90
4
70
1
43
0.0
10
197.03999999999996
20
123.39999999999996
10
197.03999999999996
20
126.39999999999998
10
125.04000000000002
20
126.39999999999998
10
125.04000000000002
20
123.39999999999996
0
LWPOLYLINE
5
103
100
AcDbEntity
8
0
100
AcDbPolyline
90
4
70
1
43
0.0
10
293.03999999999991
20
123.39999999999996
10
293.03999999999991
20
126.39999999999998
10
209.03999999999996
20
126.39999999999998
10
209.03999999999996
20
123.39999999999996
0
LWPOLYLINE
5
104
100
AcDbEntity
8
0
100
AcDbPolyline
90
4
70
1
43
0.0
10
107.04000000000001
20
34.699999999999982
10
110.04000000000002
20
34.699999999999982
10
110.04000000000002
20
70.699999999999989
10
107.04000000000001
20
70.699999999999989
0
LWPOLYLINE
5
105
100
AcDbEntity
8
0
100
AcDbPolyline
90
4
70
1
43
0.0
10
113.04000000000002
20
18.000000000000007
10
113.04000000000002
20
15
10
185.03999999999996
20
15
10
185.03999999999996
20
18.000000000000007
0
LWPOLYLINE
5
106
100
AcDbEntity
8
0
100
AcDbPolyline
90
4
70
1
43
0.0
10
281.03999999999991
20
15
10
281.03999999999991
20
18.000000000000007
10
197.03999999999996
20
18.000000000000007
10
197.03999999999996
20
15
0
LWPOLYLINE
5
107
100
AcDbEntity
8
0
100
AcDbPolyline
90
4
70
1
43
0.0
10
299.33999999999997
20
58.699999999999982
10
299.33999999999997
20
22.699999999999978
10
302.33999999999997
20
22.699999999999978
10
302.33999999999997
20
58.699999999999982
0
LWPOLYLINE
5
108
100
AcDbEntity
8
0
100
AcDbPolyline
90
4
70
1
43
0.0
10
110.04000000000002
20
82.699999999999989
10
110.04000000000002
20
118.69999999999997
10
107.04000000000001
20
118.69999999999997
10
107.04000000000001
20
82.699999999999989
0
LWPOLYLINE
5
109
100
AcDbEntity
8
0
100
AcDbPolyline
90
38
70
1
43
0.0
10
116.33999999999999
20
151.39999999999998
42
-0.41421356237308815
10
119.33999999999999
20
148.39999999999998
10
119.33999999999999
20
141.39999999999998
10
159.34
20
141.39999999999998
10
159.34
20
146.39999999999998
10
140.33999999999997
20
146.39999999999998
10
140.33999999999997
20
148.39999999999998
42
-0.41421356237308815
10
143.34
20
151.39999999999998
10
256.33999999999992
20
151.39999999999995
42
-0.41421356237309681
10
259.33999999999997
20
148.39999999999998
10
259.33999999999997
20
141.39999999999998
10
299.33999999999997
20
141.39999999999998
10
299.33999999999997
20
146.39999999999998
10
280.33999999999997
20
146.39999999999998
10
280.33999999999997
20
148.39999999999998
42
-0.41421356237309337
10
283.33999999999997
20
151.39999999999998
10
337.34000000000003
20
151.39999999999998
42
-0.41421356237311413
10
340.33999999999997
20
148.39999999999998
10
340.34000000000003
20
-13.000000000000007
42
-0.41421356237312068
10
337.34000000000003
20
-16
10
315.33999999999997
20
-16.000000000000011
42
-0.41421356237309531
10
312.33999999999997
20
-13
42
0.41421356237308898
10
309.33999999999997
20
-10
10
110.04000000000002
20
-10.000000000000002
42
0.4142135623730937
10
107.03999999999999
20
-13.000000000000004
42
-0.41421356237309503
10
104.03999999999999
20
-15.999999999999996
10
90.04000000000002
20
-15.999999999999993
42
-0.4142135623730937
10
87.040000000000006
20
-12.999999999999998
10
87.040000000000006
20
10
10
92.040000000000006
20
10
10
92.040000000000006
20
40
10
87.040000000000006
20
40
10
87.040000000000006
20
103.39999999999996
10
92.040000000000006
20
103.39999999999996
10
92.040000000000006
20
133.39999999999998
10
87.040000000000006
20
133.39999999999998
10
87.040000000000006
20
148.39999999999998
42
-0.41421356237309337
10
90.04000000000002
20
151.39999999999998
0
LWPOLYLINE
5
110
100
AcDbEntity
8
0
100
AcDbPolyline
90
4
70
1
43
0.0
10
148.33999999999997
20
0
10
92.339999999999975
20
0
10
92.339999999999975
20
-5
10
148.33999999999997
20
-5
0
LWPOLYLINE
5
111
100
AcDbEntity
8
0
100
AcDbPolyline
90
4
70
1
43
0.0
10
202.33999999999997
20
-5
10
228.34
20
-5
10
228.34
20
0
10
202.33999999999997
20
0
0
LWPOLYLINE
5
112
100
AcDbEntity
8
0
100
AcDbPolyline
90
8
70
1
43
0.0
10
322.34000000000003
20
10
10
317.33999999999997
20
10
10
317.33999999999997
20
0
10
291.34000000000003
20
0
10
291.34000000000003
20
-5
10
317.33999999999997
20
-5.000000074505806
10
317.33999999999997
20
-10
10
322.34000000000003
20
-10
0
LWPOLYLINE
5
113
100
AcDbEntity
8
0
100
AcDbPolyline
90
4
70
1
43
0.0
10
317.33999999999997
20
90
10
322.34000000000003
20
90
10
322.34000000000003
20
110
10
317.33999999999997
20
110
0
LWPOLYLINE
5
114
100
AcDbEntity
8
0
100
AcDbPolyline
90
4
70
1
43
0.0
10
317.33999999999997
20
55
10
322.34000000000003
20
55
10
322.34000000000003
20
75
10
317.33999999999997
20
75
0
ENDSEC
0
SECTION
2
OBJECTS
0
DICTIONARY
5
C
100
AcDbDictionary
3
ACAD_GROUP
350
D
3
ACAD_MLINESTYLE
350
17
0
DICTIONARY
5
D
100
AcDbDictionary
0
DICTIONARY
5
1A
330
C
100
AcDbDictionary
0
DICTIONARY
5
17
100
AcDbDictionary
0
ENDSEC
0
EOF
