0
SECTION
2
HEADER
9
$INSUNITS
70
4
9
$ACADVER
1
AC1014
9
$HANDSEED
5
FFFF
0
ENDSEC
0
SECTION
2
TABLES
0
TABLE
2
VPORT
5
8
100
AcDbSymbolTable
0
ENDTAB
0
TABLE
2
LTYPE
5
5
100
AcDbSymbolTable
0
LTYPE
5
14
100
AcDbSymbolTableRecord
100
AcDbLinetypeTableRecord
2
BYBLOCK
70
0
0
LTYPE
5
15
100
AcDbSymbolTableRecord
100
AcDbLinetypeTableRecord
2
BYLAYER
70
0
0
ENDTAB
0
TABLE
2
LAYER
5
2
100
AcDbSymbolTable
70
2
0
LAYER
5
50
100
AcDbSymbolTableRecord
100
AcDbLayerTableRecord
2
0
70
0
6
CONTINUOUS
0
ENDTAB
0
TABLE
2
STYLE
5
3
100
AcDbSymbolTable
70
1
0
STYLE
5
11
100
AcDbSymbolTableRecord
100
AcDbTextStyleTableRecord
2
STANDARD
70
0
0
ENDTAB
0
TABLE
2
VIEW
5
6
100
AcDbSymbolTable
70
0
0
ENDTAB
0
TABLE
2
UCS
5
7
100
AcDbSymbolTable
70
0
0
ENDTAB
0
TABLE
2
APPID
5
9
100
AcDbSymbolTable
70
2
0
APPID
5
12
100
AcDbSymbolTableRecord
100
AcDbRegAppTableRecord
2
ACAD
70
0
0
ENDTAB
0
TABLE
2
DIMSTYLE
5
A
100
AcDbSymbolTable
70
1
0
ENDTAB
0
TABLE
2
BLOCK_RECORD
5
1
100
AcDbSymbolTable
70
1
0
BLOCK_RECORD
5
1F
100
AcDbSymbolTableRecord
100
AcDbBlockTableRecord
2
*MODEL_SPACE
0
BLOCK_RECORD
5
1B
100
AcDbSymbolTableRecord
100
AcDbBlockTableRecord
2
*PAPER_SPACE
0
ENDTAB
0
ENDSEC
0
SECTION
2
BLOCKS
0
BLOCK
5
20
100
AcDbEntity
100
AcDbBlockBegin
2
*MODEL_SPACE
0
ENDBLK
5
21
100
AcDbEntity
100
AcDbBlockEnd
0
BLOCK
5
1C
100
AcDbEntity
100
AcDbBlockBegin
2
*PAPER_SPACE
0
ENDBLK
5
1D
100
AcDbEntity
100
AcDbBlockEnd
0
ENDSEC
0
SECTION
2
ENTITIES
0
LWPOLYLINE
5
100
100
AcDbEntity
8
0
100
AcDbPolyline
90
4
70
1
43
0.0
10
-130.20000008478158
20
-28.520000000000007
10
-142.4000000847816
20
-28.520000000000007
10
-142.4000000847816
20
-30.540000000000006
10
-130.20000008478158
20
-30.540000000000006
0
LWPOLYLINE
5
101
100
AcDbEntity
8
0
100
AcDbPolyline
90
4
70
1
43
0.0
10
-109.88000008478159
20
-28.520000000000007
10
-122.0800000847816
20
-28.520000000000007
10
-122.0800000847816
20
-30.540000000000006
10
-109.88000008478159
20
-30.540000000000006
0
CIRCLE
5
102
100
AcDbEntity
8
0
100
AcDbCircle
10
-298.9070000847816
20
-195.64000004533648
30
0
40
0.94999999999998852
210
0
220
-0
230
1
0
CIRCLE
5
103
100
AcDbEntity
8
0
100
AcDbCircle
10
-141.42700008478161
20
-195.64000004533648
30
0
40
0.94999999999998852
210
0
220
-0
230
1
0
CIRCLE
5
104
100
AcDbEntity
8
0
100
AcDbCircle
10
-298.9070000847816
20
-63.520000045336488
30
0
40
0.94999999999998852
210
0
220
-0
230
1
0
CIRCLE
5
105
100
AcDbEntity
8
0
100
AcDbCircle
10
-141.42700008478161
20
-40.700000045336481
30
0
40
0.95000000000000639
210
0
220
-0
230
1
0
LWPOLYLINE
5
106
100
AcDbEntity
8
0
100
AcDbPolyline
90
77
70
1
43
0.0
10
-219.34
20
-17.999999999999993
42
-0.41421356237309465
10
-216.34
20
-20.999999999999996
10
-216.34
20
-28.000000417232513
10
-148.33999999999997
20
-28.000000417232513
10
-148.33999999999997
20
-23.000000417232513
10
-157.33999999999997
20
-23.000000417232513
10
-157.33999999999997
20
-20.999999999999996
42
-0.4142135623730937
10
-154.33999999999997
20
-18
10
-107.34000000000002
20
-18.000000000000007
42
-0.4142135623730937
10
-104.34
20
-21
10
-104.34
20
-26.000000417232513
42
0.41421356237309503
10
-102.34000000000002
20
-28.000000417232513
10
-92.039999999999964
20
-28.000000417232513
10
-92.039999999999964
20
-58.000000417232513
10
-87.039999999999964
20
-58.000000417232513
10
-87.039999999999964
20
-163.00000020861626
10
-92.039999999999964
20
-163.00000020861626
10
-92.039999999999964
20
-193.00000020861626
10
-87.039999999999964
20
-193.00000020861626
10
-87.039999999999964
20
-298
10
-92.039999999999964
20
-298
10
-92.039999999999964
20
-328
10
-106.33999999999997
20
-328
10
-106.33999999999995
20
-335
42
-0.41421356237310025
10
-109.33999999999997
20
-338
10
-156.33999999999997
20
-338
42
-0.41421356237310025
10
-159.33999999999997
20
-335
10
-159.33999999999997
20
-333
10
-148.33999999999997
20
-333
10
-148.33999999999997
20
-328
10
-216.34
20
-328
10
-216.33999999999997
20
-334.99999999999994
42
-0.41421356237310542
10
-219.33999999999997
20
-338
10
-238.34
20
-338
42
-0.41421356237310197
10
-241.34
20
-335
10
-241.34
20
-333
10
-228.34
20
-333
10
-228.34
20
-328
10
-304.33999999999997
20
-328
10
-304.34000000000003
20
-334.99999999999994
42
-0.41421356237310542
10
-307.34000000000003
20
-338
10
-327.34000000000003
20
-337.99999999999989
42
-0.41421356237312978
10
-330.33999999999997
20
-335
10
-330.33999999999997
20
-333
10
-317.33999999999997
20
-333
10
-317.33999999999997
20
-288
10
-322.33999999999992
20
-288
42
-0.41421356237310197
10
-325.33999999999992
20
-284.99999999999994
10
-325.33999999999992
20
-240.99999999999997
42
-0.41421356237310197
10
-322.33999999999992
20
-237.99999999999997
10
-317.33999999999997
20
-237.99999999999997
10
-317.33999999999997
20
-207.99999999999997
10
-337.34000000000003
20
-207.99999999999994
42
-0.41421356237312279
10
-340.33999999999997
20
-204.99999999999997
10
-340.33999999999997
20
-151
42
-0.41421356237311413
10
-337.34000000000003
20
-147.99999999999997
10
-317.33999999999997
20
-148
10
-317.33999999999997
20
-117.99999999999999
10
-322.33999999999992
20
-118
42
-0.41421356237310025
10
-325.33999999999992
20
-114.99999999999999
10
-325.33999999999992
20
-70.999999999999986
42
-0.41421356237309936
10
-322.33999999999992
20
-67.999999999999986
10
-317.33999999999997
20
-67.999999999999986
10
-317.33999999999997
20
-23
10
-330.33999999999997
20
-23
10
-330.33999999999997
20
-20.999999999999996
42
-0.41421356237311324
10
-327.34000000000003
20
-18
10
-308.33999999999997
20
-18.000000000000004
42
-0.41421356237309465
10
-305.33999999999997
20
-21.000000000000007
10
-305.33999999999997
20
-28
10
-304.33999999999997
20
-28
10
-254.33999999999997
20
-28.000000417232513
10
-228.34
20
-28.000000417232513
10
-228.34
20
-23.000000417232513
10
-241.34
20
-23.000000417232513
10
-241.34
20
-20.999999999999996
42
-0.41421356237309465
10
-238.34
20
-18
0
LWPOLYLINE
5
107
100
AcDbEntity
8
0
100
AcDbPolyline
90
8
70
1
43
0.0
10
-271.12700008478157
20
-172.78000004533652
10
-176.82700008478156
20
-172.78000004533652
42
0.41421356237309503
10
-166.82700008478156
20
-162.78000004533649
10
-166.82700008478156
20
-58.320000045336506
42
0.41421356237309531
10
-176.82700008478156
20
-48.320000045336478
10
-271.12700008478157
20
-48.320000045336485
42
0.41421356237309503
10
-281.12700008478157
20
-58.320000045336485
10
-281.12700008478157
20
-162.78000004533649
42
0.41421356237309503
0
ENDSEC
0
SECTION
2
OBJECTS
0
DICTIONARY
5
C
100
AcDbDictionary
3
ACAD_GROUP
350
D
3
ACAD_MLINESTYLE
350
17
0
DICTIONARY
5
D
100
AcDbDictionary
0
DICTIONARY
5
1A
330
C
100
AcDbDictionary
0
DICTIONARY
5
17
100
AcDbDictionary
0
ENDSEC
0
EOF
