0
SECTION
2
HEADER
9
$INSUNITS
70
4
9
$ACADVER
1
AC1014
9
$HANDSEED
5
FFFF
0
ENDSEC
0
SECTION
2
TABLES
0
TABLE
2
VPORT
5
8
100
AcDbSymbolTable
0
ENDTAB
0
TABLE
2
LTYPE
5
5
100
AcDbSymbolTable
0
LTYPE
5
14
100
AcDbSymbolTableRecord
100
AcDbLinetypeTableRecord
2
BYBLOCK
70
0
0
LTYPE
5
15
100
AcDbSymbolTableRecord
100
AcDbLinetypeTableRecord
2
BYLAYER
70
0
0
ENDTAB
0
TABLE
2
LAYER
5
2
100
AcDbSymbolTable
70
2
0
LAYER
5
50
100
AcDbSymbolTableRecord
100
AcDbLayerTableRecord
2
0
70
0
6
CONTINUOUS
0
ENDTAB
0
TABLE
2
STYLE
5
3
100
AcDbSymbolTable
70
1
0
STYLE
5
11
100
AcDbSymbolTableRecord
100
AcDbTextStyleTableRecord
2
STANDARD
70
0
0
ENDTAB
0
TABLE
2
VIEW
5
6
100
AcDbSymbolTable
70
0
0
ENDTAB
0
TABLE
2
UCS
5
7
100
AcDbSymbolTable
70
0
0
ENDTAB
0
TABLE
2
APPID
5
9
100
AcDbSymbolTable
70
2
0
APPID
5
12
100
AcDbSymbolTableRecord
100
AcDbRegAppTableRecord
2
ACAD
70
0
0
ENDTAB
0
TABLE
2
DIMSTYLE
5
A
100
AcDbSymbolTable
70
1
0
ENDTAB
0
TABLE
2
BLOCK_RECORD
5
1
100
AcDbSymbolTable
70
1
0
BLOCK_RECORD
5
1F
100
AcDbSymbolTableRecord
100
AcDbBlockTableRecord
2
*MODEL_SPACE
0
BLOCK_RECORD
5
1B
100
AcDbSymbolTableRecord
100
AcDbBlockTableRecord
2
*PAPER_SPACE
0
ENDTAB
0
ENDSEC
0
SECTION
2
BLOCKS
0
BLOCK
5
20
100
AcDbEntity
100
AcDbBlockBegin
2
*MODEL_SPACE
0
ENDBLK
5
21
100
AcDbEntity
100
AcDbBlockEnd
0
BLOCK
5
1C
100
AcDbEntity
100
AcDbBlockBegin
2
*PAPER_SPACE
0
ENDBLK
5
1D
100
AcDbEntity
100
AcDbBlockEnd
0
ENDSEC
0
SECTION
2
ENTITIES
0
LWPOLYLINE
5
100
100
AcDbEntity
8
0
100
AcDbPolyline
90
6
70
1
43
0.0
10
273.66025403784437
20
27.679491924311215
10
265
20
32.679491924311215
10
256.33974596215563
20
27.679491924311233
10
256.33974596215563
20
17.67949192431125
10
265
20
12.67949192431125
10
273.66025403784431
20
17.679491924311233
0
LWPOLYLINE
5
101
100
AcDbEntity
8
0
100
AcDbPolyline
90
6
70
1
43
0.0
10
293.66025403784442
20
52.679491924311236
10
293.66025403784442
20
62.679491924311236
10
285
20
67.679491924311236
10
276.33974596215563
20
62.679491924311236
10
276.33974596215563
20
52.679491924311236
10
285
20
47.679491924311236
0
LWPOLYLINE
5
102
100
AcDbEntity
8
0
100
AcDbPolyline
90
6
70
1
43
0.0
10
246.33974596215563
20
45
10
246.33974596215563
20
35
10
255
20
30
10
263.66025403784437
20
35
10
263.66025403784437
20
45
10
255
20
50
0
LWPOLYLINE
5
103
100
AcDbEntity
8
0
100
AcDbPolyline
90
6
70
1
43
0.0
10
206.33974596215563
20
45
10
206.33974596215563
20
35
10
215
20
30
10
223.66025403784437
20
35
10
223.66025403784437
20
45
10
215
20
50
0
LWPOLYLINE
5
104
100
AcDbEntity
8
0
100
AcDbPolyline
90
6
70
1
43
0.0
10
195
20
50
10
186.33974596215563
20
45
10
186.33974596215563
20
35
10
195
20
30
10
203.66025403784442
20
35
10
203.66025403784442
20
45
0
LWPOLYLINE
5
105
100
AcDbEntity
8
0
100
AcDbPolyline
90
6
70
1
43
0.0
10
75
20
120
10
66.339745962155632
20
115
10
66.339745962155632
20
105
10
75
20
100
10
83.66025403784441
20
105
10
83.66025403784441
20
115
0
LWPOLYLINE
5
106
100
AcDbEntity
8
0
100
AcDbPolyline
90
6
70
1
43
0.0
10
166.33974596215563
20
80
10
166.33974596215563
20
70
10
175
20
65
10
183.66025403784437
20
70
10
183.66025403784437
20
80
10
175
20
85
0
LWPOLYLINE
5
107
100
AcDbEntity
8
0
100
AcDbPolyline
90
6
70
1
43
0.0
10
115
20
50
10
106.33974596215563
20
45
10
106.33974596215563
20
35
10
115
20
30
10
123.6602540378444
20
35
10
123.6602540378444
20
45
0
LWPOLYLINE
5
108
100
AcDbEntity
8
0
100
AcDbPolyline
90
6
70
1
43
0.0
10
173.66025403784442
20
87.679491924311236
10
173.66025403784442
20
97.679491924311236
10
165
20
102.67949192431124
10
156.33974596215563
20
97.679491924311236
10
156.33974596215563
20
87.679491924311236
10
165
20
82.679491924311236
0
LWPOLYLINE
5
109
100
AcDbEntity
8
0
100
AcDbPolyline
90
6
70
1
43
0.0
10
155
20
85
10
146.33974596215563
20
80
10
146.33974596215563
20
70
10
155
20
65
10
163.66025403784442
20
70
10
163.66025403784442
20
80
0
LWPOLYLINE
5
110
100
AcDbEntity
8
0
100
AcDbPolyline
90
6
70
1
43
0.0
10
235
20
120
10
226.33974596215563
20
115
10
226.33974596215563
20
105
10
235
20
100
10
243.66025403784442
20
105
10
243.66025403784442
20
115
0
LWPOLYLINE
5
111
100
AcDbEntity
8
0
100
AcDbPolyline
90
6
70
1
43
0.0
10
93.66025403784441
20
17.679491924311233
10
93.66025403784441
20
27.679491924311233
10
85
20
32.679491924311236
10
76.339745962155632
20
27.679491924311233
10
76.339745962155632
20
17.679491924311233
10
85
20
12.679491924311233
0
LWPOLYLINE
5
112
100
AcDbEntity
8
0
100
AcDbPolyline
90
6
70
1
43
0.0
10
65
20
102.67949192431121
10
56.339745962155625
20
97.679491924311236
10
56.339745962155625
20
87.67949192431125
10
65
20
82.67949192431125
10
73.660254037844339
20
87.679491924311236
10
73.660254037844368
20
97.679491924311208
0
LWPOLYLINE
5
113
100
AcDbEntity
8
0
100
AcDbPolyline
90
6
70
1
43
0.0
10
153.66025403784437
20
97.679491924311208
10
145
20
102.67949192431121
10
136.33974596215563
20
97.679491924311236
10
136.33974596215563
20
87.67949192431125
10
144.99999999999997
20
82.67949192431125
10
153.66025403784437
20
87.679491924311236
0
LWPOLYLINE
5
114
100
AcDbEntity
8
0
100
AcDbPolyline
90
6
70
1
43
0.0
10
133.6602540378444
20
52.679491924311236
10
133.6602540378444
20
62.679491924311236
10
125
20
67.679491924311236
10
116.33974596215563
20
62.679491924311236
10
116.33974596215563
20
52.679491924311236
10
125
20
47.679491924311236
0
LWPOLYLINE
5
115
100
AcDbEntity
8
0
100
AcDbPolyline
90
6
70
1
43
0.0
10
75
20
85
10
66.339745962155632
20
80
10
66.339745962155632
20
70
10
75
20
65
10
83.66025403784441
20
70
10
83.66025403784441
20
80
0
LWPOLYLINE
5
116
100
AcDbEntity
8
0
100
AcDbPolyline
90
6
70
1
43
0.0
10
195
20
120
10
186.33974596215563
20
115
10
186.33974596215563
20
105
10
195
20
100
10
203.66025403784442
20
105
10
203.66025403784442
20
115
0
LWPOLYLINE
5
117
100
AcDbEntity
8
0
100
AcDbPolyline
90
6
70
1
43
0.0
10
213.66025403784442
20
52.679491924311236
10
213.66025403784442
20
62.679491924311236
10
205
20
67.679491924311236
10
196.33974596215563
20
62.679491924311236
10
196.33974596215563
20
52.679491924311236
10
205
20
47.679491924311236
0
LWPOLYLINE
5
118
100
AcDbEntity
8
0
100
AcDbPolyline
90
6
70
1
43
0.0
10
193.66025403784437
20
62.679491924311215
10
185
20
67.679491924311208
10
176.33974596215563
20
62.679491924311236
10
176.33974596215563
20
52.67949192431125
10
185
20
47.67949192431125
10
193.66025403784434
20
52.679491924311236
0
LWPOLYLINE
5
119
100
AcDbEntity
8
0
100
AcDbPolyline
90
6
70
1
43
0.0
10
113.66025403784437
20
27.679491924311215
10
105
20
32.679491924311215
10
96.339745962155632
20
27.679491924311233
10
96.339745962155632
20
17.67949192431125
10
105
20
12.67949192431125
10
113.66025403784435
20
17.679491924311233
0
LWPOLYLINE
5
120
100
AcDbEntity
8
0
100
AcDbPolyline
90
6
70
1
43
0.0
10
46.339745962155625
20
80
10
46.339745962155625
20
70
10
55
20
65
10
63.660254037844375
20
70
10
63.660254037844375
20
80
10
55
20
85
0
LWPOLYLINE
5
121
100
AcDbEntity
8
0
100
AcDbPolyline
90
6
70
1
43
0.0
10
206.33974596215563
20
115
10
206.33974596215563
20
105
10
215
20
100
10
223.66025403784437
20
105
10
223.66025403784437
20
115
10
215
20
120
0
LWPOLYLINE
5
122
100
AcDbEntity
8
0
100
AcDbPolyline
90
6
70
1
43
0.0
10
55
20
120
10
46.339745962155625
20
115
10
46.339745962155625
20
105
10
55
20
100
10
63.660254037844375
20
105
10
63.660254037844375
20
115
0
LWPOLYLINE
5
123
100
AcDbEntity
8
0
100
AcDbPolyline
90
6
70
1
43
0.0
10
126.33974596215563
20
45
10
126.33974596215563
20
35
10
135
20
30
10
143.66025403784437
20
35
10
143.66025403784437
20
45
10
135
20
50
0
LWPOLYLINE
5
124
100
AcDbEntity
8
0
100
AcDbPolyline
90
6
70
1
43
0.0
10
233.66025403784437
20
97.679491924311208
10
225
20
102.67949192431121
10
216.33974596215563
20
97.679491924311236
10
216.33974596215563
20
87.67949192431125
10
225
20
82.67949192431125
10
233.66025403784434
20
87.679491924311236
0
LWPOLYLINE
5
125
100
AcDbEntity
8
0
100
AcDbPolyline
90
6
70
1
43
0.0
10
153.66025403784437
20
62.679491924311215
10
145
20
67.679491924311208
10
136.33974596215563
20
62.679491924311236
10
136.33974596215563
20
52.67949192431125
10
144.99999999999997
20
47.67949192431125
10
153.66025403784437
20
52.679491924311236
0
LWPOLYLINE
5
126
100
AcDbEntity
8
0
100
AcDbPolyline
90
6
70
1
43
0.0
10
173.66025403784442
20
17.679491924311233
10
173.66025403784442
20
27.679491924311233
10
165
20
32.679491924311236
10
156.33974596215563
20
27.679491924311233
10
156.33974596215563
20
17.679491924311233
10
165
20
12.679491924311233
0
LWPOLYLINE
5
127
100
AcDbEntity
8
0
100
AcDbPolyline
90
6
70
1
43
0.0
10
193.66025403784437
20
97.679491924311208
10
185
20
102.67949192431121
10
176.33974596215563
20
97.679491924311236
10
176.33974596215563
20
87.67949192431125
10
185
20
82.67949192431125
10
193.66025403784434
20
87.679491924311236
0
LWPOLYLINE
5
128
100
AcDbEntity
8
0
100
AcDbPolyline
90
6
70
1
43
0.0
10
113.66025403784437
20
62.679491924311215
10
105
20
67.679491924311208
10
96.339745962155632
20
62.679491924311236
10
96.339745962155632
20
52.67949192431125
10
105
20
47.67949192431125
10
113.66025403784435
20
52.679491924311236
0
LWPOLYLINE
5
129
100
AcDbEntity
8
0
100
AcDbPolyline
90
6
70
1
43
0.0
10
75
20
50
10
66.339745962155632
20
45
10
66.339745962155632
20
35
10
75
20
30
10
83.66025403784441
20
35
10
83.66025403784441
20
45
0
LWPOLYLINE
5
130
100
AcDbEntity
8
0
100
AcDbPolyline
90
6
70
1
43
0.0
10
133.6602540378444
20
87.679491924311236
10
133.6602540378444
20
97.679491924311236
10
125
20
102.67949192431124
10
116.33974596215563
20
97.679491924311236
10
116.33974596215563
20
87.679491924311236
10
125
20
82.679491924311236
0
LWPOLYLINE
5
131
100
AcDbEntity
8
0
100
AcDbPolyline
90
6
70
1
43
0.0
10
275
20
50
10
266.33974596215563
20
45
10
266.33974596215563
20
35
10
275
20
30
10
283.66025403784442
20
35
10
283.66025403784442
20
45
0
LWPOLYLINE
5
132
100
AcDbEntity
8
0
100
AcDbPolyline
90
6
70
1
43
0.0
10
166.33974596215563
20
45
10
166.33974596215563
20
35
10
175
20
30
10
183.66025403784437
20
35
10
183.66025403784437
20
45
10
175
20
50
0
LWPOLYLINE
5
133
100
AcDbEntity
8
0
100
AcDbPolyline
90
6
70
1
43
0.0
10
273.66025403784437
20
62.679491924311215
10
265
20
67.679491924311208
10
256.33974596215563
20
62.679491924311236
10
256.33974596215563
20
52.67949192431125
10
265
20
47.67949192431125
10
273.66025403784431
20
52.679491924311236
0
LWPOLYLINE
5
134
100
AcDbEntity
8
0
100
AcDbPolyline
90
6
70
1
43
0.0
10
235
20
85
10
226.33974596215563
20
80
10
226.33974596215563
20
70
10
235
20
65
10
243.66025403784442
20
70
10
243.66025403784442
20
80
0
LWPOLYLINE
5
135
100
AcDbEntity
8
0
100
AcDbPolyline
90
6
70
1
43
0.0
10
253.66025403784442
20
17.679491924311233
10
253.66025403784442
20
27.679491924311233
10
245
20
32.679491924311236
10
236.33974596215563
20
27.679491924311233
10
236.33974596215563
20
17.679491924311233
10
245
20
12.679491924311233
0
LWPOLYLINE
5
136
100
AcDbEntity
8
0
100
AcDbPolyline
90
6
70
1
43
0.0
10
206.33974596215563
20
80
10
206.33974596215563
20
70
10
215
20
65
10
223.66025403784437
20
70
10
223.66025403784437
20
80
10
215
20
85
0
LWPOLYLINE
5
137
100
AcDbEntity
8
0
100
AcDbPolyline
90
6
70
1
43
0.0
10
246.33974596215563
20
80
10
246.33974596215563
20
70
10
255
20
65
10
263.66025403784437
20
70
10
263.66025403784437
20
80
10
255
20
85
0
LWPOLYLINE
5
138
100
AcDbEntity
8
0
100
AcDbPolyline
90
6
70
1
43
0.0
10
233.66025403784437
20
27.679491924311215
10
225
20
32.679491924311215
10
216.33974596215563
20
27.679491924311233
10
216.33974596215563
20
17.67949192431125
10
225
20
12.67949192431125
10
233.66025403784434
20
17.679491924311233
0
LWPOLYLINE
5
139
100
AcDbEntity
8
0
100
AcDbPolyline
90
6
70
1
43
0.0
10
235
20
50
10
226.33974596215563
20
45
10
226.33974596215563
20
35
10
235
20
30
10
243.66025403784442
20
35
10
243.66025403784442
20
45
0
LWPOLYLINE
5
140
100
AcDbEntity
8
0
100
AcDbPolyline
90
6
70
1
43
0.0
10
233.66025403784437
20
62.679491924311215
10
225
20
67.679491924311208
10
216.33974596215563
20
62.679491924311236
10
216.33974596215563
20
52.67949192431125
10
225
20
47.67949192431125
10
233.66025403784434
20
52.679491924311236
0
LWPOLYLINE
5
141
100
AcDbEntity
8
0
100
AcDbPolyline
90
6
70
1
43
0.0
10
115
20
120
10
106.33974596215563
20
115
10
106.33974596215563
20
105
10
115
20
100
10
123.6602540378444
20
105
10
123.6602540378444
20
115
0
LWPOLYLINE
5
142
100
AcDbEntity
8
0
100
AcDbPolyline
90
6
70
1
43
0.0
10
153.66025403784437
20
27.679491924311215
10
145
20
32.679491924311215
10
136.33974596215563
20
27.679491924311233
10
136.33974596215563
20
17.67949192431125
10
144.99999999999997
20
12.67949192431125
10
153.66025403784437
20
17.679491924311233
0
LWPOLYLINE
5
143
100
AcDbEntity
8
0
100
AcDbPolyline
90
6
70
1
43
0.0
10
133.6602540378444
20
17.679491924311233
10
133.6602540378444
20
27.679491924311233
10
125
20
32.679491924311236
10
116.33974596215563
20
27.679491924311233
10
116.33974596215563
20
17.679491924311233
10
125
20
12.679491924311233
0
LWPOLYLINE
5
144
100
AcDbEntity
8
0
100
AcDbPolyline
90
6
70
1
43
0.0
10
73.660254037844368
20
62.679491924311215
10
65
20
67.679491924311208
10
56.339745962155625
20
62.679491924311236
10
56.339745962155625
20
52.67949192431125
10
65
20
47.67949192431125
10
73.660254037844339
20
52.679491924311236
0
LWPOLYLINE
5
145
100
AcDbEntity
8
0
100
AcDbPolyline
90
6
70
1
43
0.0
10
275
20
120
10
266.33974596215563
20
115
10
266.33974596215563
20
105
10
275
20
100
10
283.66025403784442
20
105
10
283.66025403784442
20
115
0
LWPOLYLINE
5
146
100
AcDbEntity
8
0
100
AcDbPolyline
90
6
70
1
43
0.0
10
85
20
102.67949192431124
10
76.339745962155632
20
97.679491924311236
10
76.339745962155632
20
87.679491924311236
10
85
20
82.679491924311236
10
93.66025403784441
20
87.679491924311236
10
93.66025403784441
20
97.679491924311236
0
LWPOLYLINE
5
147
100
AcDbEntity
8
0
100
AcDbPolyline
90
6
70
1
43
0.0
10
273.66025403784437
20
97.679491924311208
10
265
20
102.67949192431121
10
256.33974596215563
20
97.679491924311236
10
256.33974596215563
20
87.67949192431125
10
265
20
82.67949192431125
10
273.66025403784431
20
87.679491924311236
0
LWPOLYLINE
5
148
100
AcDbEntity
8
0
100
AcDbPolyline
90
6
70
1
43
0.0
10
86.339745962155632
20
45
10
86.339745962155632
20
35
10
95
20
30
10
103.66025403784437
20
35
10
103.66025403784437
20
45
10
95
20
50
0
LWPOLYLINE
5
149
100
AcDbEntity
8
0
100
AcDbPolyline
90
6
70
1
43
0.0
10
126.33974596215563
20
80
10
126.33974596215563
20
70
10
135
20
65
10
143.66025403784437
20
70
10
143.66025403784437
20
80
10
135
20
85
0
LWPOLYLINE
5
150
100
AcDbEntity
8
0
100
AcDbPolyline
90
6
70
1
43
0.0
10
93.66025403784441
20
52.679491924311236
10
93.66025403784441
20
62.679491924311236
10
85
20
67.679491924311236
10
76.339745962155632
20
62.679491924311236
10
76.339745962155632
20
52.679491924311236
10
85
20
47.679491924311236
0
LWPOLYLINE
5
151
100
AcDbEntity
8
0
100
AcDbPolyline
90
6
70
1
43
0.0
10
73.660254037844368
20
27.679491924311215
10
65
20
32.679491924311215
10
56.339745962155625
20
27.679491924311233
10
56.339745962155625
20
17.67949192431125
10
65
20
12.67949192431125
10
73.660254037844339
20
17.679491924311233
0
LWPOLYLINE
5
152
100
AcDbEntity
8
0
100
AcDbPolyline
90
6
70
1
43
0.0
10
155
20
120
10
146.33974596215563
20
115
10
146.33974596215563
20
105
10
155
20
100
10
163.66025403784442
20
105
10
163.66025403784442
20
115
0
LWPOLYLINE
5
153
100
AcDbEntity
8
0
100
AcDbPolyline
90
6
70
1
43
0.0
10
195
20
85
10
186.33974596215563
20
80
10
186.33974596215563
20
70
10
195
20
65
10
203.66025403784442
20
70
10
203.66025403784442
20
80
0
LWPOLYLINE
5
154
100
AcDbEntity
8
0
100
AcDbPolyline
90
6
70
1
43
0.0
10
126.33974596215563
20
115
10
126.33974596215563
20
105
10
135
20
100
10
143.66025403784437
20
105
10
143.66025403784437
20
115
10
135
20
120
0
LWPOLYLINE
5
155
100
AcDbEntity
8
0
100
AcDbPolyline
90
6
70
1
43
0.0
10
253.66025403784442
20
87.679491924311236
10
253.66025403784442
20
97.679491924311236
10
245
20
102.67949192431124
10
236.33974596215563
20
97.679491924311236
10
236.33974596215563
20
87.679491924311236
10
245
20
82.679491924311236
0
LWPOLYLINE
5
156
100
AcDbEntity
8
0
100
AcDbPolyline
90
6
70
1
43
0.0
10
46.339745962155625
20
45
10
46.339745962155625
20
35
10
55
20
30
10
63.660254037844375
20
35
10
63.660254037844375
20
45
10
55
20
50
0
LWPOLYLINE
5
157
100
AcDbEntity
8
0
100
AcDbPolyline
90
6
70
1
43
0.0
10
115
20
85
10
106.33974596215563
20
80
10
106.33974596215563
20
70
10
115
20
65
10
123.6602540378444
20
70
10
123.6602540378444
20
80
0
LWPOLYLINE
5
158
100
AcDbEntity
8
0
100
AcDbPolyline
90
6
70
1
43
0.0
10
166.33974596215563
20
115
10
166.33974596215563
20
105
10
175
20
100
10
183.66025403784437
20
105
10
183.66025403784437
20
115
10
175
20
120
0
LWPOLYLINE
5
159
100
AcDbEntity
8
0
100
AcDbPolyline
90
6
70
1
43
0.0
10
155
20
50
10
146.33974596215563
20
45
10
146.33974596215563
20
35
10
155
20
30
10
163.66025403784442
20
35
10
163.66025403784442
20
45
0
LWPOLYLINE
5
160
100
AcDbEntity
8
0
100
AcDbPolyline
90
6
70
1
43
0.0
10
213.66025403784442
20
87.679491924311236
10
213.66025403784442
20
97.679491924311236
10
205
20
102.67949192431124
10
196.33974596215563
20
97.679491924311236
10
196.33974596215563
20
87.679491924311236
10
205
20
82.679491924311236
0
LWPOLYLINE
5
161
100
AcDbEntity
8
0
100
AcDbPolyline
90
6
70
1
43
0.0
10
293.66025403784442
20
87.679491924311236
10
293.66025403784442
20
97.679491924311236
10
285
20
102.67949192431124
10
276.33974596215563
20
97.679491924311236
10
276.33974596215563
20
87.679491924311236
10
285
20
82.679491924311236
0
LWPOLYLINE
5
162
100
AcDbEntity
8
0
100
AcDbPolyline
90
6
70
1
43
0.0
10
173.66025403784442
20
52.679491924311236
10
173.66025403784442
20
62.679491924311236
10
165
20
67.679491924311236
10
156.33974596215563
20
62.679491924311236
10
156.33974596215563
20
52.679491924311236
10
165
20
47.679491924311236
0
LWPOLYLINE
5
163
100
AcDbEntity
8
0
100
AcDbPolyline
90
6
70
1
43
0.0
10
246.33974596215563
20
115
10
246.33974596215563
20
105
10
255
20
100
10
263.66025403784437
20
105
10
263.66025403784437
20
115
10
255
20
120
0
LWPOLYLINE
5
164
100
AcDbEntity
8
0
100
AcDbPolyline
90
6
70
1
43
0.0
10
86.339745962155632
20
80
10
86.339745962155632
20
70
10
95
20
65
10
103.66025403784437
20
70
10
103.66025403784437
20
80
10
95
20
85
0
LWPOLYLINE
5
165
100
AcDbEntity
8
0
100
AcDbPolyline
90
6
70
1
43
0.0
10
113.66025403784437
20
97.679491924311208
10
105
20
102.67949192431121
10
96.339745962155632
20
97.679491924311236
10
96.339745962155632
20
87.67949192431125
10
105
20
82.67949192431125
10
113.66025403784435
20
87.679491924311236
0
LWPOLYLINE
5
166
100
AcDbEntity
8
0
100
AcDbPolyline
90
6
70
1
43
0.0
10
86.339745962155632
20
115
10
86.339745962155632
20
105
10
95
20
100
10
103.66025403784437
20
105
10
103.66025403784437
20
115
10
95
20
120
0
LWPOLYLINE
5
167
100
AcDbEntity
8
0
100
AcDbPolyline
90
6
70
1
43
0.0
10
213.66025403784442
20
17.679491924311233
10
213.66025403784442
20
27.679491924311233
10
205
20
32.679491924311236
10
196.33974596215563
20
27.679491924311233
10
196.33974596215563
20
17.679491924311233
10
205
20
12.679491924311233
0
LWPOLYLINE
5
168
100
AcDbEntity
8
0
100
AcDbPolyline
90
6
70
1
43
0.0
10
253.66025403784442
20
52.679491924311236
10
253.66025403784442
20
62.679491924311236
10
245
20
67.679491924311236
10
236.33974596215563
20
62.679491924311236
10
236.33974596215563
20
52.679491924311236
10
245
20
47.679491924311236
0
LWPOLYLINE
5
169
100
AcDbEntity
8
0
100
AcDbPolyline
90
6
70
1
43
0.0
10
275
20
85
10
266.33974596215563
20
80
10
266.33974596215563
20
70
10
275
20
65
10
283.66025403784442
20
70
10
283.66025403784442
20
80
0
LWPOLYLINE
5
170
100
AcDbEntity
8
0
100
AcDbPolyline
90
6
70
1
43
0.0
10
293.66025403784442
20
17.679491924311233
10
293.66025403784442
20
27.679491924311233
10
285
20
32.679491924311236
10
276.33974596215563
20
27.679491924311233
10
276.33974596215563
20
17.679491924311233
10
285
20
12.679491924311233
0
LWPOLYLINE
5
171
100
AcDbEntity
8
0
100
AcDbPolyline
90
6
70
1
43
0.0
10
193.66025403784437
20
27.679491924311215
10
185
20
32.679491924311215
10
176.33974596215563
20
27.679491924311233
10
176.33974596215563
20
17.67949192431125
10
185
20
12.67949192431125
10
193.66025403784434
20
17.679491924311233
0
LWPOLYLINE
5
172
100
AcDbEntity
8
0
100
AcDbPolyline
90
36
70
1
43
0.0
10
162.83975798865512
20
-4.9724752386234172
10
162.83975798865512
20
0.027524761376582774
10
57.839757988655123
20
0.027524761376582774
10
57.839757988655123
20
-4.9724752386234172
10
27.839757988655123
20
-4.9724752386234172
10
27.839757988655123
20
10.027524761376583
10
22.839757988655116
20
10.027524761376583
10
22.839757988655116
20
40.027524761376583
10
27.839757988655123
20
40.027524761376583
10
27.839757988655123
20
103.42752476137659
10
22.839757988655116
20
103.42752476137659
10
22.839757988655116
20
133.42752476137659
10
27.839757988655123
20
133.42752476137659
10
27.839757988655123
20
146.42752476137659
10
57.839757988655123
20
146.42752476137659
10
57.839757988655123
20
141.42752476137659
10
162.83975798865512
20
141.42752476137659
10
162.83975798865512
20
146.42752476137659
10
192.83975798865512
20
146.42752476137659
10
192.83975798865512
20
141.42752476137659
10
297.83975798865515
20
141.42752476137659
10
297.83975798865515
20
146.42752476137659
10
327.83975798865515
20
146.42752476137659
10
327.83975798865515
20
133.42752476137659
10
332.83975798865515
20
133.42752476137659
10
332.83975798865515
20
103.42752476137659
10
327.83975798865515
20
103.42752476137659
10
327.83975798865515
20
40.027524761376583
10
332.83975798865515
20
40.027524761376583
10
332.83975798865515
20
10.027524761376583
10
327.83975798865515
20
10.027524761376583
10
327.83975798865515
20
-4.9724752386234172
10
297.83975798865515
20
-4.9724752386234172
10
297.83975798865515
20
0.027524761376582774
10
192.83975798865512
20
0.027524761376582774
10
192.83975798865512
20
-4.9724752386234172
0
ENDSEC
0
SECTION
2
OBJECTS
0
DICTIONARY
5
C
100
AcDbDictionary
3
ACAD_GROUP
350
D
3
ACAD_MLINESTYLE
350
17
0
DICTIONARY
5
D
100
AcDbDictionary
0
DICTIONARY
5
1A
330
C
100
AcDbDictionary
0
DICTIONARY
5
17
100
AcDbDictionary
0
ENDSEC
0
EOF
