0
SECTION
2
HEADER
9
$INSUNITS
70
4
9
$ACADVER
1
AC1014
9
$HANDSEED
5
FFFF
0
ENDSEC
0
SECTION
2
TABLES
0
TABLE
2
VPORT
5
8
100
AcDbSymbolTable
0
ENDTAB
0
TABLE
2
LTYPE
5
5
100
AcDbSymbolTable
0
LTYPE
5
14
100
AcDbSymbolTableRecord
100
AcDbLinetypeTableRecord
2
BYBLOCK
70
0
0
LTYPE
5
15
100
AcDbSymbolTableRecord
100
AcDbLinetypeTableRecord
2
BYLAYER
70
0
0
ENDTAB
0
TABLE
2
LAYER
5
2
100
AcDbSymbolTable
70
2
0
LAYER
5
50
100
AcDbSymbolTableRecord
100
AcDbLayerTableRecord
2
0
70
0
6
CONTINUOUS
0
ENDTAB
0
TABLE
2
STYLE
5
3
100
AcDbSymbolTable
70
1
0
STYLE
5
11
100
AcDbSymbolTableRecord
100
AcDbTextStyleTableRecord
2
STANDARD
70
0
0
ENDTAB
0
TABLE
2
VIEW
5
6
100
AcDbSymbolTable
70
0
0
ENDTAB
0
TABLE
2
UCS
5
7
100
AcDbSymbolTable
70
0
0
ENDTAB
0
TABLE
2
APPID
5
9
100
AcDbSymbolTable
70
2
0
APPID
5
12
100
AcDbSymbolTableRecord
100
AcDbRegAppTableRecord
2
ACAD
70
0
0
ENDTAB
0
TABLE
2
DIMSTYLE
5
A
100
AcDbSymbolTable
70
1
0
ENDTAB
0
TABLE
2
BLOCK_RECORD
5
1
100
AcDbSymbolTable
70
1
0
BLOCK_RECORD
5
1F
100
AcDbSymbolTableRecord
100
AcDbBlockTableRecord
2
*MODEL_SPACE
0
BLOCK_RECORD
5
1B
100
AcDbSymbolTableRecord
100
AcDbBlockTableRecord
2
*PAPER_SPACE
0
ENDTAB
0
ENDSEC
0
SECTION
2
BLOCKS
0
BLOCK
5
20
100
AcDbEntity
100
AcDbBlockBegin
2
*MODEL_SPACE
0
ENDBLK
5
21
100
AcDbEntity
100
AcDbBlockEnd
0
BLOCK
5
1C
100
AcDbEntity
100
AcDbBlockBegin
2
*PAPER_SPACE
0
ENDBLK
5
1D
100
AcDbEntity
100
AcDbBlockEnd
0
ENDSEC
0
SECTION
2
ENTITIES
0
LWPOLYLINE
5
100
100
AcDbEntity
8
0
100
AcDbPolyline
90
4
70
1
43
0.0
10
410.22580156323886
20
231.07822965359904
10
515.23180156323872
20
231.07822965359901
10
515.23180156323872
20
246.95322965359901
10
410.22580156323886
20
246.95322965359904
0
LWPOLYLINE
5
101
100
AcDbEntity
8
0
100
AcDbPolyline
90
6
70
1
43
0.0
10
507.36520943982885
20
77.669747735535111
10
512.36520943982885
20
86.330001773379365
10
507.36520943982885
20
94.990255811223705
10
497.36520943982896
20
94.990255811223705
10
492.36520943982896
20
86.330001773379308
10
497.36520943982885
20
77.669747735535026
0
LWPOLYLINE
5
102
100
AcDbEntity
8
0
100
AcDbPolyline
90
6
70
1
43
0.0
10
457.72419328845132
20
86.330001773379308
10
462.72419328845132
20
77.669747735535026
10
472.72419328845132
20
77.669747735535111
10
477.72419328845132
20
86.330001773379365
10
472.72419328845132
20
94.990255811223705
10
462.72419328845132
20
94.990255811223705
0
LWPOLYLINE
5
103
100
AcDbEntity
8
0
100
AcDbPolyline
90
6
70
1
43
0.0
10
497.36520943982885
20
114.99025581122342
10
492.36520943982896
20
106.33000177337917
10
497.36520943982885
20
97.669747735535026
10
507.36520943982885
20
97.669747735534969
10
512.36520943982873
20
106.33000177337922
10
507.36520943982867
20
114.99025581122356
0
LWPOLYLINE
5
104
100
AcDbEntity
8
0
100
AcDbPolyline
90
6
70
1
43
0.0
10
514.68571751551747
20
127.66974773553511
10
524.68571751551735
20
127.66974773553503
10
529.68571751551735
20
136.33000177337937
10
524.68571751551735
20
144.9902558112237
10
514.68571751551747
20
144.99025581122365
10
509.68571751551764
20
136.33000177337922
0
LWPOLYLINE
5
105
100
AcDbEntity
8
0
100
AcDbPolyline
90
6
70
1
43
0.0
10
507.36520943982885
20
117.66974773553511
10
512.36520943982885
20
126.33000177337937
10
507.36520943982885
20
134.9902558112237
10
497.36520943982896
20
134.9902558112237
10
492.36520943982896
20
126.33000177337931
10
497.36520943982885
20
117.66974773553503
0
LWPOLYLINE
5
106
100
AcDbEntity
8
0
100
AcDbPolyline
90
6
70
1
43
0.0
10
480.04470136414
20
184.99025581122368
10
475.04470136414
20
176.33000177337925
10
480.04470136414
20
167.66974773553514
10
490.04470136413988
20
167.66974773553505
10
495.04470136413971
20
176.33000177337942
10
490.04470136413988
20
184.99025581122373
0
LWPOLYLINE
5
107
100
AcDbEntity
8
0
100
AcDbPolyline
90
6
70
1
43
0.0
10
480.04470136413988
20
64.990255811223648
10
475.04470136414
20
56.330001773379159
10
480.04470136413988
20
47.669747735535104
10
490.04470136413988
20
47.669747735535033
10
495.04470136413971
20
56.330001773379372
10
490.04470136413988
20
64.990255811223705
0
LWPOLYLINE
5
108
100
AcDbEntity
8
0
100
AcDbPolyline
90
9
70
1
43
0.0
10
400.87880156323877
20
63.448929653598896
10
397.87880156323877
20
63.448929647867729
10
397.87880148873296
20
37.448929647867786
10
395.87880148873296
20
37.448929653599023
10
390.87880156323877
20
37.448929653599023
10
390.87880156323877
20
34.44892965359891
10
410.87880156323877
20
34.44892965359891
10
410.87880156323877
20
37.448929653599023
10
400.87880156323877
20
37.448929653599023
0
LWPOLYLINE
5
109
100
AcDbEntity
8
0
100
AcDbPolyline
90
6
70
1
43
0.0
10
495.04470136413971
20
116.33000177337917
10
490.04470136413971
20
124.99025581122342
10
480.04470136414
20
124.99025581122342
10
475.04470136414
20
116.33000177337917
10
480.04470136414
20
107.66974773553483
10
490.04470136413988
20
107.66974773553483
0
LWPOLYLINE
5
110
100
AcDbEntity
8
0
100
AcDbPolyline
90
4
70
1
43
0.0
10
400.87880156323877
20
263.44892965359907
10
397.87880156323877
20
263.44892965359907
10
397.87880156323877
20
206.44892965359907
10
400.87880156323877
20
206.44892965359907
0
LWPOLYLINE
5
111
100
AcDbEntity
8
0
100
AcDbPolyline
90
6
70
1
43
0.0
10
490.04470136413988
20
87.669747735535026
10
495.04470136413971
20
96.330001773379365
10
490.04470136413988
20
104.9902558112237
10
480.04470136413988
20
104.99025581122365
10
475.04470136414
20
96.330001773379223
10
480.04470136413988
20
87.669747735535111
0
LWPOLYLINE
5
112
100
AcDbEntity
8
0
100
AcDbPolyline
90
4
70
1
43
0.0
10
475.87880156323877
20
37.448929653598988
10
455.87880156323877
20
37.448929653598988
10
455.87880156323877
20
34.448929653598874
10
475.87880156323877
20
34.448929653598874
0
LWPOLYLINE
5
113
100
AcDbEntity
8
0
100
AcDbPolyline
90
6
70
1
43
0.0
10
492.36520943982896
20
66.330001773379166
10
497.36520943982885
20
57.669747735534962
10
507.36520943982885
20
57.669747735534891
10
512.36520943982873
20
66.330001773379166
10
507.36520943982867
20
74.990255811223562
10
497.36520943982885
20
74.990255811223562
0
LWPOLYLINE
5
114
100
AcDbEntity
8
0
100
AcDbPolyline
90
4
70
1
43
0.0
10
490.87880156323877
20
37.448929653598988
10
490.87880156323877
20
34.448929653598874
10
510.87880156323877
20
34.448929653598874
10
510.87880156323877
20
37.448929653598988
0
LWPOLYLINE
5
115
100
AcDbEntity
8
0
100
AcDbPolyline
90
6
70
1
43
0.0
10
524.68571751551735
20
124.99025581122342
10
514.68571751551747
20
124.99025581122342
10
509.68571751551747
20
116.33000177337917
10
514.68571751551747
20
107.66974773553483
10
524.68571751551747
20
107.66974773553483
10
529.68571751551735
20
116.33000177337917
0
LWPOLYLINE
5
116
100
AcDbEntity
8
0
100
AcDbPolyline
90
4
70
1
43
0.0
10
400.87880156323877
20
152.44892965359901
10
397.87880156323877
20
152.44892965359901
10
397.87880156323877
20
126.44892965359901
10
400.87880156323877
20
126.44892965359901
0
LWPOLYLINE
5
117
100
AcDbEntity
8
0
100
AcDbPolyline
90
6
70
1
43
0.0
10
495.04470136413971
20
76.330001773379166
10
490.04470136413971
20
84.99025581122342
10
480.04470136414
20
84.99025581122342
10
475.04470136414
20
76.330001773379166
10
480.04470136414
20
67.669747735534742
10
490.04470136413988
20
67.669747735534742
0
LWPOLYLINE
5
118
100
AcDbEntity
8
0
100
AcDbPolyline
90
6
70
1
43
0.0
10
514.68571751551747
20
167.66974773553514
10
524.68571751551735
20
167.66974773553505
10
529.68571751551735
20
176.33000177337942
10
524.68571751551735
20
184.99025581122373
10
514.68571751551747
20
184.99025581122368
10
509.68571751551764
20
176.33000177337925
0
LWPOLYLINE
5
119
100
AcDbEntity
8
0
100
AcDbPolyline
90
6
70
1
43
0.0
10
457.72419328845132
20
186.33000177337925
10
462.72419328845132
20
177.66974773553505
10
472.72419328845132
20
177.669747735535
10
477.72419328845115
20
186.33000177337925
10
472.72419328845115
20
194.99025581122362
10
462.72419328845132
20
194.99025581122353
0
LWPOLYLINE
5
120
100
AcDbEntity
8
0
100
AcDbPolyline
90
6
70
1
43
0.0
10
495.04470136413971
20
196.33000177337919
10
490.04470136413988
20
204.99025581122339
10
480.04470136414
20
204.99025581122345
10
475.04470136414
20
196.33000177337919
10
480.04470136414
20
187.66974773553486
10
490.04470136413988
20
187.66974773553494
0
LWPOLYLINE
5
121
100
AcDbEntity
8
0
100
AcDbPolyline
90
6
70
1
43
0.0
10
514.68571751551747
20
67.669747735534742
10
524.68571751551747
20
67.669747735534742
10
529.68571751551735
20
76.330001773379166
10
524.68571751551735
20
84.99025581122342
10
514.68571751551747
20
84.99025581122342
10
509.68571751551747
20
76.330001773379166
0
LWPOLYLINE
5
122
100
AcDbEntity
8
0
100
AcDbPolyline
90
6
70
1
43
0.0
10
495.04470136413971
20
136.33000177337937
10
490.04470136413988
20
144.9902558112237
10
480.04470136414
20
144.99025581122365
10
475.04470136414
20
136.33000177337922
10
480.04470136414
20
127.66974773553511
10
490.04470136413988
20
127.66974773553503
0
LWPOLYLINE
5
123
100
AcDbEntity
8
0
100
AcDbPolyline
90
6
70
1
43
0.0
10
457.72419328845132
20
106.33000177337917
10
462.72419328845132
20
97.669747735535026
10
472.72419328845115
20
97.669747735534969
10
477.72419328845115
20
106.33000177337922
10
472.72419328845115
20
114.99025581122356
10
462.72419328845132
20
114.99025581122342
0
LWPOLYLINE
5
124
100
AcDbEntity
8
0
100
AcDbPolyline
90
4
70
1
43
0.0
10
449.64800156323872
20
47.448929653599023
10
449.64800156323872
20
206.452929653599
10
404.94400156323877
20
206.45292965359903
10
404.94400156323877
20
47.448929653599023
0
LWPOLYLINE
5
125
100
AcDbEntity
8
0
100
AcDbPolyline
90
6
70
1
43
0.0
10
497.36520943982896
20
154.99025581122342
10
492.36520943982896
20
146.33000177337917
10
497.36520943982896
20
137.66974773553497
10
507.36520943982885
20
137.66974773553497
10
512.36520943982873
20
146.33000177337922
10
507.36520943982867
20
154.99025581122356
0
LWPOLYLINE
5
126
100
AcDbEntity
8
0
100
AcDbPolyline
90
4
70
1
43
0.0
10
410.22580156323886
20
210.75822965359907
10
515.23180156323872
20
210.75822965359905
10
515.23180156323872
20
226.63322965359902
10
410.22580156323886
20
226.63322965359907
0
LWPOLYLINE
5
127
100
AcDbEntity
8
0
100
AcDbPolyline
90
6
70
1
43
0.0
10
524.68571751551735
20
64.990255811223705
10
514.68571751551747
20
64.990255811223648
10
509.68571751551747
20
56.330001773379159
10
514.68571751551747
20
47.669747735535104
10
524.68571751551735
20
47.669747735535033
10
529.68571751551735
20
56.330001773379372
0
LWPOLYLINE
5
128
100
AcDbEntity
8
0
100
AcDbPolyline
90
6
70
1
43
0.0
10
462.72419328845132
20
57.669747735534962
10
472.72419328845115
20
57.669747735534891
10
477.72419328845115
20
66.330001773379166
10
472.72419328845115
20
74.990255811223562
10
462.72419328845132
20
74.990255811223562
10
457.72419328845132
20
66.330001773379166
0
LWPOLYLINE
5
129
100
AcDbEntity
8
0
100
AcDbPolyline
90
6
70
1
43
0.0
10
524.68571751551747
20
147.66974773553483
10
529.68571751551735
20
156.33000177337917
10
524.68571751551735
20
164.99025581122345
10
514.68571751551747
20
164.99025581122345
10
509.68571751551764
20
156.33000177337917
10
514.68571751551747
20
147.66974773553483
0
LWPOLYLINE
5
130
100
AcDbEntity
8
0
100
AcDbPolyline
90
4
70
1
43
0.0
10
520.87866533140959
20
201.44892965359901
10
531.27880156323863
20
201.44892965359901
10
531.27880156323863
20
250.44892965359901
10
520.87866533140959
20
250.44892965359901
0
LWPOLYLINE
5
131
100
AcDbEntity
8
0
100
AcDbPolyline
90
6
70
1
43
0.0
10
477.72419328845115
20
146.33000177337922
10
472.72419328845115
20
154.99025581122356
10
462.72419328845132
20
154.99025581122342
10
457.72419328845132
20
146.33000177337917
10
462.72419328845132
20
137.66974773553497
10
472.72419328845132
20
137.66974773553497
0
LWPOLYLINE
5
132
100
AcDbEntity
8
0
100
AcDbPolyline
90
6
70
1
43
0.0
10
472.72419328845132
20
174.99025581122373
10
462.72419328845132
20
174.99025581122373
10
457.72419328845149
20
166.33000177337942
10
462.72419328845132
20
157.66974773553503
10
472.72419328845132
20
157.66974773553511
10
477.72419328845132
20
166.33000177337942
0
LWPOLYLINE
5
133
100
AcDbEntity
8
0
100
AcDbPolyline
90
6
70
1
43
0.0
10
507.36520943982885
20
174.99025581122373
10
497.36520943982896
20
174.99025581122373
10
492.36520943982896
20
166.33000177337942
10
497.36520943982896
20
157.66974773553503
10
507.36520943982885
20
157.66974773553511
10
512.36520943982885
20
166.33000177337942
0
LWPOLYLINE
5
134
100
AcDbEntity
8
0
100
AcDbPolyline
90
6
70
1
43
0.0
10
490.04470136413988
20
147.66974773553483
10
495.04470136413971
20
156.33000177337917
10
490.04470136413988
20
164.99025581122345
10
480.04470136414
20
164.99025581122345
10
475.04470136414
20
156.33000177337917
10
480.04470136414
20
147.66974773553483
0
LWPOLYLINE
5
135
100
AcDbEntity
8
0
100
AcDbPolyline
90
6
70
1
43
0.0
10
524.68571751551735
20
87.669747735535026
10
529.68571751551735
20
96.330001773379365
10
524.68571751551735
20
104.9902558112237
10
514.68571751551747
20
104.99025581122365
10
509.68571751551747
20
96.330001773379223
10
514.68571751551747
20
87.669747735535111
0
LWPOLYLINE
5
136
100
AcDbEntity
8
0
100
AcDbPolyline
90
32
70
1
43
0.0
10
384.87880156323865
20
17.448929653598952
10
384.87880156323877
20
264.74892965359902
42
-0.41421356237309503
10
387.87880156323877
20
267.74892965359902
10
410.87880156323877
20
267.74892965359908
10
410.87880156323877
20
264.74892965359908
10
440.87880156323877
20
264.74892965359908
10
440.87880156323877
20
267.74892965359902
10
504.2788015632388
20
267.74892965359902
10
504.2788015632388
20
264.74892965359908
10
534.27880156323886
20
264.74892965359902
10
534.27880156323886
20
267.74892965359896
10
552.27880156323886
20
267.74892965359891
42
-0.41421356237306733
10
555.27880156323874
20
264.74892965359902
10
555.27880156323886
20
238.44892965359907
42
-0.41421356237310542
10
552.27880156323874
20
235.44892965359907
10
542.27880156323874
20
235.44892965359892
10
542.27880156323874
20
195.44892965359892
10
545.27880156323874
20
195.44892965359892
10
545.27880156323874
20
214.44892965359898
10
552.27880156323886
20
214.44892965359881
42
-0.41421356237307771
10
555.27880156323874
20
211.44892965359887
10
555.27880156323863
20
98.448929653598924
42
-0.41421356237307422
10
552.27880156323874
20
95.448929653598952
10
542.27880156323874
20
95.448929653598952
10
542.27880156323863
20
55.44892965359896
10
545.27880156323874
20
55.44892965359896
10
545.27880156323874
20
74.448929653598952
10
552.27880156323874
20
74.448929653598952
42
-0.41421356237306817
10
555.27880156323874
20
71.448929653598896
10
555.27880156323863
20
17.448929653598881
42
-0.41421356237308854
10
552.27880156323863
20
14.44892965359891
10
387.87880156323871
20
14.44892965359907
42
-0.41421356237312101
0
ENDSEC
0
SECTION
2
OBJECTS
0
DICTIONARY
5
C
100
AcDbDictionary
3
ACAD_GROUP
350
D
3
ACAD_MLINESTYLE
350
17
0
DICTIONARY
5
D
100
AcDbDictionary
0
DICTIONARY
5
1A
330
C
100
AcDbDictionary
0
DICTIONARY
5
17
100
AcDbDictionary
0
ENDSEC
0
EOF
