0
SECTION
2
HEADER
9
$INSUNITS
70
4
9
$ACADVER
1
AC1014
9
$HANDSEED
5
FFFF
0
ENDSEC
0
SECTION
2
TABLES
0
TABLE
2
VPORT
5
8
100
AcDbSymbolTable
0
ENDTAB
0
TABLE
2
LTYPE
5
5
100
AcDbSymbolTable
0
LTYPE
5
14
100
AcDbSymbolTableRecord
100
AcDbLinetypeTableRecord
2
BYBLOCK
70
0
0
LTYPE
5
15
100
AcDbSymbolTableRecord
100
AcDbLinetypeTableRecord
2
BYLAYER
70
0
0
ENDTAB
0
TABLE
2
LAYER
5
2
100
AcDbSymbolTable
70
2
0
LAYER
5
50
100
AcDbSymbolTableRecord
100
AcDbLayerTableRecord
2
0
70
0
6
CONTINUOUS
0
ENDTAB
0
TABLE
2
STYLE
5
3
100
AcDbSymbolTable
70
1
0
STYLE
5
11
100
AcDbSymbolTableRecord
100
AcDbTextStyleTableRecord
2
STANDARD
70
0
0
ENDTAB
0
TABLE
2
VIEW
5
6
100
AcDbSymbolTable
70
0
0
ENDTAB
0
TABLE
2
UCS
5
7
100
AcDbSymbolTable
70
0
0
ENDTAB
0
TABLE
2
APPID
5
9
100
AcDbSymbolTable
70
2
0
APPID
5
12
100
AcDbSymbolTableRecord
100
AcDbRegAppTableRecord
2
ACAD
70
0
0
ENDTAB
0
TABLE
2
DIMSTYLE
5
A
100
AcDbSymbolTable
70
1
0
ENDTAB
0
TABLE
2
BLOCK_RECORD
5
1
100
AcDbSymbolTable
70
1
0
BLOCK_RECORD
5
1F
100
AcDbSymbolTableRecord
100
AcDbBlockTableRecord
2
*MODEL_SPACE
0
BLOCK_RECORD
5
1B
100
AcDbSymbolTableRecord
100
AcDbBlockTableRecord
2
*PAPER_SPACE
0
ENDTAB
0
ENDSEC
0
SECTION
2
BLOCKS
0
BLOCK
5
20
100
AcDbEntity
100
AcDbBlockBegin
2
*MODEL_SPACE
0
ENDBLK
5
21
100
AcDbEntity
100
AcDbBlockEnd
0
BLOCK
5
1C
100
AcDbEntity
100
AcDbBlockBegin
2
*PAPER_SPACE
0
ENDBLK
5
1D
100
AcDbEntity
100
AcDbBlockEnd
0
ENDSEC
0
SECTION
2
ENTITIES
0
LWPOLYLINE
5
100
100
AcDbEntity
8
0
100
AcDbPolyline
90
4
70
1
43
0.0
10
-493.17831117632801
20
-234.83675386452973
10
-509.08821375302517
20
-218.92685128783256
42
0.039290107007669925
10
-515.20282654432913
20
-226.08614302147703
10
-496.99994417089283
20
-239.31131119805781
42
-0.03929010700767064
0
LWPOLYLINE
5
101
100
AcDbEntity
8
0
100
AcDbPolyline
90
4
70
1
43
0.0
10
-400.66180688183232
20
-117.35325815902543
10
-397.66180688183226
20
-117.35325815902543
10
-397.66180688183226
20
-67.35325815902543
10
-400.66180688183232
20
-67.35325815902543
0
LWPOLYLINE
5
102
100
AcDbEntity
8
0
100
AcDbPolyline
90
4
70
1
43
0.0
10
-496.66180688183226
20
-24.353258159025369
10
-496.66180688183226
20
-21.353258159025366
10
-504.66180688183238
20
-21.353258159025362
10
-504.66180688183238
20
-24.353258159025366
0
LWPOLYLINE
5
103
100
AcDbEntity
8
0
100
AcDbPolyline
90
4
70
1
43
0.0
10
-504.66180688183238
20
-330.35325815902536
10
-504.66180688183238
20
-333.35325815902536
10
-496.66180688183226
20
-333.35325815902536
10
-496.66180688183226
20
-330.35325815902536
0
LWPOLYLINE
5
104
100
AcDbEntity
8
0
100
AcDbPolyline
90
16
70
1
43
0.0
10
-407.66180688183226
20
-75.103258159025472
42
-0.41421356237307771
10
-404.66180688183226
20
-78.103258159025472
10
-404.66180688183221
20
-94.853258159025415
42
-0.41421356237310025
10
-407.66180688183226
20
-97.853258159025501
10
-511.66180688183215
20
-97.853258159025401
42
-0.41421356237309159
10
-514.66180688183226
20
-94.853258159025401
42
0.41421356237309337
10
-520.66180688183226
20
-88.853258159025444
42
-0.41421356237310197
10
-523.66180688183238
20
-85.853258159025387
10
-523.66180688183226
20
-52.353258159025501
42
-0.41421356237309936
10
-520.66180688183226
20
-49.353258159025472
42
0.4142135623730942
10
-514.66180688183226
20
-43.353258159025437
42
-0.41421356237308815
10
-511.66180688183226
20
-40.35325815902543
10
-407.66180688183226
20
-40.353258159025465
42
-0.41421356237309159
10
-404.66180688183221
20
-43.353258159025472
10
-404.66180688183226
20
-60.103258159025408
42
-0.4142135623730942
10
-407.66180688183226
20
-63.103258159025408
42
0.99999999999999989
0
CIRCLE
5
105
100
AcDbEntity
8
0
100
AcDbCircle
10
-520.66180688183226
20
-94.853258159025359
30
0
40
1.7500000000000071
210
1.6421466378806445e-47
220
2.4651903288156619e-32
230
1
0
LWPOLYLINE
5
106
100
AcDbEntity
8
0
100
AcDbPolyline
90
4
70
1
43
0.0
10
-469.66180829744269
20
-330.35325815902547
10
-469.66180829744269
20
-333.35325815902542
10
-461.66180829744263
20
-333.35325815902542
10
-461.66180829744263
20
-330.35325815902547
0
CIRCLE
5
107
100
AcDbEntity
8
0
100
AcDbCircle
10
-407.66180688183221
20
-69.103258159025458
30
6.1257806641445614e-60
40
1.7500000000000071
210
1.6421466378806445e-47
220
2.4651903288156619e-32
230
1
0
CIRCLE
5
108
100
AcDbEntity
8
0
100
AcDbCircle
10
-520.66180688183226
20
-43.353258159025422
30
4.1053665947016125e-46
40
1.7500000000000071
210
1.6421466378806445e-47
220
2.4651903288156619e-32
230
1
0
LWPOLYLINE
5
109
100
AcDbEntity
8
0
100
AcDbPolyline
90
4
70
1
43
0.0
10
-542.06180688183213
20
-207.35325815902544
10
-542.06180688183224
20
-147.35325815902539
10
-545.06180688183235
20
-147.35325815902539
10
-545.06180688183224
20
-207.35325815902544
0
LWPOLYLINE
5
110
100
AcDbEntity
8
0
100
AcDbPolyline
90
4
70
1
43
0.0
10
-466.66180688183255
20
-216.35325815902542
42
-0.039290107007672083
10
-459.6222559550219
20
-216.90728283224411
10
-457.27573897941846
20
-202.09195772331714
42
0.039290107007670105
10
-466.66180688183215
20
-201.35325815902542
0
LWPOLYLINE
5
111
100
AcDbEntity
8
0
100
AcDbPolyline
90
4
70
1
43
0.0
10
-460.79551444282373
20
-298.39157093134287
10
-457.27573897941846
20
-320.61455859473369
42
0.039290107007668502
10
-448.12078721933551
20
-318.41664913673463
10
-455.07366959277181
20
-297.01787752009363
42
-0.039290107007668641
0
LWPOLYLINE
5
112
100
AcDbEntity
8
0
100
AcDbPolyline
90
4
70
1
43
0.0
10
-457.39129705058389
20
-289.8849536478802
42
-0.039290107007667746
10
-461.96877293062539
20
-290.98390837687953
10
-464.31528990622894
20
-276.16858326795233
42
0.039290107007667614
10
-462.0265519662081
20
-275.61910590345275
0
LWPOLYLINE
5
113
100
AcDbEntity
8
0
100
AcDbPolyline
90
4
70
1
43
0.0
10
-459.85194938573909
20
-247.98816029619985
10
-453.04209188964592
20
-234.6230624333744
42
0.039290107007671701
10
-457.39129705058389
20
-232.82156267017086
10
-462.0265519662081
20
-247.08741041459808
42
-0.039290107007672971
0
LWPOLYLINE
5
114
100
AcDbEntity
8
0
100
AcDbPolyline
90
4
70
1
43
0.0
10
-490.93231671308041
20
-243.71970059025134
42
-0.039290107007669529
10
-487.87501031742869
20
-240.14005472342902
10
-477.26840859963067
20
-250.746656441227
42
0.039290107007670279
10
-478.79706179745654
20
-252.53647937463828
0
LWPOLYLINE
5
115
100
AcDbEntity
8
0
100
AcDbPolyline
90
4
70
1
43
0.0
10
-418.1207872193354
20
-226.08614302147708
10
-436.32366959277186
20
-239.31131119805775
42
-0.039290107007670973
10
-433.24906222476869
20
-244.32861441879251
10
-413.20141543053023
20
-234.11382817465261
42
0.039290107007670459
0
LWPOLYLINE
5
116
100
AcDbEntity
8
0
100
AcDbPolyline
90
4
70
1
43
0.0
10
-400.66180688183232
20
-237.35325815902544
10
-400.66180688183232
20
-287.35325815902547
10
-397.66180688183232
20
-287.35325815902547
10
-397.66180688183232
20
-237.35325815902544
0
LWPOLYLINE
5
117
100
AcDbEntity
8
0
100
AcDbPolyline
90
4
70
1
43
0.0
10
-488.70375384280004
20
-231.01512086996485
10
-479.88697505841299
20
-243.15037578558903
42
-0.039290107007670862
10
-476.87659312597225
20
-241.30561136478687
10
-483.68645062206542
20
-227.94051350196162
42
0.039290107007669925
0
LWPOLYLINE
5
118
100
AcDbEntity
8
0
100
AcDbPolyline
90
4
70
1
43
0.0
10
-461.66180688183226
20
-24.353258159025369
10
-461.66180688183226
20
-21.353258159025373
10
-469.66180688183226
20
-21.353258159025373
10
-469.66180688183226
20
-24.353258159025376
0
LWPOLYLINE
5
119
100
AcDbEntity
8
0
100
AcDbPolyline
90
4
70
1
43
0.0
10
-446.2322343935528
20
-301.44855174750177
10
-439.42237689745951
20
-314.8136496103275
42
0.039290107007669391
10
-431.39469174428393
20
-309.89427782152234
10
-440.21147052867099
20
-297.75902290589801
42
-0.039290107007669085
0
LWPOLYLINE
5
120
100
AcDbEntity
8
0
100
AcDbPolyline
90
4
70
1
43
0.0
10
-395.66180688183226
20
-24.35325815902539
10
-395.66180688183226
20
-17.353258159025387
10
-400.66180688183226
20
-17.353258159025387
10
-400.66180688183226
20
-24.353258159025387
0
LWPOLYLINE
5
121
100
AcDbEntity
8
0
100
AcDbPolyline
90
4
70
1
43
0.0
10
-500.07455153889617
20
-278.37790189925846
10
-520.12219833313441
20
-288.59268814339822
42
0.039290107007668863
10
-515.20282654432913
20
-296.6203732965738
10
-496.99994417089272
20
-283.39520511999319
42
-0.039290107007668301
0
LWPOLYLINE
5
122
100
AcDbEntity
8
0
100
AcDbPolyline
90
4
70
1
43
0.0
10
-444.43881921844189
20
-257.83348269562032
10
-429.6234941095147
20
-255.48696572001683
42
0.039290107007670813
10
-430.9971875207641
20
-249.76512086996496
10
-445.26303526519138
20
-254.40037578558903
42
-0.039290107007673311
0
LWPOLYLINE
5
123
100
AcDbEntity
8
0
100
AcDbPolyline
90
4
70
1
43
0.0
10
-475.93231671308075
20
-289.88495364788002
10
-471.29706179745648
20
-275.61910590345258
42
-0.039290107007665082
10
-473.47166437792544
20
-274.71835602185081
10
-480.28152187401872
20
-288.08345388467649
42
0.03929010700766708
0
LWPOLYLINE
5
124
100
AcDbEntity
8
0
100
AcDbPolyline
90
4
70
1
43
0.0
10
-400.66180688183232
20
-330.35325815902536
10
-400.66180688183232
20
-337.35325815902536
10
-395.66180688183232
20
-337.35325815902536
10
-395.66180688183232
20
-330.35325815902536
0
LWPOLYLINE
5
125
100
AcDbEntity
8
0
100
AcDbPolyline
90
4
70
1
43
0.0
10
-523.72519785954148
20
-242.81223849652864
10
-509.45935011511432
20
-247.44749341215288
42
-0.039290107007670085
10
-506.75710047030913
20
-240.9236856707457
10
-520.12219833313429
20
-234.11382817465244
42
0.039290107007670633
0
LWPOLYLINE
5
126
100
AcDbEntity
8
0
100
AcDbPolyline
90
4
70
1
43
0.0
10
-479.88697505841287
20
-279.55614053246182
42
-0.039290107007667968
10
-482.57170945852971
20
-277.26316073572275
10
-493.17831117632784
20
-287.86976245352099
42
0.039290107007667614
10
-488.7037538428001
20
-291.69139544808593
0
LWPOLYLINE
5
127
100
AcDbEntity
8
0
100
AcDbPolyline
90
4
70
1
43
0.0
10
-409.5984159041231
20
-279.89427782152239
10
-423.86426364855038
20
-275.25902290589806
42
-0.03929010700767064
10
-426.56651329335602
20
-281.78283064730505
10
-413.20141543053018
20
-288.59268814339828
42
0.039290107007669391
0
LWPOLYLINE
5
128
100
AcDbEntity
8
0
100
AcDbPolyline
90
4
70
1
43
0.0
10
-453.29670901900693
20
-254.54340066293227
10
-439.93161115618136
20
-247.73354316683907
42
0.039290107007671521
10
-442.39129705058394
20
-243.71970059025128
10
-454.5265519662081
20
-252.53647937463839
42
-0.039290107007672194
0
LWPOLYLINE
5
129
100
AcDbEntity
8
0
100
AcDbPolyline
90
4
70
1
43
0.0
10
-448.1207872193354
20
-204.28986718131625
42
-0.039290107007670418
10
-439.42237689745946
20
-207.89286670772333
10
-449.63716314159922
20
-227.94051350196156
42
0.039290107007671521
10
-455.07366959277181
20
-225.6886387979572
0
LWPOLYLINE
5
130
100
AcDbEntity
8
0
100
AcDbPolyline
90
4
70
1
43
0.0
10
-493.11214323499365
20
-224.94749341215271
42
-0.03929010700767064
10
-487.09137937011201
20
-221.25796457054855
10
-493.90123686620512
20
-207.8928667077233
42
0.039290107007669925
10
-501.92892201938059
20
-212.81223849652858
0
LWPOLYLINE
5
131
100
AcDbEntity
8
0
100
AcDbPolyline
90
4
70
1
43
0.0
10
-503.70011965415011
20
-255.48696572001674
10
-525.9231073175406
20
-251.9671902566115
42
0.039290107007669217
10
-526.66180688183226
20
-261.35325815902542
10
-504.16180688183215
20
-261.35325815902553
42
-0.039290107007669418
0
LWPOLYLINE
5
132
100
AcDbEntity
8
0
100
AcDbPolyline
90
4
70
1
43
0.0
10
-488.06057849847321
20
-254.40037578558915
42
-0.039290107007669529
10
-486.70945367607078
20
-251.13847191488554
10
-500.07455153889612
20
-244.3286144187924
42
0.039290107007669217
10
-502.3264262429006
20
-249.76512086996485
0
LWPOLYLINE
5
133
100
AcDbEntity
8
0
100
AcDbPolyline
90
4
70
1
43
0.0
10
-480.02690474465788
20
-268.16311565511865
10
-493.39200260748333
20
-274.97297315121182
42
0.039290107007668502
10
-490.9323167130807
20
-278.98681572779969
10
-478.79706179745648
20
-270.17003694341253
42
-0.039290107007666414
0
LWPOLYLINE
5
134
100
AcDbEntity
8
0
100
AcDbPolyline
90
4
70
1
43
0.0
10
-485.20282654432918
20
-318.41664913673469
42
-0.039290107007668301
10
-493.90123686620512
20
-314.8136496103275
10
-483.68645062206531
20
-294.76600281608916
42
0.039290107007667788
10
-478.24994417089283
20
-297.01787752009369
0
LWPOLYLINE
5
135
100
AcDbEntity
8
0
100
AcDbPolyline
90
4
70
1
43
0.0
10
-431.39469174428382
20
-212.81223849652855
42
-0.039290107007670973
10
-424.23540001063941
20
-218.92685128783262
10
-434.84200172843765
20
-229.53345300563083
42
0.039290107007671875
10
-440.21147052867104
20
-224.94749341215271
0
LWPOLYLINE
5
136
100
AcDbEntity
8
0
100
AcDbPolyline
90
4
70
1
43
0.0
10
-493.11214323499371
20
-297.75902290589806
42
-0.03929010700766819
10
-498.48161203522704
20
-293.17306331242008
10
-509.08821375302523
20
-303.77966503021821
42
0.039290107007669391
10
-501.92892201938059
20
-309.89427782152228
0
LWPOLYLINE
5
137
100
AcDbEntity
8
0
100
AcDbPolyline
90
4
70
1
43
0.0
10
-502.3264262429006
20
-272.94139544808598
10
-488.06057849847326
20
-268.30614053246171
42
-0.03929010700766708
10
-488.88479454522303
20
-264.87303362243063
10
-503.70011965415006
20
-267.21955059803412
42
0.039290107007668502
0
LWPOLYLINE
5
138
100
AcDbEntity
8
0
100
AcDbPolyline
90
4
70
1
43
0.0
10
-450.75190430513499
20
-245.44335558232808
10
-440.1453025873368
20
-234.8367538645299
42
0.039290107007671701
10
-444.6198599208646
20
-231.01512086996493
10
-453.43663870525165
20
-243.15037578558915
42
-0.039290107007671306
0
LWPOLYLINE
5
139
100
AcDbEntity
8
0
100
AcDbPolyline
90
4
70
1
43
0.0
10
-469.00832385743581
20
-246.5379330500981
10
-471.3548408330393
20
-231.7226079411713
42
0.039290107007671347
10
-475.93231671308081
20
-232.82156267017081
10
-471.29706179745654
20
-247.08741041459803
42
-0.039290107007671528
0
LWPOLYLINE
5
140
100
AcDbEntity
8
0
100
AcDbPolyline
90
4
70
1
43
0.0
10
-456.44702063769267
20
-281.40090495326353
10
-449.63716314159933
20
-294.76600281608921
42
0.039290107007668322
10
-444.6198599208646
20
-291.69139544808604
10
-453.43663870525165
20
-279.55614053246177
42
-0.039290107007669418
0
CIRCLE
5
141
100
AcDbEntity
8
0
100
AcDbCircle
10
-519.16180688183249
20
-313.85325815902479
30
0
40
2.5
210
-0
220
0
230
1
0
LWPOLYLINE
5
142
100
AcDbEntity
8
0
100
AcDbPolyline
90
4
70
1
43
0.0
10
-442.39129705058383
20
-278.98681572779958
42
-0.039290107007669751
10
-445.44860344623606
20
-282.56646159462161
10
-456.05520516403408
20
-271.95985987682371
42
0.039290107007669571
10
-454.5265519662081
20
-270.17003694341253
0
LWPOLYLINE
5
143
100
AcDbEntity
8
0
100
AcDbPolyline
90
4
70
1
43
0.0
10
-466.66180688183226
20
-223.8532581590255
42
-0.03929010700767064
10
-460.79551444282367
20
-224.31494538670773
10
-463.14203141842705
20
-239.13027049563468
42
0.039290107007673658
10
-466.66180688183238
20
-238.85325815902542
0
CIRCLE
5
144
100
AcDbEntity
8
0
100
AcDbCircle
10
-414.1618068818326
20
-208.85325815902479
30
0
40
2.5
210
-0
220
0
230
1
0
LWPOLYLINE
5
145
100
AcDbEntity
8
0
100
AcDbPolyline
90
4
70
1
43
0.0
10
-481.47713199075957
20
-259.00674118342187
10
-496.29245709968637
20
-256.66022420781849
42
0.039290107007668863
10
-496.66180688183226
20
-261.35325815902542
10
-481.66180688183232
20
-261.35325815902542
42
-0.03929010700766819
0
CIRCLE
5
146
100
AcDbEntity
8
0
100
AcDbCircle
10
-414.1618068818326
20
-313.85325815902479
30
0
40
2.5
210
-0
220
0
230
1
0
CIRCLE
5
147
100
AcDbEntity
8
0
100
AcDbCircle
10
-519.16180688183249
20
-208.85325815902476
30
0
40
2.5
210
-0
220
0
230
1
0
LWPOLYLINE
5
148
100
AcDbEntity
8
0
100
AcDbPolyline
90
4
70
1
43
0.0
10
-451.84648177290546
20
-263.69977513462891
10
-437.03115666397821
20
-266.0462921102324
42
0.039290107007671167
10
-436.66180688183232
20
-261.35325815902542
10
-451.66180688183226
20
-261.35325815902542
42
-0.039290107007673089
0
LWPOLYLINE
5
149
100
AcDbEntity
8
0
100
AcDbPolyline
90
4
70
1
43
0.0
10
-466.66180688183232
20
-298.85325815902542
10
-466.66180688183226
20
-283.85325815902542
42
-0.039290107007667413
10
-470.18158234523747
20
-283.5762458224159
10
-472.52809932084097
20
-298.3915709313431
42
0.039290107007668142
0
LWPOLYLINE
5
150
100
AcDbEntity
8
0
100
AcDbPolyline
90
4
70
1
43
0.0
10
-478.24994417089306
20
-225.68863879795714
42
-0.039290107007672083
10
-472.52809932084097
20
-224.31494538670748
10
-476.04787478424623
20
-202.09195772331719
42
0.039290107007670279
10
-485.20282654432918
20
-204.2898671813162
0
LWPOLYLINE
5
151
100
AcDbEntity
8
0
100
AcDbPolyline
90
4
70
1
43
0.0
10
-430.99718752076387
20
-272.94139544808604
42
-0.039290107007669751
10
-433.24906222476852
20
-278.3779018992584
10
-446.61416008759426
20
-271.56804440316512
42
0.039290107007669751
10
-445.26303526519138
20
-268.30614053246177
0
LWPOLYLINE
5
152
100
AcDbEntity
8
0
100
AcDbPolyline
90
4
70
1
43
0.0
10
-511.10778220861368
20
-268.39280908583589
10
-525.9231073175406
20
-270.73932606143933
42
0.039290107007668683
10
-523.72519785954159
20
-279.89427782152228
10
-509.45935011511426
20
-275.25902290589801
42
-0.039290107007667968
0
LWPOLYLINE
5
153
100
AcDbEntity
8
0
100
AcDbPolyline
90
4
70
1
43
0.0
10
-418.12078721933545
20
-296.62037329657386
10
-436.32366959277158
20
-283.39520511999342
42
-0.039290107007668863
10
-440.14530258733669
20
-287.86976245352099
10
-424.23540001063969
20
-303.77966503021815
42
0.039290107007669751
0
LWPOLYLINE
5
154
100
AcDbEntity
8
0
100
AcDbPolyline
90
4
70
1
43
0.0
10
-473.70135780864268
20
-305.79923348580644
10
-476.04787478424618
20
-320.61455859473364
42
0.039290107007668863
10
-466.66180688183232
20
-321.35325815902542
10
-466.66180688183238
20
-306.35325815902536
42
-0.039290107007667635
0
LWPOLYLINE
5
155
100
AcDbEntity
8
0
100
AcDbPolyline
90
4
70
1
43
0.0
10
-409.59841590412287
20
-242.81223849652858
42
-0.039290107007670307
10
-407.40050644612404
20
-251.96719025661162
10
-422.21583155505124
20
-254.31370723221508
42
0.039290107007670633
10
-423.86426364855032
20
-247.4474934121528
0
LWPOLYLINE
5
156
100
AcDbEntity
8
0
100
AcDbPolyline
90
4
70
1
43
0.0
10
-406.66180688183232
20
-261.35325815902547
10
-429.16180688183232
20
-261.35325815902547
42
-0.039290107007670418
10
-429.62349410951492
20
-267.21955059803412
10
-407.40050644612404
20
-270.73932606143927
42
0.039290107007669925
0
LWPOLYLINE
5
157
100
AcDbEntity
8
0
100
AcDbPolyline
90
46
70
1
43
0.0
10
-490.66180688183232
20
-27.353258159025373
10
-475.66180688183226
20
-27.353258159025373
10
-475.66180688183232
20
-15.353258159025415
42
-0.41421356237309681
10
-472.66180688183226
20
-12.353258159025373
10
-458.66180688183226
20
-12.353258159025327
42
-0.41421356237311352
10
-455.66180688183226
20
-15.353258159025415
10
-455.66180688183226
20
-27.353258159025376
10
-410.66180688183226
20
-27.353258159025387
10
-410.66180688183226
20
-15.353258159025426
42
-0.4142135623730866
10
-407.66180688183226
20
-12.353258159025389
10
-393.66180688183226
20
-12.353258159025351
42
-0.41421356237311302
10
-390.66180688183226
20
-15.353258159025437
10
-390.66180688183226
20
-27.353258159025394
10
-384.66180688183226
20
-27.353258159025398
10
-384.66180688183226
20
-144.35325815902542
42
-0.41421356237309503
10
-387.66180688183226
20
-147.35325815902544
10
-400.66180688183232
20
-147.35325815902544
10
-400.66180688183232
20
-207.35325815902544
10
-387.66180688183226
20
-207.35325815902547
42
-0.41421356237309503
10
-384.66180688183226
20
-210.35325815902547
10
-384.66180712025096
20
-327.35325815902547
10
-390.66180712025096
20
-327.35325815902547
10
-390.66180712025096
20
-339.35325815902536
42
-0.41421356237308116
10
-393.6618071202509
20
-342.35325815902536
10
-407.66180688183232
20
-342.35325815902536
42
-0.41421356237315055
10
-410.66180688183232
20
-339.35325815902536
10
-410.66180688183232
20
-327.35325815902547
10
-455.66180688183232
20
-327.35325815902547
10
-455.66180688183232
20
-339.35325815902547
42
-0.41421356237308116
10
-458.66180688183238
20
-342.35325815902547
10
-472.66180688183232
20
-342.35325815902542
42
-0.41421356237308116
10
-475.66180688183232
20
-339.35325815902547
10
-475.66180688183232
20
-327.35325815902547
10
-490.66180688183232
20
-327.35325815902542
10
-490.66180688183238
20
-339.35325815902536
42
-0.41421356237310897
10
-493.66180688183243
20
-342.35325815902542
10
-507.66180688183232
20
-342.35325815902536
42
-0.41421356237308116
10
-510.66180688183232
20
-339.35325815902536
10
-510.66180688183232
20
-327.35325815902542
10
-554.06180688183235
20
-327.35325815902547
10
-554.06180688183224
20
-27.353258159025351
10
-510.66180688183232
20
-27.353258159025366
10
-510.66180688183232
20
-15.353258159025405
42
-0.41421356237310392
10
-507.66180688183221
20
-12.353258159025366
10
-493.66180688183226
20
-12.353258159025486
42
-0.41421356237310458
10
-490.66180688183232
20
-15.353258159025414
0
ENDSEC
0
SECTION
2
OBJECTS
0
DICTIONARY
5
C
100
AcDbDictionary
3
ACAD_GROUP
350
D
3
ACAD_MLINESTYLE
350
17
0
DICTIONARY
5
D
100
AcDbDictionary
0
DICTIONARY
5
1A
330
C
100
AcDbDictionary
0
DICTIONARY
5
17
100
AcDbDictionary
0
ENDSEC
0
EOF
