0
SECTION
2
HEADER
9
$INSUNITS
70
4
9
$ACADVER
1
AC1014
9
$HANDSEED
5
FFFF
0
ENDSEC
0
SECTION
2
TABLES
0
TABLE
2
VPORT
5
8
100
AcDbSymbolTable
0
ENDTAB
0
TABLE
2
LTYPE
5
5
100
AcDbSymbolTable
0
LTYPE
5
14
100
AcDbSymbolTableRecord
100
AcDbLinetypeTableRecord
2
BYBLOCK
70
0
0
LTYPE
5
15
100
AcDbSymbolTableRecord
100
AcDbLinetypeTableRecord
2
BYLAYER
70
0
0
ENDTAB
0
TABLE
2
LAYER
5
2
100
AcDbSymbolTable
70
2
0
LAYER
5
50
100
AcDbSymbolTableRecord
100
AcDbLayerTableRecord
2
0
70
0
6
CONTINUOUS
0
ENDTAB
0
TABLE
2
STYLE
5
3
100
AcDbSymbolTable
70
1
0
STYLE
5
11
100
AcDbSymbolTableRecord
100
AcDbTextStyleTableRecord
2
STANDARD
70
0
0
ENDTAB
0
TABLE
2
VIEW
5
6
100
AcDbSymbolTable
70
0
0
ENDTAB
0
TABLE
2
UCS
5
7
100
AcDbSymbolTable
70
0
0
ENDTAB
0
TABLE
2
APPID
5
9
100
AcDbSymbolTable
70
2
0
APPID
5
12
100
AcDbSymbolTableRecord
100
AcDbRegAppTableRecord
2
ACAD
70
0
0
ENDTAB
0
TABLE
2
DIMSTYLE
5
A
100
AcDbSymbolTable
70
1
0
ENDTAB
0
TABLE
2
BLOCK_RECORD
5
1
100
AcDbSymbolTable
70
1
0
BLOCK_RECORD
5
1F
100
AcDbSymbolTableRecord
100
AcDbBlockTableRecord
2
*MODEL_SPACE
0
BLOCK_RECORD
5
1B
100
AcDbSymbolTableRecord
100
AcDbBlockTableRecord
2
*PAPER_SPACE
0
ENDTAB
0
ENDSEC
0
SECTION
2
BLOCKS
0
BLOCK
5
20
100
AcDbEntity
100
AcDbBlockBegin
2
*MODEL_SPACE
0
ENDBLK
5
21
100
AcDbEntity
100
AcDbBlockEnd
0
BLOCK
5
1C
100
AcDbEntity
100
AcDbBlockBegin
2
*PAPER_SPACE
0
ENDBLK
5
1D
100
AcDbEntity
100
AcDbBlockEnd
0
ENDSEC
0
SECTION
2
ENTITIES
0
LWPOLYLINE
5
100
100
AcDbEntity
8
0
100
AcDbPolyline
90
4
70
1
43
0.0
10
-465.80960334540077
20
54.589067154970856
10
-501.8096033454006
20
54.589067154970856
10
-501.8096033454006
20
51.58906715497082
10
-465.80960334540077
20
51.58906715497082
0
CIRCLE
5
101
100
AcDbEntity
8
0
100
AcDbCircle
10
-465.80960334540077
20
192.88906715497021
30
0
40
9.5000000000000284
210
-0
220
0
230
1
0
LWPOLYLINE
5
102
100
AcDbEntity
8
0
100
AcDbPolyline
90
4
70
1
43
0.0
10
-410.10960334540107
20
156.88906715497035
10
-413.10960334540107
20
156.88906715497035
10
-413.10960334540107
20
72.889067154970874
10
-410.10960334540107
20
72.889067154970888
0
LWPOLYLINE
5
103
100
AcDbEntity
8
0
100
AcDbPolyline
90
4
70
1
43
0.0
10
-395.10960334540118
20
205.58906715497017
10
-392.10960334540118
20
205.58906715497017
10
-392.10960334540118
20
261.58906715496994
10
-395.10960334540118
20
261.58906715496994
0
LWPOLYLINE
5
104
100
AcDbEntity
8
0
100
AcDbPolyline
90
4
70
1
43
0.0
10
-485.10960334540073
20
36.589067154970984
10
-505.10960334540061
20
36.589067154970984
10
-505.10960334540061
20
33.589067154970856
10
-485.10960334540073
20
33.589067154970856
0
LWPOLYLINE
5
105
100
AcDbEntity
8
0
100
AcDbPolyline
90
4
70
1
43
0.0
10
-450.10960334540084
20
36.589067154970984
10
-470.10960334540079
20
36.589067154970984
10
-470.10960334540079
20
33.589067154970856
10
-450.10960334540084
20
33.589067154970856
0
LWPOLYLINE
5
106
100
AcDbEntity
8
0
100
AcDbPolyline
90
4
70
1
43
0.0
10
-417.80960334540106
20
51.58906715497082
10
-417.80960334540106
20
54.589067154970856
10
-453.80960334540083
20
54.589067154970856
10
-453.80960334540083
20
51.58906715497082
0
LWPOLYLINE
5
107
100
AcDbEntity
8
0
100
AcDbPolyline
90
4
70
1
43
0.0
10
-410.10960334540107
20
168.88906715497029
10
-410.10960334540107
20
240.88906715496995
10
-413.10960334540107
20
240.88906715496995
10
-413.10960334540107
20
168.88906715497029
0
LWPOLYLINE
5
108
100
AcDbEntity
8
0
100
AcDbPolyline
90
4
70
1
43
0.0
10
-395.10960334540118
20
151.58906715497037
10
-395.10960334540118
20
125.58906715497045
10
-392.10960334540118
20
125.58906715497045
10
-392.10960334540118
20
151.58906715497037
0
LWPOLYLINE
5
109
100
AcDbEntity
8
0
100
AcDbPolyline
90
4
70
1
43
0.0
10
-465.80960334540077
20
246.88906715496989
10
-465.80960334540077
20
243.88906715496995
10
-429.80960334540094
20
243.88906715496995
10
-429.80960334540094
20
246.88906715496989
0
LWPOLYLINE
5
110
100
AcDbEntity
8
0
100
AcDbPolyline
90
9
70
1
43
0.0
10
-385.10960334540118
20
36.589067154970984
10
-390.10960327089538
20
36.589067154970984
10
-392.10960327089538
20
36.589067149239767
10
-392.10960334540118
20
62.589067149239455
10
-395.10960334540118
20
62.589067154970664
10
-395.10960334540118
20
36.589067154970984
10
-405.10960334540107
20
36.589067154970984
10
-405.10960334540107
20
33.589067154970856
10
-385.10960334540118
20
33.589067154970856
0
LWPOLYLINE
5
111
100
AcDbEntity
8
0
100
AcDbPolyline
90
4
70
1
43
0.0
10
-518.50960334540048
20
156.88906715497035
10
-518.50960334540048
20
228.88906715496995
10
-521.50960334540059
20
228.88906715496987
10
-521.50960334540059
20
156.88906715497026
0
LWPOLYLINE
5
112
100
AcDbEntity
8
0
100
AcDbPolyline
90
4
70
1
43
0.0
10
-477.80960334540077
20
246.88906715496989
10
-513.80960334540055
20
246.88906715496989
10
-513.80960334540055
20
243.88906715496987
10
-477.80960334540077
20
243.88906715496995
0
LWPOLYLINE
5
113
100
AcDbEntity
8
0
100
AcDbPolyline
90
4
70
1
43
0.0
10
-521.50960334540059
20
60.889067154970803
10
-518.50960334540048
20
60.889067154970874
10
-518.50960334540048
20
144.88906715497041
10
-521.50960334540059
20
144.88906715497035
0
LWPOLYLINE
5
114
100
AcDbEntity
8
0
100
AcDbPolyline
90
32
70
1
43
0.0
10
-549.50960334540059
20
263.88906715496972
42
-0.41421356237309853
10
-546.50960334540059
20
266.88906715496972
10
-528.50960334540048
20
266.88906715496967
10
-528.50960334540048
20
263.88906715496978
10
-498.50960334540076
20
263.88906715496989
10
-498.50960334540076
20
266.88906715496978
10
-435.10960334540096
20
266.88906715496984
10
-435.10960334540096
20
263.88906715496989
10
-405.10960334540107
20
263.88906715496989
10
-405.10960334540107
20
266.88906715496984
10
-382.10960334540118
20
266.88906715496978
42
-0.41421356237309503
10
-379.10960334540118
20
263.88906715496984
10
-379.10960334540113
20
16.589067154970884
42
-0.41421356237310136
10
-382.10960334540118
20
13.589067154970911
10
-546.50960334540048
20
13.589067154970962
42
-0.41421356237309959
10
-549.50960334540036
20
16.58906715497098
10
-549.50960334540036
20
70.589067154970721
42
-0.41421356237310025
10
-546.50960334540048
20
73.589067154970721
10
-539.50960334540036
20
73.589067154970721
10
-539.50960334540036
20
54.589067154970785
10
-536.50960334540048
20
54.589067154970785
10
-536.50960334540048
20
94.589067154970635
10
-546.50960334540048
20
94.589067154970621
42
-0.41421356237310025
10
-549.50960334540036
20
97.589067154970635
10
-549.50960334540036
20
210.58906715497002
42
-0.41421356237309853
10
-546.50960334540048
20
213.58906715497002
10
-539.50960334540036
20
213.58906715497002
10
-539.50960334540036
20
194.58906715497
10
-536.50960334540048
20
194.58906715497
10
-536.50960334540048
20
234.58906715496988
10
-546.50960334540048
20
234.58906715496983
42
-0.41421356237310197
10
-549.50960334540036
20
237.58906715496988
0
ENDSEC
0
SECTION
2
OBJECTS
0
DICTIONARY
5
C
100
AcDbDictionary
3
ACAD_GROUP
350
D
3
ACAD_MLINESTYLE
350
17
0
DICTIONARY
5
D
100
AcDbDictionary
0
DICTIONARY
5
1A
330
C
100
AcDbDictionary
0
DICTIONARY
5
17
100
AcDbDictionary
0
ENDSEC
0
EOF
