0
SECTION
2
HEADER
9
$INSUNITS
70
4
9
$ACADVER
1
AC1014
9
$HANDSEED
5
FFFF
0
ENDSEC
0
SECTION
2
TABLES
0
TABLE
2
VPORT
5
8
100
AcDbSymbolTable
0
ENDTAB
0
TABLE
2
LTYPE
5
5
100
AcDbSymbolTable
0
LTYPE
5
14
100
AcDbSymbolTableRecord
100
AcDbLinetypeTableRecord
2
BYBLOCK
70
0
0
LTYPE
5
15
100
AcDbSymbolTableRecord
100
AcDbLinetypeTableRecord
2
BYLAYER
70
0
0
ENDTAB
0
TABLE
2
LAYER
5
2
100
AcDbSymbolTable
70
2
0
LAYER
5
50
100
AcDbSymbolTableRecord
100
AcDbLayerTableRecord
2
0
70
0
6
CONTINUOUS
0
ENDTAB
0
TABLE
2
STYLE
5
3
100
AcDbSymbolTable
70
1
0
STYLE
5
11
100
AcDbSymbolTableRecord
100
AcDbTextStyleTableRecord
2
STANDARD
70
0
0
ENDTAB
0
TABLE
2
VIEW
5
6
100
AcDbSymbolTable
70
0
0
ENDTAB
0
TABLE
2
UCS
5
7
100
AcDbSymbolTable
70
0
0
ENDTAB
0
TABLE
2
APPID
5
9
100
AcDbSymbolTable
70
2
0
APPID
5
12
100
AcDbSymbolTableRecord
100
AcDbRegAppTableRecord
2
ACAD
70
0
0
ENDTAB
0
TABLE
2
DIMSTYLE
5
A
100
AcDbSymbolTable
70
1
0
ENDTAB
0
TABLE
2
BLOCK_RECORD
5
1
100
AcDbSymbolTable
70
1
0
BLOCK_RECORD
5
1F
100
AcDbSymbolTableRecord
100
AcDbBlockTableRecord
2
*MODEL_SPACE
0
BLOCK_RECORD
5
1B
100
AcDbSymbolTableRecord
100
AcDbBlockTableRecord
2
*PAPER_SPACE
0
ENDTAB
0
ENDSEC
0
SECTION
2
BLOCKS
0
BLOCK
5
20
100
AcDbEntity
100
AcDbBlockBegin
2
*MODEL_SPACE
0
ENDBLK
5
21
100
AcDbEntity
100
AcDbBlockEnd
0
BLOCK
5
1C
100
AcDbEntity
100
AcDbBlockBegin
2
*PAPER_SPACE
0
ENDBLK
5
1D
100
AcDbEntity
100
AcDbBlockEnd
0
ENDSEC
0
SECTION
2
ENTITIES
0
LWPOLYLINE
5
100
100
AcDbEntity
8
0
100
AcDbPolyline
90
50
70
1
43
0.0
10
-297.36619635644701
20
266.60801257210994
10
-192.36619635644715
20
266.60801257210994
10
-192.36619635644715
20
263.60801257210994
10
-162.36619635644729
20
263.60801257210994
10
-162.36619635644729
20
266.60801257210994
10
-57.366196356447446
20
266.60801257210977
10
-57.366196356447446
20
263.60801257210983
10
-27.36619635644745
20
263.60801257210983
10
-27.36619635644745
20
215.60801257210983
10
-20.366196356447421
20
215.60801257210983
42
-0.41421356237309503
10
-17.366196356447446
20
212.60801257210986
10
-17.36619635644745
20
178.60801257210994
42
-0.41421356237310197
10
-20.366196356447421
20
175.60801257210989
10
-24.366196356447478
20
175.60801257210989
10
-24.366196356447478
20
196.60801257210991
10
-27.36619635644745
20
196.60801257210991
10
-27.366196356447592
20
75.608012572110113
10
-20.366196356447563
20
75.608012572110113
42
-0.41421356237309503
10
-17.366196356447588
20
72.608012572110141
10
-17.36619635644745
20
38.608012572110155
42
-0.41421356237310897
10
-20.366196356447563
20
35.608012572110184
10
-24.36619635644762
20
35.608012572110184
10
-24.366196356447478
20
56.608012572110162
10
-27.36619635644745
20
56.608012572110162
10
-27.366196356447592
20
38.608012572110155
10
-147.36619635644738
20
38.608012572110191
10
-147.36619635644732
20
31.608012572110162
42
-0.41421356237308637
10
-150.36619635644735
20
28.608012572110191
10
-204.36619635644732
20
28.608012572110262
42
-0.41421356237308815
10
-207.36619635644729
20
31.608012572110162
10
-207.36619635644715
20
38.608012572110226
10
-327.36619635644701
20
38.608012572110226
10
-327.36619635644701
20
56.608012572110198
10
-330.36619635644695
20
56.608012572110198
10
-330.36619635644695
20
35.608012572110255
10
-334.36619635644718
20
35.60801257211029
42
-0.41421356237315404
10
-337.36619635644706
20
38.608012572110226
10
-337.36619635644706
20
72.608012572110283
42
-0.41421356237310197
10
-334.36619635644718
20
75.608012572110255
10
-327.36619635644695
20
75.608012572110255
10
-327.36619635644695
20
196.60801257211006
10
-330.36619635644689
20
196.60801257211006
10
-330.36619635644689
20
175.60801257211011
10
-334.36619635644706
20
175.60801257211017
42
-0.41421356237315055
10
-337.36619635644695
20
178.60801257211008
10
-337.36619635644706
20
212.60801257211
42
-0.41421356237309503
10
-334.36619635644718
20
215.60801257211006
10
-327.36619635644695
20
215.60801257211006
10
-327.36619635644695
20
263.60801257210994
10
-297.36619635644701
20
263.60801257210994
0
LWPOLYLINE
5
101
100
AcDbEntity
8
0
100
AcDbPolyline
90
6
70
1
43
0.0
10
-181.51473834416507
20
210.60801257210997
10
-176.51473834416507
20
201.94775853426563
10
-166.51473834416507
20
201.94775853426563
10
-161.51473834416521
20
210.60801257210997
10
-166.51473834416521
20
219.26826660995437
10
-176.51473834416507
20
219.26826660995437
0
LWPOLYLINE
5
102
100
AcDbEntity
8
0
100
AcDbPolyline
90
6
70
1
43
0.0
10
-72.591689890032868
20
81.947758534265773
10
-62.591689890032868
20
81.947758534265773
10
-57.591689890032868
20
90.608012572110113
10
-62.591689890032868
20
99.268266609954452
10
-72.591689890032868
20
99.268266609954452
10
-77.591689890032868
20
90.608012572110113
0
LWPOLYLINE
5
103
100
AcDbEntity
8
0
100
AcDbPolyline
90
6
70
1
43
0.0
10
-124.5532141170989
20
209.26826660995425
10
-129.55321411709892
20
200.60801257210997
10
-124.55321411709905
20
191.94775853426563
10
-114.55321411709905
20
191.94775853426563
10
-109.55321411709905
20
200.60801257210997
10
-114.55321411709905
20
209.26826660995425
0
LWPOLYLINE
5
104
100
AcDbEntity
8
0
100
AcDbPolyline
90
6
70
1
43
0.0
10
-62.591689890032725
20
161.94775853426557
10
-57.591689890032725
20
170.60801257210989
10
-62.591689890032725
20
179.26826660995431
10
-72.591689890032868
20
179.26826660995431
10
-77.591689890032868
20
170.60801257210989
10
-72.591689890032868
20
161.94775853426557
0
LWPOLYLINE
5
105
100
AcDbEntity
8
0
100
AcDbPolyline
90
6
70
1
43
0.0
10
-131.87372219278788
20
81.947758534265844
10
-126.87372219278787
20
90.608012572110184
10
-131.87372219278788
20
99.268266609954523
10
-141.87372219278788
20
99.268266609954523
10
-146.8737221927878
20
90.608012572110184
10
-141.8737221927878
20
81.947758534265844
0
LWPOLYLINE
5
106
100
AcDbEntity
8
0
100
AcDbPolyline
90
6
70
1
43
0.0
10
-107.23270604141022
20
159.26826660995431
10
-112.2327060414103
20
150.60801257211006
10
-107.2327060414103
20
141.94775853426577
10
-97.232706041410296
20
141.94775853426569
10
-92.232706041410438
20
150.60801257210997
10
-97.232706041410296
20
159.26826660995425
0
LWPOLYLINE
5
107
100
AcDbEntity
8
0
100
AcDbPolyline
90
6
70
1
43
0.0
10
-79.912197965721688
20
209.26826660995417
10
-89.912197965721688
20
209.26826660995417
10
-94.912197965721617
20
200.60801257210989
10
-89.912197965721688
20
191.94775853426557
10
-79.912197965721688
20
191.94775853426557
10
-74.912197965721688
20
200.60801257210989
0
LWPOLYLINE
5
108
100
AcDbEntity
8
0
100
AcDbPolyline
90
6
70
1
43
0.0
10
-107.23270604141022
20
219.26826660995431
10
-112.2327060414103
20
210.60801257210989
10
-107.2327060414103
20
201.94775853426563
10
-97.232706041410438
20
201.94775853426557
10
-92.232706041410438
20
210.60801257210983
10
-97.232706041410438
20
219.26826660995425
0
LWPOLYLINE
5
109
100
AcDbEntity
8
0
100
AcDbPolyline
90
6
70
1
43
0.0
10
-97.232706041410438
20
99.268266609954381
10
-107.23270604141037
20
99.268266609954523
10
-112.23270604141037
20
90.608012572110184
10
-107.23270604141037
20
81.947758534265844
10
-97.232706041410438
20
81.947758534265773
10
-92.23270604141058
20
90.608012572110042
0
LWPOLYLINE
5
110
100
AcDbEntity
8
0
100
AcDbPolyline
90
6
70
1
43
0.0
10
-141.87372219278765
20
161.94775853426563
10
-131.87372219278765
20
161.94775853426563
10
-126.87372219278765
20
170.60801257210997
10
-131.87372219278765
20
179.26826660995437
10
-141.87372219278765
20
179.26826660995437
10
-146.87372219278765
20
170.60801257211006
0
LWPOLYLINE
5
111
100
AcDbEntity
8
0
100
AcDbPolyline
90
6
70
1
43
0.0
10
-159.19423026847656
20
131.94775853426577
10
-149.19423026847656
20
131.94775853426577
10
-144.19423026847647
20
140.60801257211011
10
-149.19423026847656
20
149.26826660995437
10
-159.19423026847639
20
149.26826660995437
10
-164.19423026847653
20
140.60801257211017
0
LWPOLYLINE
5
112
100
AcDbEntity
8
0
100
AcDbPolyline
90
6
70
1
43
0.0
10
-94.912197965721759
20
80.608012572110113
10
-89.91219796572183
20
71.947758534265773
10
-79.91219796572183
20
71.947758534265773
10
-74.91219796572183
20
80.608012572110042
10
-79.91219796572183
20
89.268266609954452
10
-89.91219796572183
20
89.268266609954452
0
LWPOLYLINE
5
113
100
AcDbEntity
8
0
100
AcDbPolyline
90
6
70
1
43
0.0
10
-92.232706041410438
20
170.60801257210989
10
-97.232706041410438
20
179.26826660995425
10
-107.23270604141022
20
179.26826660995431
10
-112.2327060414103
20
170.60801257210997
10
-107.2327060414103
20
161.94775853426563
10
-97.232706041410296
20
161.94775853426557
0
LWPOLYLINE
5
114
100
AcDbEntity
8
0
100
AcDbPolyline
90
6
70
1
43
0.0
10
-57.591689890032868
20
130.60801257211006
10
-62.591689890032725
20
139.26826660995445
10
-72.591689890032868
20
139.26826660995445
10
-77.591689890032868
20
130.60801257211006
10
-72.591689890032868
20
121.9477585342657
10
-62.591689890032868
20
121.9477585342657
0
LWPOLYLINE
5
115
100
AcDbEntity
8
0
100
AcDbPolyline
90
6
70
1
43
0.0
10
-79.912197965721688
20
229.26826660995425
10
-89.912197965721688
20
229.26826660995425
10
-94.912197965721617
20
220.60801257210983
10
-89.912197965721688
20
211.94775853426549
10
-79.912197965721688
20
211.94775853426549
10
-74.912197965721688
20
220.60801257210983
0
LWPOLYLINE
5
116
100
AcDbEntity
8
0
100
AcDbPolyline
90
6
70
1
43
0.0
10
-55.271181814344047
20
129.26826660995445
10
-60.271181814344047
20
120.60801257211004
10
-55.271181814344047
20
111.9477585342657
10
-45.271181814344189
20
111.9477585342657
10
-40.271181814344189
20
120.60801257211004
10
-45.271181814344189
20
129.26826660995445
0
LWPOLYLINE
5
117
100
AcDbEntity
8
0
100
AcDbPolyline
90
6
70
1
43
0.0
10
-129.55321411709906
20
100.60801257211018
10
-124.55321411709905
20
91.947758534265844
10
-114.55321411709912
20
91.947758534265844
10
-109.55321411709912
20
100.60801257211018
10
-114.55321411709912
20
109.26826660995452
10
-124.55321411709905
20
109.26826660995452
0
LWPOLYLINE
5
118
100
AcDbEntity
8
0
100
AcDbPolyline
90
6
70
1
43
0.0
10
-112.23270604141037
20
130.60801257211017
10
-107.23270604141037
20
121.94775853426577
10
-97.232706041410438
20
121.9477585342657
10
-92.23270604141058
20
130.60801257211006
10
-97.232706041410296
20
139.26826660995437
10
-107.2327060414103
20
139.26826660995454
0
LWPOLYLINE
5
119
100
AcDbEntity
8
0
100
AcDbPolyline
90
6
70
1
43
0.0
10
-216.15575449554285
20
110.60801257211018
10
-211.15575449554285
20
101.94775853426577
10
-201.15575449554285
20
101.94775853426577
10
-196.15575449554285
20
110.60801257211018
10
-201.15575449554285
20
119.26826660995459
10
-211.15575449554285
20
119.26826660995459
0
LWPOLYLINE
5
120
100
AcDbEntity
8
0
100
AcDbPolyline
90
6
70
1
43
0.0
10
-146.87372219278774
20
130.60801257211017
10
-141.87372219278774
20
121.94775853426577
10
-131.8737221927878
20
121.94775853426577
10
-126.8737221927878
20
130.60801257211017
10
-131.87372219278774
20
139.26826660995445
10
-141.87372219278765
20
139.26826660995445
0
LWPOLYLINE
5
121
100
AcDbEntity
8
0
100
AcDbPolyline
90
6
70
1
43
0.0
10
-250.79677064692092
20
130.60801257211017
10
-245.79677064692106
20
121.94775853426577
10
-235.79677064692092
20
121.94775853426577
10
-230.79677064692092
20
130.60801257211017
10
-235.79677064692092
20
139.26826660995459
10
-245.79677064692092
20
139.26826660995474
0
LWPOLYLINE
5
122
100
AcDbEntity
8
0
100
AcDbPolyline
90
6
70
1
43
0.0
10
-230.79677064692163
20
110.60801257211011
10
-235.79677064692106
20
119.26826660995346
10
-245.79677064691992
20
119.26826660995346
10
-250.79677064691921
20
110.60801257211011
10
-245.79677064691978
20
101.9477585342667
10
-235.79677064692106
20
101.9477585342667
0
LWPOLYLINE
5
123
100
AcDbEntity
8
0
100
AcDbPolyline
90
6
70
1
43
0.0
10
-94.912197965721759
20
100.60801257211011
10
-89.91219796572183
20
91.947758534265773
10
-79.91219796572183
20
91.947758534265773
10
-74.91219796572183
20
100.60801257211004
10
-79.91219796572183
20
109.26826660995438
10
-89.91219796572183
20
109.26826660995438
0
LWPOLYLINE
5
124
100
AcDbEntity
8
0
100
AcDbPolyline
90
6
70
1
43
0.0
10
-196.15575449554285
20
90.608012572110255
10
-201.15575449554285
20
99.268266609954523
10
-211.15575449554285
20
99.268266609954523
10
-216.15575449554285
20
90.608012572110255
10
-211.15575449554285
20
81.947758534265844
10
-201.15575449554285
20
81.947758534265844
0
LWPOLYLINE
5
125
100
AcDbEntity
8
0
100
AcDbPolyline
90
6
70
1
43
0.0
10
-218.4762625712311
20
51.947758534265738
10
-213.4762625712311
20
60.608012572110148
10
-218.4762625712311
20
69.268266609954452
10
-228.4762625712311
20
69.268266609954452
10
-233.4762625712311
20
60.608012572110148
10
-228.4762625712311
20
51.947758534265738
0
LWPOLYLINE
5
126
100
AcDbEntity
8
0
100
AcDbPolyline
90
6
70
1
43
0.0
10
-230.79677064691936
20
70.608012572109544
10
-235.79677064691936
20
79.268266609953884
10
-245.79677064691921
20
79.268266609953884
10
-250.79677064691921
20
70.608012572109544
10
-245.79677064691936
20
61.947758534265098
10
-235.79677064691936
20
61.947758534265098
0
LWPOLYLINE
5
127
100
AcDbEntity
8
0
100
AcDbPolyline
90
6
70
1
43
0.0
10
-141.87372219278765
20
221.94775853426563
10
-131.87372219278765
20
221.94775853426563
10
-126.87372219278765
20
230.60801257210997
10
-131.87372219278765
20
239.26826660995431
10
-141.87372219278765
20
239.26826660995431
10
-146.87372219278765
20
230.60801257211006
0
LWPOLYLINE
5
128
100
AcDbEntity
8
0
100
AcDbPolyline
90
6
70
1
43
0.0
10
-245.79677064691964
20
81.947758534265631
10
-235.79677064692049
20
81.947758534265631
10
-230.79677064692078
20
90.608012572109402
10
-235.79677064692035
20
99.268266609953173
10
-245.79677064691964
20
99.268266609953173
10
-250.79677064691921
20
90.608012572109402
0
LWPOLYLINE
5
129
100
AcDbEntity
8
0
100
AcDbPolyline
90
6
70
1
43
0.0
10
-159.19423026847662
20
71.947758534265915
10
-149.19423026847662
20
71.947758534265844
10
-144.19423026847662
20
80.608012572110184
10
-149.19423026847662
20
89.268266609954523
10
-159.19423026847659
20
89.268266609954523
10
-164.19423026847667
20
80.608012572110255
0
LWPOLYLINE
5
130
100
AcDbEntity
8
0
100
AcDbPolyline
90
6
70
1
43
0.0
10
-60.271181814344047
20
100.60801257211011
10
-55.271181814344047
20
91.947758534265773
10
-45.271181814344189
20
91.947758534265773
10
-40.271181814344189
20
100.60801257211011
10
-45.271181814344189
20
109.26826660995445
10
-55.271181814344047
20
109.26826660995445
0
LWPOLYLINE
5
131
100
AcDbEntity
8
0
100
AcDbPolyline
90
6
70
1
43
0.0
10
-233.4762625712311
20
80.608012572110184
10
-228.4762625712311
20
71.947758534265773
10
-218.4762625712311
20
71.947758534265773
10
-213.4762625712311
20
80.608012572110184
10
-218.4762625712311
20
89.268266609954452
10
-228.4762625712311
20
89.268266609954452
0
LWPOLYLINE
5
132
100
AcDbEntity
8
0
100
AcDbPolyline
90
6
70
1
43
0.0
10
-124.55321411709905
20
211.94775853426557
10
-114.55321411709905
20
211.94775853426557
10
-109.55321411709905
20
220.60801257210989
10
-114.55321411709905
20
229.26826660995431
10
-124.5532141170989
20
229.26826660995431
10
-129.55321411709892
20
220.60801257210997
0
LWPOLYLINE
5
133
100
AcDbEntity
8
0
100
AcDbPolyline
90
6
70
1
43
0.0
10
-183.83524641985403
20
109.26826660995467
10
-193.83524641985403
20
109.26826660995474
10
-198.83524641985403
20
100.60801257211033
10
-193.83524641985403
20
91.947758534265986
10
-183.83524641985403
20
91.947758534265915
10
-178.83524641985417
20
100.60801257211033
0
LWPOLYLINE
5
134
100
AcDbEntity
8
0
100
AcDbPolyline
90
6
70
1
43
0.0
10
-60.271181814344047
20
140.60801257211006
10
-55.271181814344047
20
131.94775853426569
10
-45.271181814344189
20
131.94775853426569
10
-40.271181814344047
20
140.60801257211006
10
-45.271181814344047
20
149.26826660995437
10
-55.271181814344047
20
149.26826660995437
0
LWPOLYLINE
5
135
100
AcDbEntity
8
0
100
AcDbPolyline
90
6
70
1
43
0.0
10
-126.87372219278765
20
150.60801257211006
10
-131.87372219278765
20
159.26826660995437
10
-141.87372219278765
20
159.26826660995437
10
-146.87372219278765
20
150.60801257211011
10
-141.87372219278765
20
141.94775853426577
10
-131.87372219278765
20
141.94775853426577
0
LWPOLYLINE
5
136
100
AcDbEntity
8
0
100
AcDbPolyline
90
6
70
1
43
0.0
10
-57.591689890032868
20
70.608012572110113
10
-62.591689890032868
20
79.268266609954452
10
-72.591689890032868
20
79.268266609954452
10
-77.591689890032868
20
70.608012572110113
10
-72.591689890032868
20
61.947758534265809
10
-62.591689890032868
20
61.947758534265809
0
LWPOLYLINE
5
137
100
AcDbEntity
8
0
100
AcDbPolyline
90
6
70
1
43
0.0
10
-166.51473834416507
20
141.94775853426577
10
-161.51473834416521
20
150.60801257211011
10
-166.51473834416521
20
159.26826660995431
10
-176.51473834416507
20
159.26826660995431
10
-181.51473834416507
20
150.60801257211011
10
-176.51473834416507
20
141.94775853426577
0
LWPOLYLINE
5
138
100
AcDbEntity
8
0
100
AcDbPolyline
90
6
70
1
43
0.0
10
-129.55321411709897
20
140.60801257211011
10
-124.55321411709905
20
131.94775853426577
10
-114.55321411709912
20
131.94775853426577
10
-109.55321411709905
20
140.60801257211011
10
-114.55321411709905
20
149.26826660995445
10
-124.55321411709897
20
149.26826660995445
0
LWPOLYLINE
5
139
100
AcDbEntity
8
0
100
AcDbPolyline
90
6
70
1
43
0.0
10
-183.83524641985403
20
89.268266609954736
10
-193.83524641985403
20
89.268266609954736
10
-198.83524641985403
20
80.608012572110326
10
-193.83524641985403
20
71.947758534265986
10
-183.83524641985403
20
71.947758534265986
10
-178.83524641985417
20
80.608012572110326
0
LWPOLYLINE
5
140
100
AcDbEntity
8
0
100
AcDbPolyline
90
6
70
1
43
0.0
10
-198.83524641985389
20
160.60801257211006
10
-193.83524641985389
20
151.94775853426569
10
-183.83524641985389
20
151.94775853426569
10
-178.83524641985389
20
160.60801257211006
10
-183.83524641985389
20
169.26826660995445
10
-193.83524641985389
20
169.26826660995445
0
LWPOLYLINE
5
141
100
AcDbEntity
8
0
100
AcDbPolyline
90
6
70
1
43
0.0
10
-62.591689890032725
20
181.94775853426557
10
-57.591689890032725
20
190.60801257210989
10
-62.591689890032725
20
199.26826660995425
10
-72.591689890032868
20
199.26826660995425
10
-77.591689890032868
20
190.60801257210989
10
-72.591689890032868
20
181.94775853426557
0
LWPOLYLINE
5
142
100
AcDbEntity
8
0
100
AcDbPolyline
90
6
70
1
43
0.0
10
-144.19423026847642
20
200.60801257210997
10
-149.19423026847642
20
209.26826660995431
10
-159.19423026847639
20
209.26826660995431
10
-164.19423026847639
20
200.60801257211006
10
-159.19423026847647
20
191.94775853426563
10
-149.19423026847642
20
191.94775853426563
0
LWPOLYLINE
5
143
100
AcDbEntity
8
0
100
AcDbPolyline
90
6
70
1
43
0.0
10
-213.47626257123181
20
100.60801257211004
10
-218.47626257123181
20
109.26826660995438
10
-228.47626257123167
20
109.26826660995438
10
-233.47626257123167
20
100.60801257211004
10
-228.47626257123167
20
91.947758534265702
10
-218.47626257123181
20
91.947758534265702
0
LWPOLYLINE
5
144
100
AcDbEntity
8
0
100
AcDbPolyline
90
6
70
1
43
0.0
10
-141.87372219278765
20
181.94775853426563
10
-131.87372219278765
20
181.94775853426563
10
-126.87372219278765
20
190.60801257210997
10
-131.87372219278765
20
199.26826660995431
10
-141.87372219278765
20
199.26826660995431
10
-146.87372219278765
20
190.60801257211006
0
LWPOLYLINE
5
145
100
AcDbEntity
8
0
100
AcDbPolyline
90
6
70
1
43
0.0
10
-228.47626257123181
20
129.26826660995488
10
-233.47626257123181
20
120.6080125721104
10
-228.47626257123181
20
111.94775853426584
10
-218.47626257123167
20
111.94775853426584
10
-213.47626257123153
20
120.6080125721104
10
-218.47626257123167
20
129.26826660995488
0
LWPOLYLINE
5
146
100
AcDbEntity
8
0
100
AcDbPolyline
90
6
70
1
43
0.0
10
-79.912197965721688
20
111.9477585342657
10
-74.91219796572183
20
120.60801257210997
10
-79.91219796572183
20
129.26826660995437
10
-89.912197965721688
20
129.26826660995437
10
-94.912197965721617
20
120.60801257211004
10
-89.912197965721688
20
111.9477585342657
0
LWPOLYLINE
5
147
100
AcDbEntity
8
0
100
AcDbPolyline
90
6
70
1
43
0.0
10
-250.79677064692092
20
150.60801257211119
10
-245.79677064692106
20
141.94775853426677
10
-235.79677064692092
20
141.94775853426677
10
-230.79677064692092
20
150.60801257211119
10
-235.79677064692092
20
159.26826660995559
10
-245.79677064692092
20
159.26826660995567
0
LWPOLYLINE
5
148
100
AcDbEntity
8
0
100
AcDbPolyline
90
6
70
1
43
0.0
10
-74.912197965721688
20
180.60801257210983
10
-79.912197965721688
20
189.26826660995425
10
-89.912197965721688
20
189.26826660995425
10
-94.912197965721617
20
180.60801257210989
10
-89.912197965721688
20
171.94775853426557
10
-79.912197965721688
20
171.94775853426557
0
LWPOLYLINE
5
149
100
AcDbEntity
8
0
100
AcDbPolyline
90
6
70
1
43
0.0
10
-198.83524641985389
20
140.60801257211017
10
-193.83524641985389
20
131.94775853426577
10
-183.83524641985403
20
131.94775853426577
10
-178.83524641985403
20
140.60801257211017
10
-183.83524641985389
20
149.26826660995454
10
-193.83524641985389
20
149.26826660995454
0
LWPOLYLINE
5
150
100
AcDbEntity
8
0
100
AcDbPolyline
90
6
70
1
43
0.0
10
-131.8737221927878
20
119.26826660995452
10
-141.8737221927878
20
119.26826660995452
10
-146.8737221927878
20
110.60801257211018
10
-141.87372219278774
20
101.94775853426577
10
-131.87372219278774
20
101.94775853426577
10
-126.8737221927878
20
110.60801257211018
0
LWPOLYLINE
5
151
100
AcDbEntity
8
0
100
AcDbPolyline
90
6
70
1
43
0.0
10
-141.87372219278788
20
61.947758534265844
10
-131.87372219278794
20
61.947758534265809
10
-126.87372219278787
20
70.608012572110255
10
-131.87372219278788
20
79.268266609954523
10
-141.87372219278788
20
79.268266609954523
10
-146.8737221927878
20
70.608012572110255
0
LWPOLYLINE
5
152
100
AcDbEntity
8
0
100
AcDbPolyline
90
6
70
1
43
0.0
10
-55.271181814344047
20
169.26826660995431
10
-60.271181814344047
20
160.60801257210989
10
-55.271181814344047
20
151.94775853426563
10
-45.271181814344047
20
151.94775853426563
10
-40.271181814344047
20
160.60801257210989
10
-45.271181814344047
20
169.26826660995431
0
LWPOLYLINE
5
153
100
AcDbEntity
8
0
100
AcDbPolyline
90
6
70
1
43
0.0
10
-62.591689890032725
20
219.26826660995425
10
-72.591689890032868
20
219.26826660995425
10
-77.591689890032868
20
210.60801257210983
10
-72.591689890032868
20
201.94775853426557
10
-62.591689890032868
20
201.94775853426557
10
-57.591689890032725
20
210.60801257210983
0
LWPOLYLINE
5
154
100
AcDbEntity
8
0
100
AcDbPolyline
90
6
70
1
43
0.0
10
-164.19423026847639
20
220.60801257211006
10
-159.19423026847642
20
211.94775853426557
10
-149.19423026847642
20
211.94775853426557
10
-144.19423026847642
20
220.60801257210997
10
-149.19423026847642
20
229.26826660995437
10
-159.19423026847639
20
229.26826660995437
0
LWPOLYLINE
5
155
100
AcDbEntity
8
0
100
AcDbPolyline
90
6
70
1
43
0.0
10
-107.23270604141022
20
199.26826660995431
10
-112.2327060414103
20
190.60801257210997
10
-107.2327060414103
20
181.94775853426563
10
-97.232706041410438
20
181.94775853426557
10
-92.232706041410438
20
190.60801257210989
10
-97.232706041410438
20
199.26826660995425
0
LWPOLYLINE
5
156
100
AcDbEntity
8
0
100
AcDbPolyline
90
6
70
1
43
0.0
10
-129.55321411709897
20
120.60801257211018
10
-124.55321411709905
20
111.94775853426577
10
-114.55321411709912
20
111.94775853426577
10
-109.55321411709912
20
120.60801257211011
10
-114.55321411709912
20
129.26826660995445
10
-124.55321411709897
20
129.26826660995445
0
LWPOLYLINE
5
157
100
AcDbEntity
8
0
100
AcDbPolyline
90
6
70
1
43
0.0
10
-45.271181814344189
20
71.947758534265773
10
-40.271181814344189
20
80.608012572110113
10
-45.271181814344189
20
89.268266609954452
10
-55.271181814344047
20
89.268266609954452
10
-60.271181814344047
20
80.608012572110113
10
-55.271181814344047
20
71.947758534265773
0
LWPOLYLINE
5
158
100
AcDbEntity
8
0
100
AcDbPolyline
90
6
70
1
43
0.0
10
-97.232706041410438
20
101.9477585342657
10
-92.232706041410438
20
110.60801257211004
10
-97.232706041410438
20
119.26826660995438
10
-107.2327060414103
20
119.26826660995445
10
-112.23270604141037
20
110.60801257211018
10
-107.23270604141037
20
101.94775853426577
0
LWPOLYLINE
5
159
100
AcDbEntity
8
0
100
AcDbPolyline
90
6
70
1
43
0.0
10
-57.591689890032868
20
110.60801257211004
10
-62.591689890032868
20
119.26826660995445
10
-72.591689890032868
20
119.26826660995445
10
-77.591689890032868
20
110.60801257211004
10
-72.591689890032868
20
101.9477585342657
10
-62.591689890032868
20
101.9477585342657
0
LWPOLYLINE
5
160
100
AcDbEntity
8
0
100
AcDbPolyline
90
6
70
1
43
0.0
10
-55.271181814344047
20
171.94775853426557
10
-45.271181814344047
20
171.94775853426557
10
-40.271181814344047
20
180.60801257210989
10
-45.271181814344047
20
189.26826660995431
10
-55.271181814344047
20
189.26826660995431
10
-60.271181814344047
20
180.60801257210989
0
LWPOLYLINE
5
161
100
AcDbEntity
8
0
100
AcDbPolyline
90
6
70
1
43
0.0
10
-149.19423026847642
20
189.26826660995445
10
-159.19423026847642
20
189.26826660995445
10
-164.19423026847639
20
180.60801257211006
10
-159.19423026847647
20
171.94775853426563
10
-149.19423026847642
20
171.94775853426563
10
-144.19423026847642
20
180.60801257210997
0
LWPOLYLINE
5
162
100
AcDbEntity
8
0
100
AcDbPolyline
90
6
70
1
43
0.0
10
-94.912197965721617
20
140.60801257211006
10
-89.91219796572183
20
131.94775853426569
10
-79.91219796572183
20
131.94775853426569
10
-74.912197965721688
20
140.60801257211006
10
-79.912197965721688
20
149.26826660995431
10
-89.912197965721688
20
149.26826660995431
0
LWPOLYLINE
5
163
100
AcDbEntity
8
0
100
AcDbPolyline
90
6
70
1
43
0.0
10
-45.271181814344047
20
229.26826660995425
10
-55.271181814344047
20
229.26826660995425
10
-60.271181814344047
20
220.60801257210989
10
-55.271181814344047
20
211.94775853426549
10
-45.271181814344047
20
211.94775853426549
10
-40.271181814344047
20
220.60801257210989
0
LWPOLYLINE
5
164
100
AcDbEntity
8
0
100
AcDbPolyline
90
6
70
1
43
0.0
10
-126.87372219278765
20
210.60801257210989
10
-131.87372219278765
20
219.26826660995431
10
-141.87372219278765
20
219.26826660995431
10
-146.87372219278765
20
210.60801257210997
10
-141.87372219278765
20
201.94775853426563
10
-131.87372219278765
20
201.94775853426563
0
LWPOLYLINE
5
165
100
AcDbEntity
8
0
100
AcDbPolyline
90
6
70
1
43
0.0
10
-124.55321411709905
20
89.268266609954523
10
-129.55321411709906
20
80.608012572110184
10
-124.55321411709905
20
71.947758534265844
10
-114.55321411709912
20
71.947758534265844
10
-109.55321411709912
20
80.608012572110184
10
-114.55321411709912
20
89.268266609954523
0
LWPOLYLINE
5
166
100
AcDbEntity
8
0
100
AcDbPolyline
90
6
70
1
43
0.0
10
-74.912197965721688
20
160.60801257210983
10
-79.912197965721688
20
169.26826660995425
10
-89.912197965721688
20
169.26826660995425
10
-94.912197965721617
20
160.60801257210989
10
-89.912197965721688
20
151.94775853426563
10
-79.912197965721688
20
151.94775853426563
0
LWPOLYLINE
5
167
100
AcDbEntity
8
0
100
AcDbPolyline
90
6
70
1
43
0.0
10
-57.591689890032868
20
150.60801257210997
10
-62.591689890032725
20
159.26826660995431
10
-72.591689890032868
20
159.26826660995431
10
-77.591689890032868
20
150.60801257210997
10
-72.591689890032868
20
141.94775853426569
10
-62.591689890032725
20
141.94775853426569
0
LWPOLYLINE
5
168
100
AcDbEntity
8
0
100
AcDbPolyline
90
6
70
1
43
0.0
10
-176.51473834416521
20
139.26826660995459
10
-181.51473834416535
20
130.60801257211017
10
-176.51473834416535
20
121.94775853426577
10
-166.51473834416535
20
121.94775853426577
10
-161.51473834416535
20
130.60801257211017
10
-166.51473834416521
20
139.26826660995459
0
LWPOLYLINE
5
169
100
AcDbEntity
8
0
100
AcDbPolyline
90
6
70
1
43
0.0
10
-124.55321411709897
20
151.94775853426569
10
-114.55321411709905
20
151.94775853426569
10
-109.55321411709905
20
160.60801257210997
10
-114.55321411709905
20
169.26826660995431
10
-124.5532141170989
20
169.26826660995431
10
-129.55321411709892
20
160.60801257210997
0
LWPOLYLINE
5
170
100
AcDbEntity
8
0
100
AcDbPolyline
90
6
70
1
43
0.0
10
-109.55321411709905
20
180.60801257210997
10
-114.55321411709905
20
189.26826660995431
10
-124.5532141170989
20
189.26826660995431
10
-129.55321411709892
20
180.60801257210997
10
-124.55321411709897
20
171.94775853426563
10
-114.55321411709905
20
171.94775853426563
0
LWPOLYLINE
5
171
100
AcDbEntity
8
0
100
AcDbPolyline
90
6
70
1
43
0.0
10
-164.19423026847639
20
160.60801257211006
10
-159.19423026847642
20
151.94775853426569
10
-149.19423026847642
20
151.94775853426569
10
-144.19423026847642
20
160.60801257210997
10
-149.19423026847642
20
169.26826660995445
10
-159.19423026847639
20
169.26826660995445
0
LWPOLYLINE
5
172
100
AcDbEntity
8
0
100
AcDbPolyline
90
6
70
1
43
0.0
10
-159.19423026847647
20
111.94775853426577
10
-149.19423026847662
20
111.94775853426577
10
-144.19423026847662
20
120.60801257211018
10
-149.19423026847656
20
129.26826660995454
10
-159.19423026847653
20
129.26826660995454
10
-164.19423026847653
20
120.60801257211018
0
LWPOLYLINE
5
173
100
AcDbEntity
8
0
100
AcDbPolyline
90
6
70
1
43
0.0
10
-60.271181814344047
20
200.60801257210989
10
-55.271181814344047
20
191.94775853426557
10
-45.271181814344047
20
191.94775853426557
10
-40.271181814344047
20
200.60801257210989
10
-45.271181814344047
20
209.26826660995417
10
-55.271181814344047
20
209.26826660995417
0
ENDSEC
0
SECTION
2
OBJECTS
0
DICTIONARY
5
C
100
AcDbDictionary
3
ACAD_GROUP
350
D
3
ACAD_MLINESTYLE
350
17
0
DICTIONARY
5
D
100
AcDbDictionary
0
DICTIONARY
5
1A
330
C
100
AcDbDictionary
0
DICTIONARY
5
17
100
AcDbDictionary
0
ENDSEC
0
EOF
