0
SECTION
2
HEADER
9
$INSUNITS
70
4
9
$ACADVER
1
AC1014
9
$HANDSEED
5
FFFF
0
ENDSEC
0
SECTION
2
TABLES
0
TABLE
2
VPORT
5
8
100
AcDbSymbolTable
0
ENDTAB
0
TABLE
2
LTYPE
5
5
100
AcDbSymbolTable
0
LTYPE
5
14
100
AcDbSymbolTableRecord
100
AcDbLinetypeTableRecord
2
BYBLOCK
70
0
0
LTYPE
5
15
100
AcDbSymbolTableRecord
100
AcDbLinetypeTableRecord
2
BYLAYER
70
0
0
ENDTAB
0
TABLE
2
LAYER
5
2
100
AcDbSymbolTable
70
2
0
LAYER
5
50
100
AcDbSymbolTableRecord
100
AcDbLayerTableRecord
2
0
70
0
6
CONTINUOUS
0
ENDTAB
0
TABLE
2
STYLE
5
3
100
AcDbSymbolTable
70
1
0
STYLE
5
11
100
AcDbSymbolTableRecord
100
AcDbTextStyleTableRecord
2
STANDARD
70
0
0
ENDTAB
0
TABLE
2
VIEW
5
6
100
AcDbSymbolTable
70
0
0
ENDTAB
0
TABLE
2
UCS
5
7
100
AcDbSymbolTable
70
0
0
ENDTAB
0
TABLE
2
APPID
5
9
100
AcDbSymbolTable
70
2
0
APPID
5
12
100
AcDbSymbolTableRecord
100
AcDbRegAppTableRecord
2
ACAD
70
0
0
ENDTAB
0
TABLE
2
DIMSTYLE
5
A
100
AcDbSymbolTable
70
1
0
ENDTAB
0
TABLE
2
BLOCK_RECORD
5
1
100
AcDbSymbolTable
70
1
0
BLOCK_RECORD
5
1F
100
AcDbSymbolTableRecord
100
AcDbBlockTableRecord
2
*MODEL_SPACE
0
BLOCK_RECORD
5
1B
100
AcDbSymbolTableRecord
100
AcDbBlockTableRecord
2
*PAPER_SPACE
0
ENDTAB
0
ENDSEC
0
SECTION
2
BLOCKS
0
BLOCK
5
20
100
AcDbEntity
100
AcDbBlockBegin
2
*MODEL_SPACE
0
ENDBLK
5
21
100
AcDbEntity
100
AcDbBlockEnd
0
BLOCK
5
1C
100
AcDbEntity
100
AcDbBlockBegin
2
*PAPER_SPACE
0
ENDBLK
5
1D
100
AcDbEntity
100
AcDbBlockEnd
0
ENDSEC
0
SECTION
2
ENTITIES
0
LWPOLYLINE
5
100
100
AcDbEntity
8
0
100
AcDbPolyline
90
77
70
1
43
0.0
10
338.02502293254497
20
125.26399168980203
10
338.02502334977754
20
75.263991689802012
10
338.02502334977754
20
74.263991689802069
10
345.0250233497776
20
74.263991689801955
42
-0.41421356237307771
10
348.02502334977754
20
71.263991689801955
10
348.02502334977754
20
52.263991689801969
42
-0.41421356237311585
10
345.02502334977754
20
49.263991689802069
10
341.02502334977748
20
49.263991689802069
10
341.02502334977748
20
62.26399168980204
10
298.02502334977765
20
62.26399168980204
10
298.02502334977754
20
57.263991689801969
42
-0.41421356237308116
10
295.02502334977754
20
54.263991689802069
10
251.02502334977771
20
54.263991689801898
42
-0.41421356237307683
10
248.02502334977765
20
57.26399168980204
10
248.02502334977765
20
62.26399168980204
10
218.02502334977765
20
62.26399168980204
10
218.02502334977783
20
42.263991689801898
42
-0.41421356237311063
10
215.02502334977771
20
39.263991689801927
10
161.02502334977794
20
39.263991689801763
42
-0.41421356237312457
10
158.02502334977783
20
42.263991689801898
10
158.02502334977783
20
62.263991689801898
10
128.02502334977783
20
62.263991689801898
10
128.02502334977791
20
57.263991689801969
42
-0.41421356237309337
10
125.02502334977777
20
54.263991689801927
10
81.025023349777925
20
54.263991689801983
42
-0.41421356237312279
10
78.025023349777868
20
57.26399168980204
10
78.025023349777868
20
62.26399168980204
10
35.025023349777904
20
62.26399168980204
10
35.025023349777904
20
49.263991689802069
10
31.025023349777918
20
49.263991689801983
42
-0.41421356237312196
10
28.025023349778017
20
52.263991689801898
10
28.025023349777804
20
72.263991689801827
42
-0.41421356237312279
10
31.025023349777989
20
75.26399168980187
10
38.025023349777804
20
75.263991689802026
10
38.025023349777804
20
151.26399168980183
10
35.025023349777904
20
151.26399168980183
10
35.025023349777904
20
138.26399168980186
10
31.025023349777918
20
138.26399168980177
42
-0.41421356237309548
10
28.025023349777875
20
141.26399168980183
10
28.025023349777808
20
160.2639916898018
42
-0.41421356237309465
10
31.025023349777989
20
163.26399168980186
10
38.025023349777804
20
163.26399168980186
10
38.025023349777804
20
231.26399168980183
10
35.025023349777904
20
231.26399168980183
10
35.025023349777904
20
220.26399168980174
10
31.025023349777847
20
220.26399168980174
42
-0.4142135623731007
10
28.025023349777875
20
223.26399168980171
10
28.025023349777882
20
270.26399168980174
42
-0.41421356237310114
10
31.025023349777847
20
273.26399168980168
10
38.025023349777804
20
273.26399168980168
10
38.025023349777804
20
287.56399168980164
10
68.025023349777797
20
287.5639916898017
10
68.025023349777811
20
292.56399168980164
10
173.0250231411614
20
292.56399168980187
10
173.0250231411614
20
287.56399168980187
10
203.02502314116145
20
287.56399168980187
10
203.02502314116145
20
292.56399168980187
10
308.02502293254514
20
292.56399168980181
10
308.02502293254514
20
287.56399168980181
10
338.02502293254497
20
287.56399168980187
10
338.02502293254508
20
277.26399168980174
42
0.41421356237309503
10
340.02502293254503
20
275.26399168980186
10
345.02502334977743
20
275.26399168980186
42
-0.41421356237309503
10
348.02502334977754
20
272.26399168980174
10
348.02502334977748
20
225.2639916898018
42
-0.41421356237311241
10
345.02502334977743
20
222.26399168980191
10
341.02502293254497
20
222.26399168980191
10
341.02502293254497
20
231.26399168980197
10
338.02502293254497
20
231.26399168980197
10
338.02502293254497
20
163.263991689802
10
345.02502334977743
20
163.26399168980214
42
-0.41421356237309503
10
348.02502334977754
20
160.26399168980203
10
348.02502334977737
20
141.26399168980197
42
-0.41421356237308293
10
345.02502334977743
20
138.263991689802
10
341.02502293254497
20
138.263991689802
10
341.02502293254497
20
151.26399168980197
10
338.02502293254497
20
151.26399168980197
0
LWPOLYLINE
5
101
100
AcDbEntity
8
0
100
AcDbPolyline
90
8
70
1
43
0.0
10
193.24502330444113
20
202.77699160502036
10
193.24502330444125
20
108.47699160502015
42
0.41421356237309503
10
203.24502330444125
20
98.476991605020288
10
307.70502330444123
20
98.476991605020288
42
0.41421356237309503
10
317.70502330444123
20
108.47699160502029
10
317.70502330444123
20
202.77699160502036
42
0.4142135623730992
10
307.70502330444111
20
212.77699160502036
10
203.24502330444119
20
212.77699160502036
42
0.41421356237309709
0
LWPOLYLINE
5
102
100
AcDbEntity
8
0
100
AcDbPolyline
90
4
70
1
43
0.0
10
337.50502334977745
20
249.40399160502022
10
335.48502334977746
20
249.40399160502022
10
335.48502334977746
20
237.20399160502024
10
337.50502334977745
20
237.20399160502024
0
LWPOLYLINE
5
103
100
AcDbEntity
8
0
100
AcDbPolyline
90
4
70
1
43
0.0
10
335.48502334977746
20
269.72399160502016
10
335.48502334977746
20
257.52399160502017
10
337.50502334977745
20
257.52399160502017
10
337.50502334977745
20
269.72399160502016
0
CIRCLE
5
104
100
AcDbEntity
8
0
100
AcDbCircle
10
170.38502330444118
20
238.17699160502013
30
0
40
1.4000000000000057
210
1.6774145766481321e-80
220
-6.6021276556236257e-48
230
1
0
LWPOLYLINE
5
105
100
AcDbEntity
8
0
100
AcDbPolyline
90
4
70
1
43
0.0
10
184.02502334977777
20
59.263991689801927
10
184.02502334977777
20
56.263991689801955
10
192.02502334977771
20
56.263991689801955
10
192.02502334977771
20
59.263991689801927
0
CIRCLE
5
106
100
AcDbEntity
8
0
100
AcDbCircle
10
325.32502330444112
20
238.17699160502028
30
0
40
1.4000000000000057
210
1.6774145766481321e-80
220
-6.6021276556236257e-48
230
1
0
CIRCLE
5
107
100
AcDbEntity
8
0
100
AcDbCircle
10
170.38502330444132
20
80.696991605020372
30
0
40
1.4000000000000057
210
1.6774145766481321e-80
220
-6.6021276556236257e-48
230
1
0
CIRCLE
5
108
100
AcDbEntity
8
0
100
AcDbCircle
10
302.50502330444112
20
80.696991605020372
30
0
40
1.4000000000000057
210
1.6774145766481321e-80
220
-6.6021276556236257e-48
230
1
0
ENDSEC
0
SECTION
2
OBJECTS
0
DICTIONARY
5
C
100
AcDbDictionary
3
ACAD_GROUP
350
D
3
ACAD_MLINESTYLE
350
17
0
DICTIONARY
5
D
100
AcDbDictionary
0
DICTIONARY
5
1A
330
C
100
AcDbDictionary
0
DICTIONARY
5
17
100
AcDbDictionary
0
ENDSEC
0
EOF
