0
SECTION
2
HEADER
9
$INSUNITS
70
4
9
$ACADVER
1
AC1014
9
$HANDSEED
5
FFFF
0
ENDSEC
0
SECTION
2
TABLES
0
TABLE
2
VPORT
5
8
100
AcDbSymbolTable
0
ENDTAB
0
TABLE
2
LTYPE
5
5
100
AcDbSymbolTable
0
LTYPE
5
14
100
AcDbSymbolTableRecord
100
AcDbLinetypeTableRecord
2
BYBLOCK
70
0
0
LTYPE
5
15
100
AcDbSymbolTableRecord
100
AcDbLinetypeTableRecord
2
BYLAYER
70
0
0
ENDTAB
0
TABLE
2
LAYER
5
2
100
AcDbSymbolTable
70
2
0
LAYER
5
50
100
AcDbSymbolTableRecord
100
AcDbLayerTableRecord
2
0
70
0
6
CONTINUOUS
0
ENDTAB
0
TABLE
2
STYLE
5
3
100
AcDbSymbolTable
70
1
0
STYLE
5
11
100
AcDbSymbolTableRecord
100
AcDbTextStyleTableRecord
2
STANDARD
70
0
0
ENDTAB
0
TABLE
2
VIEW
5
6
100
AcDbSymbolTable
70
0
0
ENDTAB
0
TABLE
2
UCS
5
7
100
AcDbSymbolTable
70
0
0
ENDTAB
0
TABLE
2
APPID
5
9
100
AcDbSymbolTable
70
2
0
APPID
5
12
100
AcDbSymbolTableRecord
100
AcDbRegAppTableRecord
2
ACAD
70
0
0
ENDTAB
0
TABLE
2
DIMSTYLE
5
A
100
AcDbSymbolTable
70
1
0
ENDTAB
0
TABLE
2
BLOCK_RECORD
5
1
100
AcDbSymbolTable
70
1
0
BLOCK_RECORD
5
1F
100
AcDbSymbolTableRecord
100
AcDbBlockTableRecord
2
*MODEL_SPACE
0
BLOCK_RECORD
5
1B
100
AcDbSymbolTableRecord
100
AcDbBlockTableRecord
2
*PAPER_SPACE
0
ENDTAB
0
ENDSEC
0
SECTION
2
BLOCKS
0
BLOCK
5
20
100
AcDbEntity
100
AcDbBlockBegin
2
*MODEL_SPACE
0
ENDBLK
5
21
100
AcDbEntity
100
AcDbBlockEnd
0
BLOCK
5
1C
100
AcDbEntity
100
AcDbBlockBegin
2
*PAPER_SPACE
0
ENDBLK
5
1D
100
AcDbEntity
100
AcDbBlockEnd
0
ENDSEC
0
SECTION
2
ENTITIES
0
LWPOLYLINE
5
100
100
AcDbEntity
8
0
100
AcDbPolyline
90
36
70
1
43
0.0
10
419.8690445684116
20
-300.91430176363878
10
389.8690445684116
20
-300.91430176363883
10
389.8690445684116
20
-297.91430176363883
10
376.8690445684116
20
-297.91430176363883
10
376.8690445684116
20
-267.91430176363889
10
379.8690445684116
20
-267.91430176363889
10
379.8690445684116
20
-162.91430176363889
10
376.8690445684116
20
-162.91430176363889
10
376.86904456841171
20
-132.91430176363886
10
379.86904456841165
20
-132.91430176363886
10
379.8690445684116
20
-27.914301763638967
10
376.8690445684116
20
-27.914301763638967
10
376.8690445684116
20
2.085698236361031
10
389.8690445684116
20
2.085698236361031
10
389.8690445684116
20
5.0856982363610026
10
419.8690445684116
20
5.0856982363610026
10
419.8690445684116
20
2.085698236361031
10
483.26904456841163
20
2.085698236361031
10
483.26904456841163
20
5.0856982363610026
10
513.26904456841146
20
5.0856982363610026
10
513.26904456841146
20
2.085698236361031
10
524.26904456841146
20
2.085698236361031
10
524.26904456841146
20
-27.914301763638932
10
521.26904456841146
20
-27.914301763638942
10
521.26904456841146
20
-132.91430176363883
10
524.26904456841146
20
-132.91430176363883
10
524.26904456841146
20
-162.91430176363886
10
521.26904456841146
20
-162.91430176363886
10
521.26904456841157
20
-267.91430176363883
10
524.26904456841157
20
-267.91430176363883
10
524.26904456841157
20
-297.91430176363878
10
513.26904456841157
20
-297.91430176363872
10
513.26904456841157
20
-300.91430176363878
10
483.26904456841163
20
-300.91430176363878
10
483.26904456841163
20
-297.91430176363878
10
419.8690445684116
20
-297.91430176363883
0
LWPOLYLINE
5
101
100
AcDbEntity
8
0
100
AcDbPolyline
90
6
70
1
43
0.0
10
444.84151980703501
20
-125.07454377498371
10
449.84151980703501
20
-133.73479781282813
10
459.84151980703501
20
-133.73479781282808
10
464.84151980703501
20
-125.07454377498368
10
459.84151980703501
20
-116.41428973713934
10
449.84151980703501
20
-116.41428973713937
0
LWPOLYLINE
5
102
100
AcDbEntity
8
0
100
AcDbPolyline
90
6
70
1
43
0.0
10
484.84151980703501
20
-133.73479781282813
10
494.84151980703501
20
-133.73479781282813
10
499.84151980703496
20
-125.07454377498371
10
494.84151980703501
20
-116.41428973713937
10
484.84151980703501
20
-116.41428973713937
10
479.84151980703501
20
-125.07454377498371
0
LWPOLYLINE
5
103
100
AcDbEntity
8
0
100
AcDbPolyline
90
6
70
1
43
0.0
10
442.52101173134633
20
-246.41428973713937
10
432.52101173134633
20
-246.41428973713937
10
427.52101173134633
20
-255.07454377498362
10
432.52101173134633
20
-263.73479781282805
10
442.52101173134633
20
-263.73479781282805
10
447.52101173134633
20
-255.07454377498362
0
LWPOLYLINE
5
104
100
AcDbEntity
8
0
100
AcDbPolyline
90
6
70
1
43
0.0
10
462.52101173134622
20
-55.074543774983773
10
467.52101173134622
20
-63.734797812828184
10
477.52101173134622
20
-63.734797812828184
10
482.52101173134622
20
-55.074543774983773
10
477.52101173134622
20
-46.414289737139434
10
467.52101173134622
20
-46.414289737139434
0
LWPOLYLINE
5
105
100
AcDbEntity
8
0
100
AcDbPolyline
90
6
70
1
43
0.0
10
429.84151980703496
20
-165.07454377498377
10
424.84151980703501
20
-156.41428973713937
10
414.84151980703507
20
-156.41428973713937
10
409.84151980703501
20
-165.07454377498377
10
414.84151980703501
20
-173.73479781282811
10
424.84151980703496
20
-173.73479781282811
0
LWPOLYLINE
5
106
100
AcDbEntity
8
0
100
AcDbPolyline
90
6
70
1
43
0.0
10
397.52101173134633
20
-123.73479781282816
10
407.52101173134628
20
-123.73479781282816
10
412.52101173134628
20
-115.07454377498378
10
407.52101173134633
20
-106.41428973713944
10
397.52101173134633
20
-106.41428973713944
10
392.52101173134633
20
-115.07454377498375
0
LWPOLYLINE
5
107
100
AcDbEntity
8
0
100
AcDbPolyline
90
6
70
1
43
0.0
10
479.84151980703501
20
-45.074543774983773
10
484.84151980703501
20
-53.734797812828184
10
494.84151980703501
20
-53.734797812828184
10
499.84151980703484
20
-45.074543774983809
10
494.84151980703501
20
-36.414289737139434
10
484.84151980703501
20
-36.414289737139434
0
LWPOLYLINE
5
108
100
AcDbEntity
8
0
100
AcDbPolyline
90
6
70
1
43
0.0
10
477.52101173134622
20
-243.73479781282805
10
482.52101173134611
20
-235.07454377498365
10
477.52101173134622
20
-226.41428973713931
10
467.52101173134622
20
-226.41428973713931
10
462.52101173134622
20
-235.07454377498368
10
467.52101173134622
20
-243.73479781282799
0
LWPOLYLINE
5
109
100
AcDbEntity
8
0
100
AcDbPolyline
90
6
70
1
43
0.0
10
477.52101173134628
20
-126.41428973713937
10
467.52101173134628
20
-126.41428973713934
10
462.52101173134628
20
-135.07454377498368
10
467.52101173134628
20
-143.73479781282808
10
477.52101173134628
20
-143.73479781282813
10
482.52101173134628
20
-135.07454377498371
0
LWPOLYLINE
5
110
100
AcDbEntity
8
0
100
AcDbPolyline
90
6
70
1
43
0.0
10
397.52101173134622
20
-26.41428973713947
10
392.52101173134633
20
-35.074543774983844
10
397.52101173134633
20
-43.734797812828184
10
407.52101173134622
20
-43.734797812828184
10
412.52101173134622
20
-35.074543774983844
10
407.52101173134633
20
-26.41428973713947
0
LWPOLYLINE
5
111
100
AcDbEntity
8
0
100
AcDbPolyline
90
6
70
1
43
0.0
10
414.84151980703501
20
-176.41428973713937
10
409.84151980703501
20
-185.07454377498368
10
414.84151980703501
20
-193.73479781282811
10
424.84151980703496
20
-193.73479781282811
10
429.84151980703496
20
-185.07454377498368
10
424.84151980703496
20
-176.41428973713937
0
LWPOLYLINE
5
112
100
AcDbEntity
8
0
100
AcDbPolyline
90
6
70
1
43
0.0
10
447.52101173134622
20
-35.074543774983809
10
442.52101173134622
20
-26.414289737139434
10
432.52101173134622
20
-26.414289737139434
10
427.52101173134622
20
-35.074543774983809
10
432.52101173134622
20
-43.734797812828148
10
442.52101173134622
20
-43.734797812828148
0
LWPOLYLINE
5
113
100
AcDbEntity
8
0
100
AcDbPolyline
90
6
70
1
43
0.0
10
429.84151980703501
20
-225.07454377498368
10
424.84151980703501
20
-216.41428973713928
10
414.84151980703501
20
-216.41428973713928
10
409.84151980703501
20
-225.07454377498368
10
414.84151980703501
20
-233.73479781282805
10
424.84151980703501
20
-233.73479781282805
0
LWPOLYLINE
5
114
100
AcDbEntity
8
0
100
AcDbPolyline
90
6
70
1
43
0.0
10
442.52101173134622
20
-63.734797812828184
10
447.52101173134622
20
-55.074543774983773
10
442.52101173134622
20
-46.414289737139434
10
432.52101173134622
20
-46.414289737139434
10
427.52101173134622
20
-55.074543774983773
10
432.52101173134622
20
-63.734797812828184
0
LWPOLYLINE
5
115
100
AcDbEntity
8
0
100
AcDbPolyline
90
6
70
1
43
0.0
10
432.52101173134622
20
-163.73479781282816
10
442.52101173134622
20
-163.73479781282816
10
447.52101173134628
20
-155.07454377498371
10
442.52101173134628
20
-146.41428973713934
10
432.52101173134628
20
-146.41428973713934
10
427.52101173134628
20
-155.07454377498368
0
LWPOLYLINE
5
116
100
AcDbEntity
8
0
100
AcDbPolyline
90
6
70
1
43
0.0
10
444.84151980703501
20
-105.07454377498375
10
449.84151980703501
20
-113.73479781282812
10
459.84151980703501
20
-113.73479781282809
10
464.84151980703501
20
-105.07454377498371
10
459.84151980703501
20
-96.414289737139413
10
449.84151980703501
20
-96.414289737139441
0
LWPOLYLINE
5
117
100
AcDbEntity
8
0
100
AcDbPolyline
90
6
70
1
43
0.0
10
407.52101173134633
20
-66.41428973713947
10
397.52101173134633
20
-66.41428973713947
10
392.52101173134633
20
-75.074543774983823
10
397.52101173134633
20
-83.734797812828162
10
407.52101173134628
20
-83.734797812828134
10
412.52101173134622
20
-75.074543774983809
0
LWPOLYLINE
5
118
100
AcDbEntity
8
0
100
AcDbPolyline
90
6
70
1
43
0.0
10
412.52101173134633
20
-95.074543774983823
10
407.52101173134633
20
-86.414289737139484
10
397.52101173134633
20
-86.414289737139484
10
392.52101173134633
20
-95.074543774983823
10
397.52101173134633
20
-103.73479781282819
10
407.52101173134633
20
-103.73479781282819
0
LWPOLYLINE
5
119
100
AcDbEntity
8
0
100
AcDbPolyline
90
6
70
1
43
0.0
10
459.84151980703496
20
-216.41428973713928
10
449.84151980703501
20
-216.41428973713928
10
444.84151980703501
20
-225.07454377498368
10
449.84151980703501
20
-233.73479781282805
10
459.84151980703496
20
-233.73479781282805
10
464.84151980703496
20
-225.07454377498368
0
LWPOLYLINE
5
120
100
AcDbEntity
8
0
100
AcDbPolyline
90
6
70
1
43
0.0
10
464.84151980703501
20
-145.07454377498368
10
459.84151980703501
20
-136.41428973713934
10
449.84151980703501
20
-136.41428973713937
10
444.84151980703501
20
-145.07454377498371
10
449.84151980703501
20
-153.73479781282813
10
459.84151980703501
20
-153.73479781282808
0
LWPOLYLINE
5
121
100
AcDbEntity
8
0
100
AcDbPolyline
90
6
70
1
43
0.0
10
392.52101173134628
20
-195.07454377498368
10
397.52101173134628
20
-203.73479781282811
10
407.52101173134628
20
-203.73479781282811
10
412.52101173134628
20
-195.07454377498368
10
407.52101173134628
20
-186.41428973713937
10
397.52101173134628
20
-186.41428973713937
0
LWPOLYLINE
5
122
100
AcDbEntity
8
0
100
AcDbPolyline
90
6
70
1
43
0.0
10
407.52101173134628
20
-226.41428973713937
10
397.52101173134628
20
-226.41428973713937
10
392.52101173134628
20
-235.07454377498368
10
397.52101173134633
20
-243.73479781282805
10
407.52101173134633
20
-243.73479781282805
10
412.52101173134628
20
-235.07454377498368
0
LWPOLYLINE
5
123
100
AcDbEntity
8
0
100
AcDbPolyline
90
6
70
1
43
0.0
10
427.52101173134628
20
-195.07454377498368
10
432.52101173134628
20
-203.73479781282811
10
442.52101173134622
20
-203.73479781282811
10
447.52101173134622
20
-195.07454377498368
10
442.52101173134628
20
-186.41428973713937
10
432.52101173134628
20
-186.41428973713937
0
LWPOLYLINE
5
124
100
AcDbEntity
8
0
100
AcDbPolyline
90
6
70
1
43
0.0
10
424.84151980703501
20
-93.734797812828234
10
429.84151980703501
20
-85.074543774983781
10
424.84151980703501
20
-76.41428973713947
10
414.84151980703501
20
-76.414289737139484
10
409.84151980703507
20
-85.074543774983823
10
414.84151980703507
20
-93.734797812828234
0
LWPOLYLINE
5
125
100
AcDbEntity
8
0
100
AcDbPolyline
90
6
70
1
43
0.0
10
464.84151980703496
20
-205.07454377498368
10
459.84151980703496
20
-196.41428973713937
10
449.84151980703496
20
-196.41428973713937
10
444.84151980703496
20
-205.07454377498368
10
449.84151980703501
20
-213.73479781282811
10
459.84151980703496
20
-213.73479781282811
0
LWPOLYLINE
5
126
100
AcDbEntity
8
0
100
AcDbPolyline
90
6
70
1
43
0.0
10
432.52101173134633
20
-243.73479781282805
10
442.52101173134622
20
-243.73479781282805
10
447.52101173134622
20
-235.07454377498368
10
442.52101173134628
20
-226.41428973713937
10
432.52101173134628
20
-226.41428973713937
10
427.52101173134628
20
-235.07454377498368
0
LWPOLYLINE
5
127
100
AcDbEntity
8
0
100
AcDbPolyline
90
6
70
1
43
0.0
10
449.84151980703496
20
-176.41428973713937
10
444.84151980703496
20
-185.07454377498368
10
449.84151980703496
20
-193.73479781282811
10
459.84151980703496
20
-193.73479781282811
10
464.84151980703496
20
-185.07454377498368
10
459.84151980703496
20
-176.41428973713937
0
LWPOLYLINE
5
128
100
AcDbEntity
8
0
100
AcDbPolyline
90
6
70
1
43
0.0
10
479.84151980703501
20
-85.074543774983781
10
484.84151980703501
20
-93.734797812828191
10
494.84151980703501
20
-93.734797812828191
10
499.84151980703496
20
-85.074543774983766
10
494.84151980703501
20
-76.414289737139441
10
484.84151980703501
20
-76.414289737139441
0
LWPOLYLINE
5
129
100
AcDbEntity
8
0
100
AcDbPolyline
90
6
70
1
43
0.0
10
397.52101173134628
20
-206.41428973713937
10
392.52101173134628
20
-215.07454377498368
10
397.52101173134628
20
-223.73479781282811
10
407.52101173134628
20
-223.73479781282811
10
412.52101173134628
20
-215.07454377498368
10
407.52101173134628
20
-206.41428973713937
0
LWPOLYLINE
5
130
100
AcDbEntity
8
0
100
AcDbPolyline
90
6
70
1
43
0.0
10
429.84151980703501
20
-145.07454377498371
10
424.84151980703501
20
-136.4142897371394
10
414.84151980703507
20
-136.4142897371394
10
409.84151980703507
20
-145.07454377498374
10
414.84151980703507
20
-153.73479781282816
10
424.84151980703501
20
-153.73479781282816
0
LWPOLYLINE
5
131
100
AcDbEntity
8
0
100
AcDbPolyline
90
6
70
1
43
0.0
10
424.84151980703501
20
-213.73479781282811
10
429.84151980703496
20
-205.07454377498368
10
424.84151980703496
20
-196.41428973713937
10
414.84151980703501
20
-196.41428973713937
10
409.84151980703501
20
-205.07454377498368
10
414.84151980703501
20
-213.73479781282811
0
LWPOLYLINE
5
132
100
AcDbEntity
8
0
100
AcDbPolyline
90
6
70
1
43
0.0
10
482.52101173134622
20
-175.07454377498365
10
477.52101173134622
20
-166.41428973713931
10
467.52101173134622
20
-166.41428973713931
10
462.52101173134622
20
-175.07454377498368
10
467.52101173134622
20
-183.73479781282808
10
477.52101173134622
20
-183.73479781282808
0
LWPOLYLINE
5
133
100
AcDbEntity
8
0
100
AcDbPolyline
90
6
70
1
43
0.0
10
459.84151980703501
20
-53.734797812828184
10
464.84151980703501
20
-45.074543774983773
10
459.84151980703501
20
-36.414289737139399
10
449.84151980703501
20
-36.414289737139434
10
444.84151980703501
20
-45.074543774983809
10
449.84151980703501
20
-53.734797812828184
0
LWPOLYLINE
5
134
100
AcDbEntity
8
0
100
AcDbPolyline
90
6
70
1
43
0.0
10
412.52101173134628
20
-155.07454377498374
10
407.52101173134633
20
-146.41428973713937
10
397.52101173134633
20
-146.41428973713937
10
392.52101173134633
20
-155.07454377498374
10
397.52101173134628
20
-163.73479781282816
10
407.52101173134622
20
-163.73479781282816
0
LWPOLYLINE
5
135
100
AcDbEntity
8
0
100
AcDbPolyline
90
6
70
1
43
0.0
10
449.84151980703501
20
-253.73479781282799
10
459.84151980703501
20
-253.73479781282799
10
464.84151980703501
20
-245.07454377498365
10
459.84151980703496
20
-236.41428973713937
10
449.84151980703501
20
-236.41428973713937
10
444.84151980703501
20
-245.07454377498368
0
LWPOLYLINE
5
136
100
AcDbEntity
8
0
100
AcDbPolyline
90
6
70
1
43
0.0
10
479.84151980703501
20
-25.074543774983773
10
484.84151980703501
20
-33.734797812828184
10
494.84151980703501
20
-33.734797812828184
10
499.84151980703484
20
-25.074543774983809
10
494.84151980703501
20
-16.414289737139434
10
484.84151980703501
20
-16.414289737139434
0
LWPOLYLINE
5
137
100
AcDbEntity
8
0
100
AcDbPolyline
90
6
70
1
43
0.0
10
462.52101173134622
20
-75.074543774983781
10
467.52101173134628
20
-83.734797812828091
10
477.52101173134622
20
-83.734797812828106
10
482.52101173134622
20
-75.074543774983781
10
477.52101173134622
20
-66.414289737139441
10
467.52101173134622
20
-66.414289737139441
0
LWPOLYLINE
5
138
100
AcDbEntity
8
0
100
AcDbPolyline
90
6
70
1
43
0.0
10
477.52101173134622
20
-26.414289737139434
10
467.52101173134622
20
-26.414289737139434
10
462.52101173134622
20
-35.074543774983773
10
467.52101173134622
20
-43.734797812828113
10
477.52101173134622
20
-43.734797812828113
10
482.52101173134622
20
-35.074543774983773
0
LWPOLYLINE
5
139
100
AcDbEntity
8
0
100
AcDbPolyline
90
6
70
1
43
0.0
10
449.84151980703501
20
-93.734797812828191
10
459.84151980703501
20
-93.734797812828162
10
464.84151980703501
20
-85.074543774983738
10
459.84151980703501
20
-76.414289737139441
10
449.84151980703501
20
-76.414289737139441
10
444.84151980703501
20
-85.074543774983781
0
LWPOLYLINE
5
140
100
AcDbEntity
8
0
100
AcDbPolyline
90
6
70
1
43
0.0
10
467.52101173134628
20
-123.73479781282809
10
477.52101173134622
20
-123.73479781282812
10
482.52101173134622
20
-115.07454377498371
10
477.52101173134628
20
-106.41428973713937
10
467.52101173134628
20
-106.41428973713937
10
462.52101173134628
20
-115.07454377498368
0
LWPOLYLINE
5
141
100
AcDbEntity
8
0
100
AcDbPolyline
90
6
70
1
43
0.0
10
449.84151980703496
20
-173.73479781282811
10
459.84151980703496
20
-173.73479781282811
10
464.84151980703496
20
-165.07454377498377
10
459.84151980703501
20
-156.41428973713931
10
449.84151980703501
20
-156.41428973713931
10
444.84151980703496
20
-165.07454377498377
0
LWPOLYLINE
5
142
100
AcDbEntity
8
0
100
AcDbPolyline
90
6
70
1
43
0.0
10
462.52101173134628
20
-155.07454377498365
10
467.52101173134622
20
-163.73479781282813
10
477.52101173134611
20
-163.73479781282816
10
482.52101173134622
20
-155.07454377498371
10
477.52101173134628
20
-146.41428973713931
10
467.52101173134628
20
-146.41428973713931
0
LWPOLYLINE
5
143
100
AcDbEntity
8
0
100
AcDbPolyline
90
6
70
1
43
0.0
10
444.84151980703501
20
-65.074543774983781
10
449.84151980703501
20
-73.73479781282812
10
459.84151980703501
20
-73.73479781282812
10
464.84151980703501
20
-65.074543774983781
10
459.84151980703501
20
-56.414289737139434
10
449.84151980703501
20
-56.414289737139434
0
LWPOLYLINE
5
144
100
AcDbEntity
8
0
100
AcDbPolyline
90
6
70
1
43
0.0
10
424.84151980703501
20
-96.414289737139484
10
414.84151980703507
20
-96.414289737139484
10
409.84151980703507
20
-105.07454377498378
10
414.84151980703507
20
-113.73479781282816
10
424.84151980703501
20
-113.73479781282816
10
429.84151980703501
20
-105.07454377498375
0
LWPOLYLINE
5
145
100
AcDbEntity
8
0
100
AcDbPolyline
90
6
70
1
43
0.0
10
392.52101173134628
20
-175.07454377498368
10
397.52101173134628
20
-183.73479781282811
10
407.52101173134628
20
-183.73479781282811
10
412.52101173134628
20
-175.07454377498368
10
407.52101173134628
20
-166.41428973713937
10
397.52101173134628
20
-166.41428973713937
0
LWPOLYLINE
5
146
100
AcDbEntity
8
0
100
AcDbPolyline
90
6
70
1
43
0.0
10
477.52101173134622
20
-186.41428973713931
10
467.52101173134622
20
-186.41428973713931
10
462.52101173134622
20
-195.07454377498368
10
467.52101173134622
20
-203.73479781282808
10
477.52101173134611
20
-203.73479781282808
10
482.52101173134611
20
-195.07454377498365
0
LWPOLYLINE
5
147
100
AcDbEntity
8
0
100
AcDbPolyline
90
6
70
1
43
0.0
10
484.84151980703501
20
-73.73479781282812
10
494.84151980703501
20
-73.73479781282812
10
499.84151980703484
20
-65.074543774983781
10
494.84151980703501
20
-56.414289737139434
10
484.84151980703501
20
-56.414289737139434
10
479.84151980703501
20
-65.074543774983781
0
LWPOLYLINE
5
148
100
AcDbEntity
8
0
100
AcDbPolyline
90
6
70
1
43
0.0
10
397.52101173134633
20
-143.73479781282816
10
407.52101173134633
20
-143.73479781282816
10
412.52101173134633
20
-135.07454377498374
10
407.52101173134633
20
-126.41428973713941
10
397.52101173134633
20
-126.41428973713941
10
392.52101173134633
20
-135.07454377498374
0
LWPOLYLINE
5
149
100
AcDbEntity
8
0
100
AcDbPolyline
90
6
70
1
43
0.0
10
412.52101173134633
20
-255.07454377498362
10
407.52101173134633
20
-246.41428973713937
10
397.52101173134633
20
-246.41428973713937
10
392.52101173134633
20
-255.07454377498365
10
397.52101173134633
20
-263.73479781282805
10
407.52101173134633
20
-263.73479781282805
0
LWPOLYLINE
5
150
100
AcDbEntity
8
0
100
AcDbPolyline
90
6
70
1
43
0.0
10
459.84151980703501
20
-33.734797812828148
10
464.84151980703501
20
-25.074543774983773
10
459.84151980703501
20
-16.414289737139434
10
449.84151980703501
20
-16.414289737139434
10
444.84151980703501
20
-25.074543774983809
10
449.84151980703501
20
-33.734797812828184
0
LWPOLYLINE
5
151
100
AcDbEntity
8
0
100
AcDbPolyline
90
6
70
1
43
0.0
10
432.52101173134628
20
-143.73479781282813
10
442.52101173134628
20
-143.73479781282813
10
447.52101173134628
20
-135.07454377498371
10
442.52101173134628
20
-126.41428973713937
10
432.52101173134628
20
-126.41428973713937
10
427.52101173134628
20
-135.07454377498371
0
LWPOLYLINE
5
152
100
AcDbEntity
8
0
100
AcDbPolyline
90
6
70
1
43
0.0
10
499.84151980703496
20
-185.07454377498365
10
494.84151980703496
20
-176.41428973713931
10
484.84151980703496
20
-176.41428973713931
10
479.84151980703496
20
-185.07454377498365
10
484.84151980703496
20
-193.73479781282808
10
494.84151980703496
20
-193.73479781282808
0
LWPOLYLINE
5
153
100
AcDbEntity
8
0
100
AcDbPolyline
90
6
70
1
43
0.0
10
442.52101173134628
20
-106.41428973713941
10
432.52101173134628
20
-106.41428973713941
10
427.52101173134628
20
-115.07454377498371
10
432.52101173134628
20
-123.73479781282812
10
442.52101173134628
20
-123.73479781282812
10
447.52101173134628
20
-115.07454377498375
0
LWPOLYLINE
5
154
100
AcDbEntity
8
0
100
AcDbPolyline
90
6
70
1
43
0.0
10
424.84151980703501
20
-116.41428973713941
10
414.84151980703507
20
-116.41428973713941
10
409.84151980703507
20
-125.07454377498375
10
414.84151980703507
20
-133.73479781282816
10
424.84151980703501
20
-133.73479781282816
10
429.84151980703501
20
-125.07454377498371
0
LWPOLYLINE
5
155
100
AcDbEntity
8
0
100
AcDbPolyline
90
6
70
1
43
0.0
10
409.84151980703501
20
-245.07454377498368
10
414.84151980703501
20
-253.73479781282805
10
424.84151980703501
20
-253.73479781282805
10
429.84151980703501
20
-245.07454377498368
10
424.84151980703501
20
-236.41428973713937
10
414.84151980703501
20
-236.41428973713937
0
LWPOLYLINE
5
156
100
AcDbEntity
8
0
100
AcDbPolyline
90
6
70
1
43
0.0
10
447.52101173134628
20
-215.07454377498368
10
442.52101173134628
20
-206.41428973713937
10
432.52101173134628
20
-206.41428973713937
10
427.52101173134628
20
-215.07454377498368
10
432.52101173134628
20
-223.73479781282811
10
442.52101173134628
20
-223.73479781282811
0
LWPOLYLINE
5
157
100
AcDbEntity
8
0
100
AcDbPolyline
90
6
70
1
43
0.0
10
494.84151980703501
20
-113.73479781282812
10
499.84151980703496
20
-105.07454377498371
10
494.84151980703501
20
-96.414289737139441
10
484.84151980703501
20
-96.414289737139441
10
479.84151980703501
20
-105.07454377498371
10
484.84151980703501
20
-113.73479781282812
0
LWPOLYLINE
5
158
100
AcDbEntity
8
0
100
AcDbPolyline
90
6
70
1
43
0.0
10
494.84151980703496
20
-213.73479781282808
10
499.84151980703496
20
-205.07454377498365
10
494.84151980703496
20
-196.41428973713931
10
484.84151980703496
20
-196.41428973713931
10
479.84151980703496
20
-205.07454377498365
10
484.84151980703496
20
-213.73479781282808
0
LWPOLYLINE
5
159
100
AcDbEntity
8
0
100
AcDbPolyline
90
6
70
1
43
0.0
10
484.84151980703496
20
-233.73479781282799
10
494.84151980703496
20
-233.73479781282799
10
499.84151980703496
20
-225.07454377498362
10
494.84151980703496
20
-216.41428973713926
10
484.84151980703496
20
-216.41428973713926
10
479.84151980703496
20
-225.07454377498365
0
LWPOLYLINE
5
160
100
AcDbEntity
8
0
100
AcDbPolyline
90
6
70
1
43
0.0
10
414.84151980703501
20
-36.41428973713947
10
409.84151980703501
20
-45.074543774983844
10
414.84151980703501
20
-53.734797812828219
10
424.84151980703501
20
-53.734797812828219
10
429.84151980703501
20
-45.074543774983809
10
424.84151980703501
20
-36.41428973713947
0
LWPOLYLINE
5
161
100
AcDbEntity
8
0
100
AcDbPolyline
90
6
70
1
43
0.0
10
477.52101173134622
20
-206.41428973713931
10
467.52101173134622
20
-206.41428973713931
10
462.52101173134622
20
-215.07454377498368
10
467.52101173134622
20
-223.73479781282808
10
477.52101173134622
20
-223.73479781282808
10
482.52101173134622
20
-215.07454377498365
0
LWPOLYLINE
5
162
100
AcDbEntity
8
0
100
AcDbPolyline
90
6
70
1
43
0.0
10
427.52101173134622
20
-75.074543774983781
10
432.52101173134628
20
-83.73479781282812
10
442.52101173134628
20
-83.734797812828106
10
447.52101173134622
20
-75.074543774983781
10
442.52101173134622
20
-66.414289737139441
10
432.52101173134622
20
-66.414289737139441
0
LWPOLYLINE
5
163
100
AcDbEntity
8
0
100
AcDbPolyline
90
6
70
1
43
0.0
10
424.84151980703501
20
-33.734797812828219
10
429.84151980703501
20
-25.074543774983809
10
424.84151980703501
20
-16.41428973713947
10
414.84151980703501
20
-16.41428973713947
10
409.84151980703501
20
-25.074543774983844
10
414.84151980703501
20
-33.734797812828219
0
LWPOLYLINE
5
164
100
AcDbEntity
8
0
100
AcDbPolyline
90
6
70
1
43
0.0
10
477.52101173134628
20
-103.73479781282812
10
482.52101173134628
20
-95.074543774983781
10
477.52101173134628
20
-86.414289737139441
10
467.52101173134628
20
-86.414289737139413
10
462.52101173134628
20
-95.074543774983752
10
467.52101173134628
20
-103.73479781282812
0
LWPOLYLINE
5
165
100
AcDbEntity
8
0
100
AcDbPolyline
90
6
70
1
43
0.0
10
494.84151980703501
20
-136.41428973713937
10
484.84151980703501
20
-136.41428973713937
10
479.84151980703501
20
-145.07454377498371
10
484.84151980703501
20
-153.73479781282813
10
494.84151980703501
20
-153.73479781282813
10
499.84151980703496
20
-145.07454377498371
0
LWPOLYLINE
5
166
100
AcDbEntity
8
0
100
AcDbPolyline
90
6
70
1
43
0.0
10
442.52101173134622
20
-166.41428973713937
10
432.52101173134622
20
-166.41428973713937
10
427.52101173134628
20
-175.07454377498368
10
432.52101173134628
20
-183.73479781282811
10
442.52101173134628
20
-183.73479781282811
10
447.52101173134628
20
-175.07454377498368
0
LWPOLYLINE
5
167
100
AcDbEntity
8
0
100
AcDbPolyline
90
6
70
1
43
0.0
10
499.84151980703501
20
-245.07454377498365
10
494.84151980703496
20
-236.41428973713931
10
484.84151980703496
20
-236.41428973713931
10
479.84151980703501
20
-245.07454377498365
10
484.84151980703501
20
-253.73479781282799
10
494.84151980703501
20
-253.73479781282799
0
LWPOLYLINE
5
168
100
AcDbEntity
8
0
100
AcDbPolyline
90
6
70
1
43
0.0
10
494.84151980703496
20
-173.73479781282808
10
499.84151980703496
20
-165.07454377498368
10
494.84151980703501
20
-156.41428973713931
10
484.84151980703501
20
-156.41428973713928
10
479.84151980703496
20
-165.07454377498374
10
484.84151980703496
20
-173.73479781282808
0
LWPOLYLINE
5
169
100
AcDbEntity
8
0
100
AcDbPolyline
90
6
70
1
43
0.0
10
447.52101173134628
20
-95.074543774983781
10
442.52101173134628
20
-86.414289737139441
10
432.52101173134628
20
-86.414289737139441
10
427.52101173134628
20
-95.074543774983781
10
432.52101173134628
20
-103.73479781282816
10
442.52101173134628
20
-103.73479781282816
0
LWPOLYLINE
5
170
100
AcDbEntity
8
0
100
AcDbPolyline
90
6
70
1
43
0.0
10
414.84151980703501
20
-56.41428973713947
10
409.84151980703501
20
-65.074543774983809
10
414.84151980703501
20
-73.734797812828148
10
424.84151980703501
20
-73.734797812828148
10
429.84151980703501
20
-65.074543774983781
10
424.84151980703501
20
-56.41428973713947
0
LWPOLYLINE
5
171
100
AcDbEntity
8
0
100
AcDbPolyline
90
6
70
1
43
0.0
10
462.52101173134622
20
-255.07454377498362
10
467.52101173134622
20
-263.73479781282799
10
477.52101173134622
20
-263.73479781282799
10
482.52101173134622
20
-255.0745437749836
10
477.52101173134622
20
-246.41428973713931
10
467.52101173134622
20
-246.41428973713931
0
LWPOLYLINE
5
172
100
AcDbEntity
8
0
100
AcDbPolyline
90
6
70
1
43
0.0
10
392.52101173134633
20
-55.074543774983809
10
397.52101173134633
20
-63.734797812828219
10
407.52101173134633
20
-63.734797812828219
10
412.52101173134633
20
-55.074543774983809
10
407.52101173134633
20
-46.41428973713947
10
397.52101173134633
20
-46.41428973713947
0
ENDSEC
0
SECTION
2
OBJECTS
0
DICTIONARY
5
C
100
AcDbDictionary
3
ACAD_GROUP
350
D
3
ACAD_MLINESTYLE
350
17
0
DICTIONARY
5
D
100
AcDbDictionary
0
DICTIONARY
5
1A
330
C
100
AcDbDictionary
0
DICTIONARY
5
17
100
AcDbDictionary
0
ENDSEC
0
EOF
