0
SECTION
2
HEADER
9
$INSUNITS
70
4
9
$ACADVER
1
AC1014
9
$HANDSEED
5
FFFF
0
ENDSEC
0
SECTION
2
TABLES
0
TABLE
2
VPORT
5
8
100
AcDbSymbolTable
0
ENDTAB
0
TABLE
2
LTYPE
5
5
100
AcDbSymbolTable
0
LTYPE
5
14
100
AcDbSymbolTableRecord
100
AcDbLinetypeTableRecord
2
BYBLOCK
70
0
0
LTYPE
5
15
100
AcDbSymbolTableRecord
100
AcDbLinetypeTableRecord
2
BYLAYER
70
0
0
ENDTAB
0
TABLE
2
LAYER
5
2
100
AcDbSymbolTable
70
2
0
LAYER
5
50
100
AcDbSymbolTableRecord
100
AcDbLayerTableRecord
2
0
70
0
6
CONTINUOUS
0
ENDTAB
0
TABLE
2
STYLE
5
3
100
AcDbSymbolTable
70
1
0
STYLE
5
11
100
AcDbSymbolTableRecord
100
AcDbTextStyleTableRecord
2
STANDARD
70
0
0
ENDTAB
0
TABLE
2
VIEW
5
6
100
AcDbSymbolTable
70
0
0
ENDTAB
0
TABLE
2
UCS
5
7
100
AcDbSymbolTable
70
0
0
ENDTAB
0
TABLE
2
APPID
5
9
100
AcDbSymbolTable
70
2
0
APPID
5
12
100
AcDbSymbolTableRecord
100
AcDbRegAppTableRecord
2
ACAD
70
0
0
ENDTAB
0
TABLE
2
DIMSTYLE
5
A
100
AcDbSymbolTable
70
1
0
ENDTAB
0
TABLE
2
BLOCK_RECORD
5
1
100
AcDbSymbolTable
70
1
0
BLOCK_RECORD
5
1F
100
AcDbSymbolTableRecord
100
AcDbBlockTableRecord
2
*MODEL_SPACE
0
BLOCK_RECORD
5
1B
100
AcDbSymbolTableRecord
100
AcDbBlockTableRecord
2
*PAPER_SPACE
0
ENDTAB
0
ENDSEC
0
SECTION
2
BLOCKS
0
BLOCK
5
20
100
AcDbEntity
100
AcDbBlockBegin
2
*MODEL_SPACE
0
ENDBLK
5
21
100
AcDbEntity
100
AcDbBlockEnd
0
BLOCK
5
1C
100
AcDbEntity
100
AcDbBlockBegin
2
*PAPER_SPACE
0
ENDBLK
5
1D
100
AcDbEntity
100
AcDbBlockEnd
0
ENDSEC
0
SECTION
2
ENTITIES
0
CIRCLE
5
100
100
AcDbEntity
8
0
100
AcDbCircle
10
-674.50252149601329
20
216.47769259972938
30
0
40
1.4000000000000057
210
0
220
-0
230
1
0
CIRCLE
5
101
100
AcDbEntity
8
0
100
AcDbCircle
10
-542.38252149601351
20
216.47769259972947
30
0
40
1.4000000000000057
210
0
220
-0
230
1
0
CIRCLE
5
102
100
AcDbEntity
8
0
100
AcDbCircle
10
-697.32252149601322
20
58.997692599729547
30
0
40
1.4000000000000057
210
0
220
-0
230
1
0
LWPOLYLINE
5
103
100
AcDbEntity
8
0
100
AcDbPolyline
90
4
70
1
43
0.0
10
-564.02252154134987
20
239.91069251494781
10
-556.02252154134999
20
239.91069251494781
10
-556.02252154134999
20
244.91069251494781
10
-564.02252154134987
20
244.91069251494781
0
CIRCLE
5
104
100
AcDbEntity
8
0
100
AcDbCircle
10
-542.3825214960134
20
58.997692599729639
30
0
40
1.4000000000000057
210
0
220
-0
230
1
0
LWPOLYLINE
5
105
100
AcDbEntity
8
0
100
AcDbPolyline
90
4
70
1
43
0.0
10
-707.48252154134957
20
27.450692599729614
10
-707.48252154134957
20
39.650692599729574
10
-709.50252154134955
20
39.650692599729574
10
-709.50252154134955
20
27.450692599729614
0
LWPOLYLINE
5
106
100
AcDbEntity
8
0
100
AcDbPolyline
90
4
70
1
43
0.0
10
-709.50252154134955
20
47.770692599729543
10
-707.48252154134957
20
47.770692599729614
10
-707.48252154134957
20
59.970692599729588
10
-709.50252154134955
20
59.970692599729588
0
LWPOLYLINE
5
107
100
AcDbEntity
8
0
100
AcDbPolyline
90
8
70
1
43
0.0
10
-565.2425214960133
20
94.397692599729496
10
-565.24252149601341
20
188.69769259972963
42
0.41421356237309709
10
-575.24252149601341
20
198.69769259972955
10
-679.70252149601333
20
198.69769259972946
42
0.41421356237309503
10
-689.70252149601333
20
188.69769259972946
10
-689.70252149601333
20
94.397692599729396
42
0.4142135623730992
10
-679.70252149601322
20
84.39769259972941
10
-575.24252149601341
20
84.397692599729496
42
0.41421356237309709
0
LWPOLYLINE
5
108
100
AcDbEntity
8
0
100
AcDbPolyline
90
77
70
1
43
0.0
10
-710.02252112411713
20
171.91069251494778
10
-710.02252154134965
20
221.91069251494775
10
-710.02252154134965
20
222.91069251494775
10
-717.02252154134965
20
222.91069251494781
42
-0.41421356237309503
10
-720.02252154134965
20
225.91069251494781
10
-720.02252154134965
20
244.91069251494787
42
-0.41421356237311585
10
-717.02252154134965
20
247.91069251494773
10
-715.02252154134965
20
247.91069251494773
10
-715.02252154134965
20
234.9106925149477
10
-670.02252154134976
20
234.91069251494778
10
-670.02252154134965
20
239.91069251494778
42
-0.41421356237308815
10
-667.02252154134965
20
242.91069251494775
10
-623.02252154134987
20
242.91069251494781
42
-0.41421356237308116
10
-620.02252154134976
20
239.91069251494778
10
-620.02252154134976
20
234.91069251494778
10
-590.02252154134987
20
234.91069251494778
10
-590.02252154134999
20
254.9106925149479
42
-0.41421356237310897
10
-587.02252154134987
20
257.91069251494781
10
-533.0225215413501
20
257.91069251494798
42
-0.41421356237311585
10
-530.02252154134999
20
254.91069251494793
10
-530.02252154134999
20
234.91069251494781
10
-500.02252154134999
20
234.91069251494781
10
-500.02252154134999
20
239.91069251494781
42
-0.41421356237308815
10
-497.02252154134999
20
242.91069251494778
10
-453.0225215413501
20
242.91069251494773
42
-0.41421356237310897
10
-450.0225215413501
20
239.91069251494781
10
-450.0225215413501
20
234.91069251494781
10
-405.0225215413501
20
234.91069251494781
10
-405.0225215413501
20
247.91069251494781
10
-403.0225215413501
20
247.91069251494787
42
-0.41421356237312279
10
-400.02252154135022
20
244.91069251494795
10
-400.0225215413501
20
224.91069251494795
42
-0.41421356237312279
10
-403.02252154135022
20
221.91069251494798
10
-410.02252154134999
20
221.91069251494784
10
-410.02252154134999
20
145.91069251494798
10
-405.0225215413501
20
145.91069251494798
10
-405.0225215413501
20
158.91069251494793
10
-403.0225215413501
20
158.91069251494801
42
-0.41421356237309503
10
-400.0225215413501
20
155.91069251494798
10
-400.02252154134999
20
136.91069251494801
42
-0.41421356237309503
10
-403.02252154135022
20
133.91069251494795
10
-410.02252154134999
20
133.91069251494795
10
-410.02252154134999
20
65.910692514948025
10
-405.0225215413501
20
65.910692514948025
10
-405.0225215413501
20
76.910692514948025
10
-403.02252154135005
20
76.910692514948039
42
-0.41421356237309503
10
-400.0225215413501
20
73.910692514948067
10
-400.0225215413501
20
26.910692514948096
42
-0.41421356237309503
10
-403.02252154135005
20
23.910692514948124
10
-410.02252154134999
20
23.910692514948124
10
-410.02252154134999
20
9.6106925149481537
10
-440.02252154134999
20
9.6106925149481448
10
-440.02252154134999
20
4.6106925149481581
10
-545.02252133273362
20
4.6106925149480027
10
-545.02252133273362
20
9.6106925149479885
10
-575.02252133273362
20
9.6106925149479849
10
-575.02252133273362
20
4.6106925149479983
10
-680.02252112411725
20
4.6106925149479805
10
-680.02252112411725
20
9.6106925149479672
10
-710.02252112411713
20
9.6106925149479636
10
-710.02252112411725
20
19.910692514948032
42
0.41421356237307488
10
-712.02252112411713
20
21.910692514947986
10
-717.02252154134953
20
21.910692514947911
42
-0.41421356237309503
10
-720.02252154134965
20
24.910692514948025
10
-720.02252154134965
20
71.910692514947982
42
-0.41421356237308815
10
-717.02252154134953
20
74.910692514947954
10
-715.02252112411713
20
74.910692514947897
10
-715.02252112411713
20
65.910692514947897
10
-710.02252112411713
20
65.910692514947897
10
-710.02252112411713
20
133.91069251494784
10
-717.02252154134953
20
133.9106925149477
42
-0.41421356237309503
10
-720.02252154134965
20
136.91069251494781
10
-720.02252154134953
20
155.91069251494784
42
-0.41421356237309503
10
-717.02252154134953
20
158.91069251494781
10
-715.02252112411713
20
158.91069251494781
10
-715.02252112411713
20
145.91069251494784
10
-710.02252112411713
20
145.91069251494784
0
ENDSEC
0
SECTION
2
OBJECTS
0
DICTIONARY
5
C
100
AcDbDictionary
3
ACAD_GROUP
350
D
3
ACAD_MLINESTYLE
350
17
0
DICTIONARY
5
D
100
AcDbDictionary
0
DICTIONARY
5
1A
330
C
100
AcDbDictionary
0
DICTIONARY
5
17
100
AcDbDictionary
0
ENDSEC
0
EOF
