0
SECTION
2
HEADER
9
$INSUNITS
70
4
9
$ACADVER
1
AC1014
9
$HANDSEED
5
FFFF
0
ENDSEC
0
SECTION
2
TABLES
0
TABLE
2
VPORT
5
8
100
AcDbSymbolTable
0
ENDTAB
0
TABLE
2
LTYPE
5
5
100
AcDbSymbolTable
0
LTYPE
5
14
100
AcDbSymbolTableRecord
100
AcDbLinetypeTableRecord
2
BYBLOCK
70
0
0
LTYPE
5
15
100
AcDbSymbolTableRecord
100
AcDbLinetypeTableRecord
2
BYLAYER
70
0
0
ENDTAB
0
TABLE
2
LAYER
5
2
100
AcDbSymbolTable
70
2
0
LAYER
5
50
100
AcDbSymbolTableRecord
100
AcDbLayerTableRecord
2
0
70
0
6
CONTINUOUS
0
ENDTAB
0
TABLE
2
STYLE
5
3
100
AcDbSymbolTable
70
1
0
STYLE
5
11
100
AcDbSymbolTableRecord
100
AcDbTextStyleTableRecord
2
STANDARD
70
0
0
ENDTAB
0
TABLE
2
VIEW
5
6
100
AcDbSymbolTable
70
0
0
ENDTAB
0
TABLE
2
UCS
5
7
100
AcDbSymbolTable
70
0
0
ENDTAB
0
TABLE
2
APPID
5
9
100
AcDbSymbolTable
70
2
0
APPID
5
12
100
AcDbSymbolTableRecord
100
AcDbRegAppTableRecord
2
ACAD
70
0
0
ENDTAB
0
TABLE
2
DIMSTYLE
5
A
100
AcDbSymbolTable
70
1
0
ENDTAB
0
TABLE
2
BLOCK_RECORD
5
1
100
AcDbSymbolTable
70
1
0
BLOCK_RECORD
5
1F
100
AcDbSymbolTableRecord
100
AcDbBlockTableRecord
2
*MODEL_SPACE
0
BLOCK_RECORD
5
1B
100
AcDbSymbolTableRecord
100
AcDbBlockTableRecord
2
*PAPER_SPACE
0
ENDTAB
0
ENDSEC
0
SECTION
2
BLOCKS
0
BLOCK
5
20
100
AcDbEntity
100
AcDbBlockBegin
2
*MODEL_SPACE
0
ENDBLK
5
21
100
AcDbEntity
100
AcDbBlockEnd
0
BLOCK
5
1C
100
AcDbEntity
100
AcDbBlockBegin
2
*PAPER_SPACE
0
ENDBLK
5
1D
100
AcDbEntity
100
AcDbBlockEnd
0
ENDSEC
0
SECTION
2
ENTITIES
0
LWPOLYLINE
5
100
100
AcDbEntity
8
0
100
AcDbPolyline
90
50
70
1
43
0.0
10
324.00000000000006
20
-147.09501454210334
42
-0.41421356237310025
10
327
20
-150.09501454210337
10
327
20
-204.09501454210343
42
-0.41421356237309853
10
324.00000000000006
20
-207.0950145421034
10
317
20
-207.0950145421034
10
317
20
-327.0950145421034
10
299
20
-327.0950145421034
10
299
20
-332.0950145421034
10
320
20
-332.0950145421034
10
320
20
-334.09501454210351
42
-0.41421356237312279
10
317
20
-337.09501454210346
10
283
20
-337.09501454210351
42
-0.41421356237310197
10
280
20
-334.09501454210357
10
280
20
-327.0950145421034
10
159
20
-327.0950145421034
10
159
20
-332.09501454210346
10
180
20
-332.09501454210346
10
179.99999999999997
20
-334.09501454210351
42
-0.41421356237312279
10
177
20
-337.09501454210346
10
143
20
-337.09501454210351
42
-0.41421356237310025
10
140
20
-334.09501454210357
10
140
20
-327.0950145421034
10
92.000000000000028
20
-327.0950145421034
10
92.000000000000028
20
-297.0950145421034
10
87.000000000000028
20
-297.0950145421034
10
87.000000000000028
20
-192.0950145421034
10
92.000000000000028
20
-192.0950145421034
10
92.000000000000028
20
-162.0950145421034
10
87.000000000000028
20
-162.0950145421034
10
87.000000000000028
20
-57.095014542103364
10
92.000000000000028
20
-57.095014542103364
10
92.000000000000028
20
-27.095014542103364
10
140
20
-27.095014542103364
10
139.99999999999997
20
-20.095014542103371
42
-0.4142135623730937
10
143
20
-17.095014542103367
10
177
20
-17.095014542103367
42
-0.41421356237309465
10
180
20
-20.095014542103371
10
180
20
-22.095014542103364
10
160
20
-22.095014542103357
10
160
20
-27.095014542103364
10
280
20
-27.095014542103364
10
279.99999999999994
20
-20.095014542103371
42
-0.41421356237308943
10
283
20
-17.095014542103367
10
317
20
-17.095014542103367
42
-0.41421356237309465
10
320
20
-20.095014542103371
10
320
20
-22.095014542103364
10
300
20
-22.095014542103357
10
300
20
-27.095014542103364
10
317
20
-27.095014542103364
10
317
20
-147.09501454210337
0
LWPOLYLINE
5
101
100
AcDbEntity
8
0
100
AcDbPolyline
90
6
70
1
43
0.0
10
245
20
-215.8845726811991
10
253.66025403784437
20
-210.8845726811991
10
253.66025403784437
20
-200.8845726811991
10
245
20
-195.8845726811991
10
236.33974596215563
20
-200.8845726811991
10
236.33974596215563
20
-210.8845726811991
0
LWPOLYLINE
5
102
100
AcDbEntity
8
0
100
AcDbPolyline
90
6
70
1
43
0.0
10
285.00000000000068
20
-250.52558883257558
10
293.66025403784511
20
-245.52558883257558
10
293.66025403784511
20
-235.52558883257558
10
285.00000000000068
20
-230.52558883257558
10
276.33974596215631
20
-235.52558883257558
10
276.33974596215631
20
-245.52558883257558
0
LWPOLYLINE
5
103
100
AcDbEntity
8
0
100
AcDbPolyline
90
6
70
1
43
0.0
10
245.00000000000011
20
-250.52558883257558
10
253.66025403784352
20
-245.52558883257615
10
253.66025403784352
20
-235.52558883257728
10
245.00000000000011
20
-230.52558883257785
10
236.33974596215668
20
-235.52558883257728
10
236.33974596215668
20
-245.52558883257615
0
LWPOLYLINE
5
104
100
AcDbEntity
8
0
100
AcDbPolyline
90
6
70
1
43
0.0
10
224.99999999999997
20
-250.52558883257731
10
233.66025403784445
20
-245.52558883257728
10
233.66025403784445
20
-235.52558883257717
10
225
20
-230.52558883257711
10
216.33974596215552
20
-235.52558883257714
10
216.33974596215549
20
-245.5255888325772
0
LWPOLYLINE
5
105
100
AcDbEntity
8
0
100
AcDbPolyline
90
6
70
1
43
0.0
10
265.00000000000085
20
-250.52558883257558
10
273.6602540378446
20
-245.52558883257598
10
273.66025403784465
20
-235.52558883257672
10
265.00000000000091
20
-230.52558883257703
10
256.33974596215705
20
-235.52558883257663
10
256.33974596215705
20
-245.52558883257592
0
LWPOLYLINE
5
106
100
AcDbEntity
8
0
100
AcDbPolyline
90
6
70
1
43
0.0
10
265
20
-215.8845726811991
10
273.66025403784437
20
-210.8845726811991
10
273.66025403784437
20
-200.8845726811991
10
265
20
-195.8845726811991
10
256.33974596215563
20
-200.8845726811991
10
256.33974596215563
20
-210.8845726811991
0
LWPOLYLINE
5
107
100
AcDbEntity
8
0
100
AcDbPolyline
90
6
70
1
43
0.0
10
254.99999999999986
20
-198.56406460551025
10
263.66025403784425
20
-193.56406460551025
10
263.66025403784425
20
-183.56406460551025
10
254.99999999999986
20
-178.56406460551025
10
246.33974596215549
20
-183.56406460551025
10
246.33974596215549
20
-193.56406460551025
0
LWPOLYLINE
5
108
100
AcDbEntity
8
0
100
AcDbPolyline
90
6
70
1
43
0.0
10
275.00000000000011
20
-233.20508075688733
10
283.66025403784454
20
-228.20508075688733
10
283.66025403784454
20
-218.20508075688733
10
275.00000000000011
20
-213.20508075688733
10
266.33974596215575
20
-218.20508075688733
10
266.33974596215575
20
-228.20508075688733
0
LWPOLYLINE
5
109
100
AcDbEntity
8
0
100
AcDbPolyline
90
6
70
1
43
0.0
10
234.99999999999977
20
-233.20508075688807
10
243.66025403784431
20
-228.20508075688798
10
243.66025403784431
20
-218.20508075688787
10
234.99999999999977
20
-213.20508075688778
10
226.33974596215526
20
-218.20508075688787
10
226.33974596215526
20
-228.20508075688798
0
LWPOLYLINE
5
110
100
AcDbEntity
8
0
100
AcDbPolyline
90
6
70
1
43
0.0
10
204.99999999999889
20
-250.52558883257731
10
213.66025403784337
20
-245.52558883257728
10
213.66025403784337
20
-235.52558883257717
10
204.99999999999892
20
-230.52558883257711
10
196.33974596215444
20
-235.52558883257714
10
196.33974596215441
20
-245.5255888325772
0
LWPOLYLINE
5
111
100
AcDbEntity
8
0
100
AcDbPolyline
90
6
70
1
43
0.0
10
255.00000000000014
20
-233.20508075688795
10
263.66025403784454
20
-228.20508075688795
10
263.66025403784454
20
-218.20508075688795
10
255.00000000000014
20
-213.20508075688795
10
246.33974596215577
20
-218.20508075688795
10
246.33974596215577
20
-228.20508075688795
0
LWPOLYLINE
5
112
100
AcDbEntity
8
0
100
AcDbPolyline
90
6
70
1
43
0.0
10
295.00000000000011
20
-233.20508075688733
10
303.66025403784454
20
-228.20508075688733
10
303.66025403784454
20
-218.20508075688733
10
295.00000000000011
20
-213.20508075688733
10
286.33974596215575
20
-218.20508075688733
10
286.33974596215575
20
-228.20508075688733
0
LWPOLYLINE
5
113
100
AcDbEntity
8
0
100
AcDbPolyline
90
6
70
1
43
0.0
10
274.99999999999989
20
-198.56406460551025
10
283.66025403784425
20
-193.56406460551025
10
283.66025403784425
20
-183.56406460551025
10
274.99999999999989
20
-178.56406460551025
10
266.33974596215546
20
-183.56406460551025
10
266.33974596215546
20
-193.56406460551025
0
LWPOLYLINE
5
114
100
AcDbEntity
8
0
100
AcDbPolyline
90
6
70
1
43
0.0
10
196.33974596215566
20
-166.24355652982143
10
196.33974596215566
20
-176.24355652982138
10
205
20
-181.24355652982138
10
213.66025403784442
20
-176.24355652982138
10
213.66025403784442
20
-166.24355652982138
10
205
20
-161.24355652982138
0
LWPOLYLINE
5
115
100
AcDbEntity
8
0
100
AcDbPolyline
90
6
70
1
43
0.0
10
275
20
-143.9230484541327
10
266.33974596215563
20
-148.9230484541327
10
266.33974596215558
20
-158.92304845413267
10
274.99999999999994
20
-163.9230484541327
10
283.66025403784431
20
-158.9230484541327
10
283.66025403784437
20
-148.9230484541327
0
LWPOLYLINE
5
116
100
AcDbEntity
8
0
100
AcDbPolyline
90
6
70
1
43
0.0
10
165
20
-77.32050807568875
10
173.66025403784437
20
-72.320508075688764
10
173.66025403784437
20
-62.320508075688778
10
165
20
-57.320508075688764
10
156.33974596215563
20
-62.320508075688764
10
156.33974596215563
20
-72.320508075688764
0
LWPOLYLINE
5
117
100
AcDbEntity
8
0
100
AcDbPolyline
90
6
70
1
43
0.0
10
213.66025403784437
20
-141.60254037844385
10
213.66025403784437
20
-131.60254037844385
10
205
20
-126.60254037844385
10
196.33974596215563
20
-131.60254037844385
10
196.33974596215563
20
-141.60254037844385
10
205
20
-146.60254037844385
0
LWPOLYLINE
5
118
100
AcDbEntity
8
0
100
AcDbPolyline
90
6
70
1
43
0.0
10
143.66025403784437
20
-55
10
143.66025403784437
20
-45.000000000000007
10
135
20
-40.000000000000014
10
126.33974596215563
20
-45.000000000000007
10
126.33974596215563
20
-54.999999999999993
10
135
20
-60
0
LWPOLYLINE
5
119
100
AcDbEntity
8
0
100
AcDbPolyline
90
6
70
1
43
0.0
10
293.66025403784431
20
-141.60254037844393
10
293.66025403784437
20
-131.60254037844399
10
285
20
-126.60254037844396
10
276.33974596215563
20
-131.60254037844396
10
276.33974596215558
20
-141.60254037844396
10
284.99999999999994
20
-146.60254037844393
0
LWPOLYLINE
5
120
100
AcDbEntity
8
0
100
AcDbPolyline
90
6
70
1
43
0.0
10
245
20
-77.32050807568875
10
253.66025403784437
20
-72.320508075688764
10
253.66025403784437
20
-62.320508075688778
10
245
20
-57.320508075688764
10
236.33974596215563
20
-62.320508075688764
10
236.33974596215563
20
-72.320508075688764
0
LWPOLYLINE
5
121
100
AcDbEntity
8
0
100
AcDbPolyline
90
6
70
1
43
0.0
10
213.66025403784437
20
-72.320508075688764
10
213.66025403784437
20
-62.320508075688778
10
205
20
-57.320508075688764
10
196.33974596215563
20
-62.320508075688764
10
196.33974596215563
20
-72.320508075688764
10
205
20
-77.32050807568875
0
LWPOLYLINE
5
122
100
AcDbEntity
8
0
100
AcDbPolyline
90
6
70
1
43
0.0
10
145
20
-77.32050807568875
10
153.66025403784437
20
-72.320508075688764
10
153.66025403784437
20
-62.320508075688778
10
145
20
-57.320508075688764
10
136.33974596215563
20
-62.320508075688764
10
136.33974596215563
20
-72.320508075688764
0
LWPOLYLINE
5
123
100
AcDbEntity
8
0
100
AcDbPolyline
90
6
70
1
43
0.0
10
165
20
-111.96152422706635
10
173.66025403784437
20
-106.96152422706635
10
173.66025403784442
20
-96.961524227066349
10
165.00000000000003
20
-91.961524227066391
10
156.33974596215566
20
-96.961524227066391
10
156.33974596215566
20
-106.96152422706635
0
LWPOLYLINE
5
124
100
AcDbEntity
8
0
100
AcDbPolyline
90
6
70
1
43
0.0
10
275
20
-129.28203230275514
10
283.66025403784437
20
-124.28203230275514
10
283.66025403784437
20
-114.28203230275517
10
275
20
-109.28203230275517
10
266.33974596215563
20
-114.28203230275517
10
266.33974596215558
20
-124.28203230275517
0
LWPOLYLINE
5
125
100
AcDbEntity
8
0
100
AcDbPolyline
90
6
70
1
43
0.0
10
275
20
-60
10
283.66025403784437
20
-55
10
283.66025403784437
20
-45.000000000000007
10
275
20
-40.000000000000014
10
266.33974596215563
20
-45.000000000000007
10
266.33974596215563
20
-54.999999999999993
0
LWPOLYLINE
5
126
100
AcDbEntity
8
0
100
AcDbPolyline
90
6
70
1
43
0.0
10
195.00000000000003
20
-109.28203230275513
10
186.33974596215566
20
-114.28203230275513
10
186.33974596215566
20
-124.28203230275508
10
195
20
-129.28203230275506
10
203.66025403784442
20
-124.28203230275513
10
203.66025403784442
20
-114.28203230275513
0
LWPOLYLINE
5
127
100
AcDbEntity
8
0
100
AcDbPolyline
90
6
70
1
43
0.0
10
215
20
-198.56406460551017
10
223.66025403784437
20
-193.56406460551017
10
223.66025403784437
20
-183.56406460551023
10
215
20
-178.56406460551023
10
206.33974596215563
20
-183.56406460551017
10
206.33974596215558
20
-193.56406460551017
0
LWPOLYLINE
5
128
100
AcDbEntity
8
0
100
AcDbPolyline
90
6
70
1
43
0.0
10
183.66025403784437
20
-158.92304845413261
10
183.66025403784437
20
-148.92304845413261
10
175
20
-143.92304845413261
10
166.33974596215563
20
-148.92304845413261
10
166.33974596215563
20
-158.92304845413261
10
175
20
-163.92304845413261
0
LWPOLYLINE
5
129
100
AcDbEntity
8
0
100
AcDbPolyline
90
6
70
1
43
0.0
10
203.66025403784437
20
-158.92304845413261
10
203.66025403784437
20
-148.92304845413261
10
195
20
-143.92304845413261
10
186.33974596215563
20
-148.92304845413261
10
186.33974596215563
20
-158.92304845413261
10
195
20
-163.92304845413261
0
LWPOLYLINE
5
130
100
AcDbEntity
8
0
100
AcDbPolyline
90
6
70
1
43
0.0
10
265
20
-57.320508075688764
10
256.33974596215563
20
-62.320508075688764
10
256.33974596215563
20
-72.320508075688764
10
265
20
-77.32050807568875
10
273.66025403784437
20
-72.320508075688764
10
273.66025403784437
20
-62.320508075688778
0
LWPOLYLINE
5
131
100
AcDbEntity
8
0
100
AcDbPolyline
90
6
70
1
43
0.0
10
193.66025403784437
20
-141.60254037844385
10
193.66025403784437
20
-131.60254037844385
10
185
20
-126.60254037844385
10
176.33974596215563
20
-131.60254037844385
10
176.33974596215563
20
-141.60254037844385
10
185
20
-146.60254037844385
0
LWPOLYLINE
5
132
100
AcDbEntity
8
0
100
AcDbPolyline
90
6
70
1
43
0.0
10
265.00000000000006
20
-91.961524227066391
10
256.33974596215569
20
-96.961524227066391
10
256.33974596215563
20
-106.96152422706639
10
265
20
-111.96152422706639
10
273.66025403784442
20
-106.96152422706639
10
273.66025403784442
20
-96.961524227066434
0
LWPOLYLINE
5
133
100
AcDbEntity
8
0
100
AcDbPolyline
90
6
70
1
43
0.0
10
145.00000000000003
20
-91.961524227066391
10
136.33974596215566
20
-96.961524227066391
10
136.33974596215566
20
-106.96152422706635
10
145
20
-111.96152422706635
10
153.66025403784437
20
-106.96152422706635
10
153.66025403784442
20
-96.961524227066349
0
LWPOLYLINE
5
134
100
AcDbEntity
8
0
100
AcDbPolyline
90
6
70
1
43
0.0
10
163.66025403784442
20
-79.641016151377571
10
155.00000000000006
20
-74.641016151377613
10
146.33974596215566
20
-79.641016151377613
10
146.33974596215566
20
-89.641016151377528
10
155.00000000000003
20
-94.641016151377571
10
163.66025403784442
20
-89.641016151377571
0
LWPOLYLINE
5
135
100
AcDbEntity
8
0
100
AcDbPolyline
90
6
70
1
43
0.0
10
155
20
-60
10
163.66025403784437
20
-55
10
163.66025403784437
20
-45.000000000000007
10
155
20
-40.000000000000014
10
146.33974596215563
20
-45.000000000000007
10
146.33974596215563
20
-54.999999999999993
0
LWPOLYLINE
5
136
100
AcDbEntity
8
0
100
AcDbPolyline
90
6
70
1
43
0.0
10
196.33974596215566
20
-96.961524227066391
10
196.33974596215566
20
-106.96152422706635
10
205
20
-111.96152422706635
10
213.66025403784437
20
-106.96152422706635
10
213.66025403784442
20
-96.961524227066349
10
205.00000000000003
20
-91.961524227066391
0
LWPOLYLINE
5
137
100
AcDbEntity
8
0
100
AcDbPolyline
90
6
70
1
43
0.0
10
176.33974596215563
20
-62.320508075688764
10
176.33974596215563
20
-72.320508075688764
10
185
20
-77.32050807568875
10
193.66025403784437
20
-72.320508075688764
10
193.66025403784437
20
-62.320508075688778
10
185
20
-57.320508075688764
0
LWPOLYLINE
5
138
100
AcDbEntity
8
0
100
AcDbPolyline
90
6
70
1
43
0.0
10
256.33974596215563
20
-141.60254037844393
10
265
20
-146.60254037844393
10
273.66025403784437
20
-141.60254037844393
10
273.66025403784437
20
-131.60254037844393
10
265
20
-126.60254037844393
10
256.33974596215563
20
-131.60254037844393
0
LWPOLYLINE
5
139
100
AcDbEntity
8
0
100
AcDbPolyline
90
6
70
1
43
0.0
10
175
20
-40.000000000000014
10
166.33974596215563
20
-45.000000000000007
10
166.33974596215563
20
-54.999999999999993
10
175
20
-60
10
183.66025403784437
20
-55
10
183.66025403784437
20
-45.000000000000007
0
LWPOLYLINE
5
140
100
AcDbEntity
8
0
100
AcDbPolyline
90
6
70
1
43
0.0
10
175.00000000000003
20
-109.28203230275513
10
166.33974596215566
20
-114.28203230275513
10
166.33974596215566
20
-124.28203230275508
10
175
20
-129.28203230275506
10
183.66025403784442
20
-124.28203230275513
10
183.66025403784442
20
-114.28203230275513
0
LWPOLYLINE
5
141
100
AcDbEntity
8
0
100
AcDbPolyline
90
6
70
1
43
0.0
10
145
20
-126.60254037844385
10
136.33974596215563
20
-131.60254037844385
10
136.33974596215563
20
-141.60254037844382
10
145
20
-146.60254037844385
10
153.66025403784437
20
-141.60254037844385
10
153.66025403784437
20
-131.60254037844385
0
LWPOLYLINE
5
142
100
AcDbEntity
8
0
100
AcDbPolyline
90
6
70
1
43
0.0
10
243.66025403784437
20
-148.92304845413267
10
235
20
-143.92304845413267
10
226.33974596215563
20
-148.92304845413264
10
226.33974596215563
20
-158.92304845413264
10
235
20
-163.92304845413264
10
243.66025403784437
20
-158.92304845413261
0
LWPOLYLINE
5
143
100
AcDbEntity
8
0
100
AcDbPolyline
90
6
70
1
43
0.0
10
215
20
-94.641016151377613
10
223.66025403784442
20
-89.641016151377613
10
223.66025403784442
20
-79.641016151377613
10
215.00000000000003
20
-74.641016151377613
10
206.33974596215566
20
-79.641016151377613
10
206.33974596215566
20
-89.641016151377613
0
LWPOLYLINE
5
144
100
AcDbEntity
8
0
100
AcDbPolyline
90
6
70
1
43
0.0
10
216.33974596215563
20
-176.24355652982143
10
225
20
-181.24355652982143
10
233.66025403784437
20
-176.24355652982143
10
233.66025403784437
20
-166.24355652982143
10
225
20
-161.24355652982143
10
216.33974596215563
20
-166.24355652982143
0
LWPOLYLINE
5
145
100
AcDbEntity
8
0
100
AcDbPolyline
90
6
70
1
43
0.0
10
145
20
-181.24355652982138
10
153.66025403784442
20
-176.24355652982138
10
153.66025403784442
20
-166.24355652982138
10
145
20
-161.24355652982138
10
136.33974596215566
20
-166.24355652982143
10
136.33974596215566
20
-176.24355652982138
0
LWPOLYLINE
5
146
100
AcDbEntity
8
0
100
AcDbPolyline
90
6
70
1
43
0.0
10
245.00000000000003
20
-91.961524227066391
10
236.33974596215566
20
-96.961524227066391
10
236.33974596215566
20
-106.96152422706635
10
245
20
-111.96152422706635
10
253.66025403784437
20
-106.96152422706635
10
253.66025403784442
20
-96.961524227066349
0
LWPOLYLINE
5
147
100
AcDbEntity
8
0
100
AcDbPolyline
90
6
70
1
43
0.0
10
195.00000000000003
20
-94.641016151377571
10
203.66025403784442
20
-89.641016151377571
10
203.66025403784442
20
-79.641016151377571
10
195.00000000000006
20
-74.641016151377613
10
186.33974596215566
20
-79.641016151377613
10
186.33974596215566
20
-89.641016151377528
0
LWPOLYLINE
5
148
100
AcDbEntity
8
0
100
AcDbPolyline
90
6
70
1
43
0.0
10
243.66025403784442
20
-114.28203230275513
10
235.00000000000003
20
-109.28203230275513
10
226.33974596215566
20
-114.28203230275513
10
226.33974596215566
20
-124.28203230275508
10
235
20
-129.28203230275506
10
243.66025403784442
20
-124.28203230275513
0
LWPOLYLINE
5
149
100
AcDbEntity
8
0
100
AcDbPolyline
90
6
70
1
43
0.0
10
155
20
-129.28203230275506
10
163.66025403784442
20
-124.28203230275513
10
163.66025403784442
20
-114.28203230275513
10
155.00000000000003
20
-109.28203230275513
10
146.33974596215566
20
-114.28203230275513
10
146.33974596215566
20
-124.28203230275508
0
LWPOLYLINE
5
150
100
AcDbEntity
8
0
100
AcDbPolyline
90
6
70
1
43
0.0
10
203.66025403784437
20
-45.000000000000007
10
195
20
-40.000000000000014
10
186.33974596215563
20
-45.000000000000007
10
186.33974596215563
20
-54.999999999999993
10
195
20
-60
10
203.66025403784437
20
-55
0
LWPOLYLINE
5
151
100
AcDbEntity
8
0
100
AcDbPolyline
90
6
70
1
43
0.0
10
223.66025403784442
20
-114.28203230275514
10
215
20
-109.28203230275514
10
206.33974596215563
20
-114.28203230275514
10
206.33974596215563
20
-124.28203230275511
10
215
20
-129.28203230275514
10
223.66025403784437
20
-124.28203230275514
0
LWPOLYLINE
5
152
100
AcDbEntity
8
0
100
AcDbPolyline
90
6
70
1
43
0.0
10
253.66025403784437
20
-131.60254037844388
10
245
20
-126.60254037844389
10
236.33974596215563
20
-131.60254037844388
10
236.33974596215563
20
-141.6025403784439
10
245
20
-146.6025403784439
10
253.66025403784437
20
-141.60254037844385
0
LWPOLYLINE
5
153
100
AcDbEntity
8
0
100
AcDbPolyline
90
6
70
1
43
0.0
10
183.66025403784442
20
-89.641016151377571
10
183.66025403784442
20
-79.641016151377571
10
175.00000000000006
20
-74.641016151377613
10
166.33974596215566
20
-79.641016151377613
10
166.33974596215566
20
-89.641016151377528
10
175.00000000000003
20
-94.641016151377571
0
LWPOLYLINE
5
154
100
AcDbEntity
8
0
100
AcDbPolyline
90
6
70
1
43
0.0
10
235.00000000000006
20
-74.641016151377613
10
226.33974596215566
20
-79.641016151377613
10
226.33974596215566
20
-89.641016151377528
10
235.00000000000003
20
-94.641016151377571
10
243.66025403784442
20
-89.641016151377571
10
243.66025403784442
20
-79.641016151377571
0
LWPOLYLINE
5
155
100
AcDbEntity
8
0
100
AcDbPolyline
90
6
70
1
43
0.0
10
285
20
-77.32050807568875
10
293.66025403784437
20
-72.320508075688764
10
293.66025403784437
20
-62.320508075688778
10
285
20
-57.320508075688764
10
276.33974596215563
20
-62.320508075688764
10
276.33974596215563
20
-72.320508075688764
0
LWPOLYLINE
5
156
100
AcDbEntity
8
0
100
AcDbPolyline
90
6
70
1
43
0.0
10
173.66025403784437
20
-141.60254037844385
10
173.66025403784437
20
-131.60254037844385
10
165
20
-126.60254037844385
10
156.33974596215563
20
-131.60254037844385
10
156.33974596215563
20
-141.60254037844385
10
165
20
-146.60254037844385
0
LWPOLYLINE
5
157
100
AcDbEntity
8
0
100
AcDbPolyline
90
6
70
1
43
0.0
10
126.33974596215563
20
-158.92304845413261
10
135
20
-163.92304845413258
10
143.66025403784437
20
-158.92304845413261
10
143.66025403784437
20
-148.92304845413261
10
135
20
-143.92304845413261
10
126.33974596215563
20
-148.92304845413261
0
LWPOLYLINE
5
158
100
AcDbEntity
8
0
100
AcDbPolyline
90
6
70
1
43
0.0
10
203.66025403784442
20
-183.56406460551017
10
195
20
-178.56406460551017
10
186.33974596215563
20
-183.56406460551017
10
186.33974596215563
20
-193.56406460551014
10
195
20
-198.56406460551014
10
203.66025403784437
20
-193.56406460551017
0
LWPOLYLINE
5
159
100
AcDbEntity
8
0
100
AcDbPolyline
90
6
70
1
43
0.0
10
146.33974596215563
20
-148.92304845413261
10
146.33974596215563
20
-158.92304845413261
10
155
20
-163.92304845413258
10
163.66025403784437
20
-158.92304845413261
10
163.66025403784437
20
-148.92304845413261
10
155
20
-143.92304845413261
0
LWPOLYLINE
5
160
100
AcDbEntity
8
0
100
AcDbPolyline
90
6
70
1
43
0.0
10
206.33974596215563
20
-54.999999999999993
10
215
20
-60
10
223.66025403784437
20
-55
10
223.66025403784437
20
-45.000000000000007
10
215
20
-40.000000000000014
10
206.33974596215563
20
-45.000000000000007
0
LWPOLYLINE
5
161
100
AcDbEntity
8
0
100
AcDbPolyline
90
6
70
1
43
0.0
10
226.33974596215563
20
-45.000000000000007
10
226.33974596215563
20
-54.999999999999993
10
235
20
-60
10
243.66025403784437
20
-55
10
243.66025403784437
20
-45.000000000000007
10
235
20
-40.000000000000014
0
LWPOLYLINE
5
162
100
AcDbEntity
8
0
100
AcDbPolyline
90
6
70
1
43
0.0
10
255.00000000000003
20
-74.641016151377613
10
246.33974596215566
20
-79.641016151377613
10
246.33974596215566
20
-89.641016151377613
10
255
20
-94.641016151377613
10
263.66025403784442
20
-89.641016151377613
10
263.66025403784442
20
-79.641016151377613
0
LWPOLYLINE
5
163
100
AcDbEntity
8
0
100
AcDbPolyline
90
6
70
1
43
0.0
10
233.66025403784442
20
-131.60254037844388
10
225
20
-126.60254037844388
10
216.33974596215566
20
-131.60254037844388
10
216.33974596215566
20
-141.60254037844385
10
225
20
-146.60254037844385
10
233.66025403784442
20
-141.60254037844385
0
LWPOLYLINE
5
164
100
AcDbEntity
8
0
100
AcDbPolyline
90
6
70
1
43
0.0
10
225
20
-57.320508075688764
10
216.33974596215563
20
-62.320508075688764
10
216.33974596215563
20
-72.320508075688764
10
225
20
-77.32050807568875
10
233.66025403784437
20
-72.320508075688764
10
233.66025403784437
20
-62.320508075688778
0
LWPOLYLINE
5
165
100
AcDbEntity
8
0
100
AcDbPolyline
90
6
70
1
43
0.0
10
225
20
-111.96152422706639
10
233.66025403784442
20
-106.96152422706639
10
233.66025403784442
20
-96.961524227066434
10
225.00000000000003
20
-91.961524227066391
10
216.33974596215566
20
-96.961524227066391
10
216.33974596215563
20
-106.96152422706639
0
LWPOLYLINE
5
166
100
AcDbEntity
8
0
100
AcDbPolyline
90
6
70
1
43
0.0
10
135.00000000000003
20
-94.641016151377571
10
143.66025403784442
20
-89.641016151377571
10
143.66025403784442
20
-79.641016151377571
10
135.00000000000006
20
-74.641016151377613
10
126.33974596215566
20
-79.641016151377613
10
126.33974596215566
20
-89.641016151377528
0
LWPOLYLINE
5
167
100
AcDbEntity
8
0
100
AcDbPolyline
90
6
70
1
43
0.0
10
126.33974596215566
20
-124.28203230275508
10
135
20
-129.28203230275506
10
143.66025403784442
20
-124.28203230275513
10
143.66025403784442
20
-114.28203230275513
10
135.00000000000003
20
-109.28203230275513
10
126.33974596215566
20
-114.28203230275513
0
LWPOLYLINE
5
168
100
AcDbEntity
8
0
100
AcDbPolyline
90
6
70
1
43
0.0
10
255
20
-60
10
263.66025403784437
20
-55
10
263.66025403784437
20
-45.000000000000007
10
255
20
-40.000000000000014
10
246.33974596215563
20
-45.000000000000007
10
246.33974596215563
20
-54.999999999999993
0
LWPOLYLINE
5
169
100
AcDbEntity
8
0
100
AcDbPolyline
90
6
70
1
43
0.0
10
133.66025403784437
20
-141.60254037844385
10
133.66025403784437
20
-131.60254037844385
10
125
20
-126.60254037844385
10
116.33974596215563
20
-131.60254037844385
10
116.33974596215563
20
-141.60254037844382
10
125
20
-146.60254037844385
0
LWPOLYLINE
5
170
100
AcDbEntity
8
0
100
AcDbPolyline
90
6
70
1
43
0.0
10
255
20
-109.28203230275514
10
246.33974596215563
20
-114.28203230275514
10
246.33974596215563
20
-124.28203230275511
10
255
20
-129.28203230275514
10
263.66025403784437
20
-124.28203230275514
10
263.66025403784442
20
-114.28203230275514
0
LWPOLYLINE
5
171
100
AcDbEntity
8
0
100
AcDbPolyline
90
6
70
1
43
0.0
10
176.33974596215566
20
-96.961524227066391
10
176.33974596215566
20
-106.96152422706635
10
185
20
-111.96152422706635
10
193.66025403784437
20
-106.96152422706635
10
193.66025403784442
20
-96.961524227066349
10
185.00000000000003
20
-91.961524227066391
0
LWPOLYLINE
5
172
100
AcDbEntity
8
0
100
AcDbPolyline
90
6
70
1
43
0.0
10
223.66025403784442
20
-148.92304845413264
10
215
20
-143.92304845413264
10
206.33974596215566
20
-148.92304845413267
10
206.33974596215566
20
-158.92304845413261
10
215
20
-163.92304845413261
10
223.66025403784442
20
-158.92304845413264
0
LWPOLYLINE
5
173
100
AcDbEntity
8
0
100
AcDbPolyline
90
6
70
1
43
0.0
10
275.00000000000006
20
-74.641016151377613
10
266.33974596215569
20
-79.641016151377613
10
266.33974596215569
20
-89.641016151377613
10
275
20
-94.641016151377613
10
283.66025403784442
20
-89.641016151377613
10
283.66025403784442
20
-79.641016151377613
0
ENDSEC
0
SECTION
2
OBJECTS
0
DICTIONARY
5
C
100
AcDbDictionary
3
ACAD_GROUP
350
D
3
ACAD_MLINESTYLE
350
17
0
DICTIONARY
5
D
100
AcDbDictionary
0
DICTIONARY
5
1A
330
C
100
AcDbDictionary
0
DICTIONARY
5
17
100
AcDbDictionary
0
ENDSEC
0
EOF
